<svg xmlns="http://www.w3.org/2000/svg" width="54" height="54" xmlns:v="https://vecta.io/nano"><path d="M4.265 25.99v-.352c.044-.528.044-.264.132-.044a3.1 3.1 0 0 0 3.474 2.506c-1.1-.528-1.67-1.627-2.638-2.418a4.33 4.33 0 0 1-.923-.88c-.132-.308.132-.923.22-1.275-.008-.135.007-.27.044-.4.088-.66.088-.264.088.044a3.1 3.1 0 0 0 3.21 2.858c-1.143-.616-2.023-2.2-2.858-3.254-.44-.528.132-3.034.176-1.8.06 1.487 1.166 2.723 2.638 2.946.22 0-.528-.835-.792-1.363-.528-1.1-1.89-2.067-1.45-3.3.176-.528.484-1.54.44-.967-.088 1.495.4 2.946 1.76 3.474.22.088.923.4.572.044a5.8 5.8 0 0 1-1.055-2.155c-.352-.7-1.187-1.54-.923-2.243.166-.464.388-.907.66-1.32.132-.308-.088.836-.044 1.23a3.1 3.1 0 0 0 1.407 2.287c.132.088 1.01.528.748.22-.47-.633-.772-1.374-.88-2.155l-.748-1.715c-.044-.088-.22-.352-.176-.4.044-.352.44-.748.616-1.01a.92.92 0 0 1 .176-.264c.484-.792.088.176.044.616a3.06 3.06 0 0 0 .22 1.407 2.61 2.61 0 0 0 1.011 1.363c.22.132.836.572.572.176-.572-.79-.528-2.067-.88-3.034-.044-.22-.484-1.01-.4-1.32a4.83 4.83 0 0 1 1.275-1.583c.088-.088-.088.132-.088.264-.105.152-.193.314-.264.484-.25.964-.073 1.99.484 2.814.22.264 1.1.924.967.7a1.54 1.54 0 0 1-.264-.616c-.22-.968-.176-2.067-.352-2.946-.132-.528-.352-.88.044-1.275.352-.4 1.583-1.67.923-.616-.374.638-.47 1.4-.264 2.11a2.9 2.9 0 0 0 .528 1.187c.132.132.7.66.7.528-.105-.905-.164-1.815-.176-2.726-.088-.528-.4-1.76 0-2.11a10.28 10.28 0 0 1 1.363-1.055c.088-.044-.088.132-.176.22-.053.116-.128.22-.22.308a2.32 2.32 0 0 0-.352 1.1c-.202 1.008.15 2.048.923 2.726.176.132-.044-.528-.044-.923.044-.484.176-.835.22-1.32a19.09 19.09 0 0 1 .044-2.243c.044-.4.66-.615.88-.748a2.61 2.61 0 0 1 .879-.528c.132-.088-.132.176-.264.308a2.91 2.91 0 0 0-.66.967 3.43 3.43 0 0 0 .044 2.639c.044.088.572.923.528.528-.22-1.275.4-2.55.572-3.826.044-.176.044-.7.176-.835.354-.202.72-.378 1.1-.528 1.1-.528-.484.7-.7 1.847a3.35 3.35 0 0 0 .132 1.5c.044.132.44.792.484.7.088-.352 0-.748.088-1.1l1.01-3.166c.176-.7 1.32-.528 1.89-.923-1.1.88-1.935 2.067-1.45 3.606 0 .132.308.923.308.572 0-1.1.792-1.847 1.1-2.814.22-.616.264-1.407.88-1.67.5-.18.99-.326 1.5-.44.088 0 .132.044 0 .176a2.51 2.51 0 0 0-.308.176c-.663.4-1.162 1.024-1.407 1.76-.197.457-.244.966-.132 1.45.044.176.176.792.264.66a3.5 3.5 0 0 0 .132-.66c.264-.616.836-1.143 1.1-1.715.135-.224.252-.458.352-.7a1.7 1.7 0 0 1 1.539-1.275c.352-.044.748-.352 1.01-.132.088.088-.088.088-.22.088-.185.086-.362.19-.528.308a2.65 2.65 0 0 0-1.1 1.1c-.304.503-.457 1.083-.44 1.67 0 .22.132.835.22.748.22-.264.22-.7.44-1.01l1.935-2.638c.264-.4 1.01-.4 1.67-.352.22 0 .44.044.572.044a4.93 4.93 0 0 0-.572.22 3.13 3.13 0 0 0-2.111 2.2c-.044.176-.22 1.187 0 1.32.132.088.088-.264.132-.352.18-.307.403-.588.66-.835l1.32-1.407.748-.88c.352-.352 1.1-.264 1.76-.132.132 0 .352.044.44.044l-.44.132a3.5 3.5 0 0 0-1.935 1.188c-.305.398-.502.867-.572 1.363v.572c0 .132.044.176.132 0 .308-.7 1.01-1.01 1.54-1.45.264-.22.528-.572.836-.88.4-.44.88-.88 1.363-.792.132 0 .22.044.352.044l1.23.308c-.416.012-.83.07-1.23.176-.525.14-1 .43-1.363.835a3.35 3.35 0 0 0-.352.484 2.09 2.09 0 0 0-.352.791c-.088.22-.22.968.044.572a2.2 2.2 0 0 1 .308-.352c.44-.44 1.1-.66 1.627-1.1.044 0 .044 0 .088-.044.572-.484 1.32-1.363 1.98-1.187.528.132 1.01.352 1.54.528-1.262-.197-2.517.395-3.166 1.495-.154.213-.272.45-.352.7-.088.22-.176.484-.088.528.044.044.044.044.088-.044.044 0 .088-.176.132-.22.132-.132.264-.22.4-.352.528-.308 1.1-.528 1.627-.835.528-.264 1.407-1.143 1.935-1.1a6.35 6.35 0 0 1 1.759.792 3.38 3.38 0 0 0-3.43 1.055c-.132.176-.7 1.01-.528 1.23.044.088.132-.132.22-.22a1.58 1.58 0 0 1 .44-.308c.484-.264 1.143-.4 1.67-.616.572-.264 1.45-.967 2.067-.923a5.62 5.62 0 0 1 1.671.923 3.45 3.45 0 0 0-3.474.792c-.132.132-.748.968-.66 1.143.044.088.176-.132.264-.176l.44-.308c.572-.22 1.23-.22 1.76-.44a14.34 14.34 0 0 1 2.067-.7c.44-.044 1.32.923 1.67 1.187-1.54-.528-3.43-.528-4.265 1.1a11.59 11.59 0 0 0 1.979-.264c1.23-.132 2.243-.88 3.2-.044.286.3.595.58.923.836-1.103-.673-2.486-.7-3.606-.044-.264.176-1.1 1.056-.7.88a4.82 4.82 0 0 1 2.111-.22c1.1-.088 2.2-.615 2.946.22l.836.968c-1.02-.742-2.356-.894-3.518-.4-.264.176-1.187.967-.748.835a7.44 7.44 0 0 1 2.419 0c1.935.044 2.33-.132 3.342 1.627-.967-.748-2.2-1.45-3.518-.88-.176.044-1.1.528-1.1.748 0 .088.22-.088.308-.088.175-.022.353-.022.528 0a8.18 8.18 0 0 1 1.8.352c.66.088 1.89-.088 2.287.44a7.4 7.4 0 0 1 .879 1.5 3.37 3.37 0 0 0-3.386-1.187c-.22.088-1.1.4-1.143.66-.044.088.176-.044.308-.044a1.08 1.08 0 0 1 .528.044 11.64 11.64 0 0 1 1.759.528c.572.132 1.847.132 2.2.616a6.33 6.33 0 0 1 .66 1.583c-.88-.88-1.67-1.67-3.122-1.407-.22 0-1.187.22-1.23.484 0 .088.22 0 .308 0 .176 0 .352.044.528.044.616.176 1.1.572 1.67.748.572.22 1.76.264 2.067.79a5.84 5.84 0 0 1 .528 1.759c-.967-1.54-2.42-2.33-4.265-1.54a6.06 6.06 0 0 1 2.419 1.1c.528.308 1.715.528 2.023 1.01a5.96 5.96 0 0 1 .308 1.8 3.18 3.18 0 0 0-4.09-1.891 5.99 5.99 0 0 1 2.287 1.319c.484.308 1.627.66 1.89 1.143a5.94 5.94 0 0 1 .132 1.979c-.616-1.715-1.847-2.858-3.87-2.463.923.308 1.363.968 2.155 1.54.484.44 1.45.835 1.76 1.407.22.352-.088 1.45-.088 1.89a3.2 3.2 0 0 0-3.606-2.726 6.8 6.8 0 0 1 1.979 1.759 17.13 17.13 0 0 1 1.583 1.495c.088.132-.044.308-.088.44-.044.528-.132 1.01-.22 1.54a3.17 3.17 0 0 0-3.21-3.21c1.01.616 1.45 1.8 2.33 2.726.44.44.792.7.7 1.32-.044.484-.264 1.01-.352 1.54-.22-1.935-.967-3.2-3-3.474 1.143.88 1.76 2.374 2.55 3.518.44.7-.132 1.583-.44 2.33.132-1.935-.572-3.474-2.507-3.87 1.055.923 1.5 2.594 2.11 3.782.4.747-.264 1.54-.66 2.2.264-1.89-.308-3.386-2.11-4a16.05 16.05 0 0 1 1.671 4c.264.747-.44 1.45-.923 2.067.484-1.847.176-3.342-1.583-4.265.39.814.63 1.694.7 2.594.132.616.748 1.67.44 2.243a4.98 4.98 0 0 1-1.055 1.319c.616-1.76.484-3.254-1.187-4.265.616 1.055.616 2.946.792 4.22.088.792-.748 1.275-1.275 1.76.66-1.627.792-3.166-.792-4.354.4 1.143.22 2.858.352 4.134.044.967-.88 1.32-1.54 1.847 1.01-1.45 1.23-3.2-.176-4.53.117.882.057 1.78-.176 2.638a7.27 7.27 0 0 1-.088 2.2c-.264.44-1.187.748-1.627 1.01 1.143-1.407 1.5-3 .308-4.485.037.886-.113 1.77-.44 2.594-.06.724-.162 1.443-.308 2.155-.044.132-.22.088-.352.176l-1.407.66c1.275-1.275 1.847-2.814.7-4.44.132 1.45-.7 2.9-1.055 4.222-.22.88-1.32.747-2.067 1.143 1.54-1.055 2.287-2.594 1.363-4.4 0 1.055-.66 1.715-1.01 2.594l-.572 1.45c-.308.748-1.32.792-2.067.924 1.5-.968 2.375-2.287 1.715-4.178-.22 1.275-1.275 2.55-1.89 3.65-.044.088-.044.132-.088.22-.308.528-.967.572-1.627.616-.22 0-.4.044-.528.044.176-.088.308-.176.528-.264a3.15 3.15 0 0 0 1.539-3.738c-.385.894-.904 1.725-1.54 2.463-.17.17-.318.363-.44.572-.22.44-.4.88-.88.967a10.76 10.76 0 0 1-1.187.088h0a2.15 2.15 0 0 1-.528-.044 2.69 2.69 0 0 0 .528-.22c1.464-.474 2.348-1.96 2.067-3.474-.46.763-1.038 1.446-1.715 2.023-.132.132-.22.308-.352.44-.66.792-.836 1.275-2.33 1.143-.22 0-.4-.088-.616-.088a3.19 3.19 0 0 0 2.858-3.43c-.352.79-1.01 1.1-1.67 1.67-.572.572-1.32 1.76-2.155 1.627l-.616-.132c-.3-.047-.593-.12-.88-.22.296-.022.6-.067.88-.132 1.402-.265 2.428-1.474 2.463-2.9a6.66 6.66 0 0 1-2.111 1.583c-.107.113-.225.217-.352.308-.484.44-1.055 1.056-1.5 1.01-.585-.097-1.15-.3-1.67-.572a3.31 3.31 0 0 0 3.166-1.627 3.62 3.62 0 0 0 .308-1.1c-.088.132-.22.22-.308.352-.836.7-1.8.967-2.682 1.627-.308.22-.792.572-1.143.528-.44-.1-.856-.28-1.23-.528-.08-.01-.155-.04-.22-.088-.4-.176-.176-.088.044-.088 1.64.3 3.23-.718 3.65-2.33-.88.88-2.2 1.01-3.254 1.54-.355.256-.76.435-1.187.528a3.84 3.84 0 0 1-1.055-.66c-.132 0-.176-.088-.264-.088-.352-.22-.264-.22-.088-.132a3.2 3.2 0 0 0 3.87-1.935c-1.01.7-2.33.748-3.386 1.187-.346.217-.737.354-1.143.4-.308-.044-.748-.528-1.055-.747-.088-.088-.176-.132-.264-.22-.528-.4-.22-.22.044-.088 1.543.65 3.324-.028 4.046-1.54-.836.572-1.76.44-2.726.66a15.74 15.74 0 0 0-1.539.4c-.66.132-2.463-1.583-1.5-1.055a3.14 3.14 0 0 0 4-1.143c-1.1.484-2.9.4-4.134.528-.484.088-.528.088-.88-.22a10.5 10.5 0 0 1-.967-1.011c-.088-.132-.132-.22 0-.132a3.18 3.18 0 0 0 4.4-.572 14.64 14.64 0 0 1-4.178.132c-.836.044-1.407-.836-1.715-1.54-.088-.176.044.044.132.044a3.16 3.16 0 0 0 4.4.044 14.27 14.27 0 0 1-3.562-.4 1.98 1.98 0 0 1-1.363-.308c-.044-.088-1.32-1.98-.616-1.32 1.12 1.197 2.964 1.35 4.265.352-1.23.176-2.33-.528-3.518-.748-.44-.044-1.01-.088-1.23-.44-.132-.132-.967-1.98-.572-1.407a3.23 3.23 0 0 0 4.265.792c-1.32 0-2.243-.792-3.43-1.1-.4-.088-1.01-.176-1.187-.484-.176-.22-.967-2.42-.352-1.54a3.14 3.14 0 0 0 4.09 1.319c-1.275-.22-2.155-1.01-3.254-1.5-.352-.132-1.01-.352-1.187-.66a6.58 6.58 0 0 1-.264-1.275v-.308c-.088-.44 0-.176.044 0 .685 1.524 2.424 2.27 4 1.715-1.187-.308-2.067-1.275-3.122-1.8-.308-.132-.923-.4-1.055-.7-.11-.43-.156-.875-.132-1.32v-.308c-.044-.528.044-.22.132.044.5 1.58 2.14 2.49 3.738 2.067-1.187-.4-1.935-1.407-2.9-2.11-.384-.215-.727-.498-1.01-.835-.175-.318 0-.9.044-1.24zm-.176-.4c-.044.44.044 1.32-.22 1.67-.528.748-1.23 1.407-1.715 2.155-.572.66-.792 1.5-1.54 1.98-.44.308.967.044 1.275-.132.675-.368 1.25-.897 1.67-1.54.2-.286.322-.62.352-.968.044-.132.044-.264.088-.44 0-.044 0-.264.044-.22.132.088.044 1.187.044 1.407.088.22-.308.748-.484.968-.59.778-1.092 1.62-1.5 2.506-.114.366-.293.71-.528 1.01-.132.088-.528.352-.572.484s.22-.044.352-.044a3.55 3.55 0 0 0 2.507-1.891c.218-.412.367-.858.44-1.32v-.4c0-.132-.088-.4-.044-.308.044.308.4 1.187.264 1.5A5.4 5.4 0 0 1 4 33.156a14.23 14.23 0 0 0-1.187 2.638 2.41 2.41 0 0 1-.748 1.231c-.176.22.836-.176 1.1-.308 1-.623 1.613-1.7 1.67-2.858 0-.132-.132-.7-.044-.835s.088.308.132.484a3.3 3.3 0 0 0 .22.7c.176.528-.352 1.32-.572 1.8a17.3 17.3 0 0 1-1.363 3.65 4.86 4.86 0 0 0 1.055-.44c.892-.67 1.442-1.7 1.5-2.814 0-.308-.22-.7-.132-.968 0-.132.044.176.088.308.054.183.128.36.22.528.264.528.044 1.01-.088 1.627-.308 1.055-.308 2.55-.7 3.606-.088.264-.616.88-.22.7 1.51-.795 2.258-2.535 1.8-4.178-.308-.923.616.792.572 1.275l-.44 2.638a5.56 5.56 0 0 1-.264 2.419c-.264.528.264 0 .4-.132a3.5 3.5 0 0 0 1.275-2.506 3.1 3.1 0 0 0-.176-1.319c-.044-.22-.352-.748-.176-.528a6.01 6.01 0 0 1 .792 1.055h0c.132.132 0 .616 0 .792v3.738a2.85 2.85 0 0 1-.088.879c-.044.088-.22.308-.132.264.967-.088 1.45-2.067 1.5-2.77s-.616-2.067-.4-1.847c1.23 1.143.66 3.122 1.143 4.617.17.433.23.9.176 1.363 0 .176-.176.747-.044.572.088-.132.22-.22.308-.352.863-1.163.983-2.718.308-4-.047-.132-.122-.252-.22-.352-.088-.088-.308-.352-.22-.264a2.4 2.4 0 0 1 1.187 1.539l.528 2.594c.22.523.384 1.068.484 1.627 0 .176-.132.792-.044.88.044.132.132-.22.22-.308a1.04 1.04 0 0 0 .264-.4c.404-.85.482-1.82.22-2.726a2.81 2.81 0 0 0-.7-1.275c-.132-.132-.484-.4-.308-.352.748.044 1.363 1.187 1.54 1.8l.66 2.287a4.76 4.76 0 0 1 .616 1.979c0 .7.616-.792.66-1.23.103-.804-.05-1.62-.44-2.33-.176-.308-1.187-1.187-.748-.967a2.22 2.22 0 0 1 1.319 1.187l1.76 3.65a2.21 2.21 0 0 1 .22.572c0 .132 0 .572.088.528 1.055-1.01.088-3.386-.528-4.134a2.69 2.69 0 0 0-.748-.66c-.012 0-.023-.004-.03-.013s-.013-.02-.013-.03c.66.308 1.187.44 1.583 1.1l1.847 3.034c.235.302.414.645.528 1.01.044.132 0 .484.088.44a2.67 2.67 0 0 0 .308-1.671 3.85 3.85 0 0 0-1.187-2.419c-.337-.165-.66-.356-.967-.572 0-.044.132 0 .176.044a1.4 1.4 0 0 1 .4.132c.7.264.88.264 1.32.88l1.143 1.45 1.275 1.583c.176.264.528 1.01.528.923a3.69 3.69 0 0 0-1.759-4.046h-.044c-.132-.1-.28-.174-.44-.22-.044-.044-.132-.044-.22-.088l.66.132c1.143.308 1.45 1.1 2.463 2.067.797.658 1.49 1.435 2.05 2.304 0 .044.044.088.088.132.127-.554.097-1.133-.088-1.67a3.97 3.97 0 0 0-1.1-1.671 2.76 2.76 0 0 0-.792-.528l-.66-.264c.494-.042.99.034 1.45.22.41.3.78.63 1.1 1.014a6.8 6.8 0 0 0 .572.528c.572.484 1.23.79 1.76 1.32.088 0 .088.044.176.132.22.308.572.792.572.616a2.85 2.85 0 0 0-.088-.88c-.088-.408-.252-.796-.484-1.143a3.81 3.81 0 0 0-2.331-1.583c-.044-.044-.132-.044-.176-.088-.176 0-.132-.044 0-.044.523-.04 1.05.034 1.54.22l.967.7c.392.318.803.61 1.23.88.155.113.316.215.484.308a4.38 4.38 0 0 1 1.5 1.1c.352.484.088-.264.088-.528a2.78 2.78 0 0 0-1.583-2.111c-.53-.308-1.11-.517-1.715-.616-.088 0-.088-.044-.176-.044h.176a3.55 3.55 0 0 1 1.715.22c.923.352 1.67.968 2.77 1.363.443.133.86.342 1.23.616.088.088.484.484.528.44.044-.088-.088-.352-.088-.44a3.78 3.78 0 0 0-3.958-2.551 2.74 2.74 0 0 1 1.759-.22 18.9 18.9 0 0 0 3.078 1.275c.453.075.886.24 1.275.484.132.088.528.484.572.4-.024-.152-.068-.3-.132-.44-.616-1.67-2.375-2.287-4.134-2.155.5-.322 1.115-.463 1.715-.4 1.025.414 2.084.738 3.166.967a3.9 3.9 0 0 1 1.275.352 5.85 5.85 0 0 0 .616.352.78.78 0 0 0-.176-.44c-.792-1.627-2.55-2.067-4.31-1.76.418-.25.86-.456 1.32-.616.9.052 1.788.23 2.638.528.86.043 1.712.16 2.55.352.572.264.572.176.176-.264a3.67 3.67 0 0 0-4.573-1.055c.308-.176 1.01-.792 1.363-.792 1.23 0 2.463.44 3.782.22.7-.088 2.155.484 1.715-.044-1.275-1.5-3.034-1.5-4.75-.792l1.055-.792c.176-.132.176-.308.4-.308.967-.132 2.067.044 3.034-.132.817-.22 1.67-.264 2.507-.132.4.132.176 0 0-.22-1.32-1.5-3.65-1.01-5.057 0 .308-.308.616-.528.88-.836.088-.132.308-.44.308-.264 0-.264.484-.22.7-.264l1.45-.132a22.55 22.55 0 0 1 2.9-.572c.22-.044.792.044.792 0-.176-.528-1.45-.88-1.935-.967-1.205-.09-2.4.343-3.254 1.187a7.45 7.45 0 0 1 .967-1.275 8.3 8.3 0 0 1 2.111-.572c.967-.22 1.847-.748 2.858-.923.143-.04.292-.056.44-.044.088 0 .352.088.308 0-.22-.484-1.54-.748-2.067-.7a4.27 4.27 0 0 0-3.3 1.8c.3-.564.64-1.107 1.01-1.627.616-.572 1.935-.66 2.726-.967.967-.44 1.627-1.1 2.814-1.1-1.847-1.1-3.826-.308-5.057 1.32a7.4 7.4 0 0 1 .7-1.451c.528-.66 1.847-.835 2.594-1.275a6.42 6.42 0 0 1 2.638-1.275 3.7 3.7 0 0 0-4.881 1.671 7.72 7.72 0 0 1 .528-1.407 5.53 5.53 0 0 1 1.583-1.055c1.143-.66 2.023-1.847 3.386-2.155-1.954-.633-4.053.427-4.705 2.375a7.46 7.46 0 0 1 .44-1.627c.4-.7 1.583-1.143 2.2-1.76a6.81 6.81 0 0 1 2.287-1.8 3.58 3.58 0 0 0-3.914 1.627c-.173.34-.32.693-.44 1.055.044-.484.132-1.01.22-1.495.088-.616 1.45-1.45 1.847-1.89.792-.88 1.23-1.76 2.287-2.33a3.7 3.7 0 0 0-4.09 3.386l.088-1.583c0-.7 1.187-1.54 1.627-2.11a7.95 7.95 0 0 1 2.023-2.507 3.66 3.66 0 0 0-3.518 2.463c-.132.352-.088.792-.22 1.143 0-.484-.22-1.363.044-1.76.4-.7.88-1.32 1.275-1.98.572-.967.792-1.98 1.715-2.77-2.155.264-3.254 1.98-3.254 4.178a5.63 5.63 0 0 1-.176-1.891c.264-.7.7-1.363 1.055-2.11.528-1.01.572-2.067 1.5-2.858a3.69 3.69 0 0 0-2.946 3.122c-.008.382.007.763.044 1.143l-.4-1.363a7.66 7.66 0 0 1 .836-2.506c.4-1.1.4-2.155 1.1-3.122a3.79 3.79 0 0 0-2.243 4.793c-.22-.616-.748-1.32-.572-1.98.352-1.5.528-3.87 1.32-5.233-1.714.787-2.552 2.746-1.935 4.53.22.66-.176-.264-.308-.484-.3-.568-.364-1.232-.176-1.847.264-1.407.088-3.254.66-4.485a3.85 3.85 0 0 0-1.407 4.837l-.792-1.1h.044c-.22-.132-.088-1.1-.088-1.407.088-1.5-.352-3.166.132-4.485-1.564 1.256-1.872 3.517-.7 5.145a6.8 6.8 0 0 1-1.055-1.187c-.352-.7-.132-2.023-.22-2.858-.266-.958-.355-1.956-.264-2.946-1.444 1.4-1.503 3.683-.132 5.145a5.51 5.51 0 0 1-1.187-1.055c-.44-.66-.308-1.98-.528-2.77a7.1 7.1 0 0 1-.528-2.9 3.66 3.66 0 0 0 .308 5.1c-.264-.22-1.143-.66-1.23-.923-.308-.748-.44-1.627-.748-2.42-.57-.95-.916-2.018-1.01-3.122C36.762 4.09 37.51 6.3 39.092 7.52c-.4-.264-1.32-.572-1.54-1.01-.352-.7-.572-1.495-.923-2.2a10.07 10.07 0 0 1-1.275-2.99c-.902 1.756-.287 3.91 1.407 4.925l-1.32-.572c-.4 0-1.1-2.023-1.275-2.243-.572-1.01-1.363-1.627-1.583-2.814-.836 1.847.22 3.65 1.76 4.66-.572-.22-1.187-.264-1.583-.748-.473-.746-.987-1.465-1.54-2.155-.044-.044-.088-.132-.176-.176A5.27 5.27 0 0 1 29.639.175c-.086.21-.13.434-.132.66a2.13 2.13 0 0 0 0 .748c.185 1.066.807 2.006 1.715 2.594l.836.44c-.268-.1-.55-.16-.836-.176a3.44 3.44 0 0 0-.616-.088c-.264 0-.88-.923-1.1-1.23-.044-.044-.088-.088-.088-.132-.748-.923-1.89-1.54-2.42-2.594a3.19 3.19 0 0 1-.22-.4c-.134.68-.057 1.387.22 2.023a4.32 4.32 0 0 0 2.419 2.155A2.87 2.87 0 0 1 27 3.122l-.748-.79c-.88-.748-1.847-1.056-2.42-2.11A3.69 3.69 0 0 0 27 4.046a5.61 5.61 0 0 0-.836.044h-.528c-.352-.044-.792-.528-1.01-.7L22.47 1.983c-.568-.338-1.075-.77-1.5-1.275a3.93 3.93 0 0 0 1.5 2.726c.602.42 1.296.69 2.023.792a7.27 7.27 0 0 1-1.319.176 2.3 2.3 0 0 1-.7-.264c-.616-.308-1.275-.88-1.8-1.143-.926-.336-1.788-.826-2.55-1.45.22 2.023 1.98 3 4 3.034l-1.363.352c-.528.132-1.847-.836-2.33-1.056-1.055-.484-2.067-.484-3-1.32.388 1.335 1.462 2.36 2.814 2.682.4.132.792-.044 1.23.044.484 0-.4.176-.572.264a1.9 1.9 0 0 1-1.539-.132c-1.363-.4-3.342-.572-4.573-1.363.532 1.267 1.712 2.143 3.078 2.287.484.044.88-.176 1.363-.176.528 0-.44.264-.616.352-.462.25-1.012.284-1.5.088-1.363-.264-3.43-.264-4.66-.923a3.34 3.34 0 0 0 2.463 1.847c.565.14 1.158.124 1.715-.044a1.05 1.05 0 0 1 .4-.132c.044 0 .22-.132.176-.044-.044.176-.264.176-.44.264-1.1.66-1.89.352-3.3.264-1.187-.088-2.2.176-3.2-.308.588.934 1.582 1.537 2.682 1.627.748.088 2.463-.66 1.89-.22-.308.22-.616.616-1.01.66-.748.088-1.583 0-2.375.088a9.05 9.05 0 0 1-3.254.088 3.76 3.76 0 0 0 4.793.7 1.4 1.4 0 0 1 .264-.22c.176-.044-.132.176-.176.176l-.66.66c-.4.44-1.363.4-1.935.44-1.407.176-2.638.836-4 .528 1.152 1.158 2.94 1.393 4.353.572.308-.22.836-.66.572-.4-.132.132-.792 1.143-.792.967 0 .132-1.01.264-1.187.308-1.45.308-2.814 1.143-4.4 1.01.845.698 1.97.957 3.034.7.54-.096 1.04-.338 1.45-.7.088-.088.308-.264.4-.352-.528.572-.484 1.01-1.23 1.32-.89.272-1.756.6-2.594 1.01a4.6 4.6 0 0 1-2.287.792 3.73 3.73 0 0 0 3.826-.044c.352-.22.572-.616.923-.88.4-.308-.132.4-.22.616-.264.528-.572.66-1.143.967-1.32.616-2.726 1.8-4.265 2.023a3.6 3.6 0 0 0 3.738-.4c.4-.264.528-.66.88-.968.308-.264-.132.44-.176.66-.22.616-.528.748-1.055 1.1-1.23.748-2.594 2.155-4.046 2.594 1.314.392 2.737.057 3.738-.88.28-.375.53-.772.748-1.187.352-.4-.044.484-.088.7a1.7 1.7 0 0 1-.923 1.187C2.6 23.69 1.368 25.186.005 25.714c1.33.33 2.732-.13 3.606-1.187.24-.362.445-.744.616-1.143.308-.44 0 .44 0 .66a2.16 2.16 0 0 1-.792 1.319C2.335 26.463 1.368 28 .05 28.75a3.76 3.76 0 0 0 3.738-2.111 2.52 2.52 0 0 0 .176-.616c.044-.176.132-.66.132-.44" fill="#131212" fill-rule="evenodd" opacity=".2"/></svg>