<svg width="0" height="0" class="hidden">
  <symbol xmlns="http://www.w3.org/2000/svg" id="a">
    <text fill="none" stroke="#000" font-size="80" font-family="Geometria-Medium, Geometria" font-weight="500">
      <tspan stroke-linejoin="round" x="1" y="63">A</tspan>
    </text>
  </symbol>
  <symbol xmlns="http://www.w3.org/2000/svg" viewBox="0 0 54 82" id="e">
    <text stroke-linejoin="round" fill="none" stroke="#000" stroke-linecap="round" transform="translate(1 63)" font-size="80" font-family="Geometria-Medium, Geometria" font-weight="500">
      <tspan x="0" y="0">E</tspan>
    </text>
  </symbol>
  <symbol xmlns="http://www.w3.org/2000/svg" viewBox="0 0 64 82" id="g">
    <text stroke-linejoin="round" fill="none" stroke="#000" stroke-linecap="round" transform="translate(1 63)" font-size="80" font-family="Geometria-Medium, Geometria" font-weight="500">
      <tspan x="0" y="0">G</tspan>
    </text>
  </symbol>
  <symbol xmlns="http://www.w3.org/2000/svg" id="big-logo">
    <text fill="#fff" font-size="140" font-family="Philosopher" letter-spacing=".36em">
      <tspan x="0" y="121">AFFINAGE</tspan>
    </text>
  </symbol>
  <symbol xmlns="http://www.w3.org/2000/svg" id="burger">
    <path d="M4.265 25.99v-.352c.044-.528.044-.264.132-.044A3.1 3.1 0 0 0 7.871 28.1c-1.1-.528-1.67-1.627-2.638-2.418a4.33 4.33 0 0 1-.923-.88c-.132-.308.132-.923.22-1.275a1.2 1.2 0 0 1 .044-.4c.088-.66.088-.264.088.044a3.1 3.1 0 0 0 3.21 2.858c-1.143-.616-2.023-2.2-2.858-3.254-.44-.528.132-3.034.176-1.8a3.106 3.106 0 0 0 2.638 2.946c.22 0-.528-.835-.792-1.363-.528-1.1-1.89-2.067-1.45-3.3.176-.528.484-1.54.44-.967-.088 1.495.4 2.946 1.76 3.474.22.088.923.4.572.044a5.8 5.8 0 0 1-1.055-2.155c-.352-.7-1.187-1.54-.923-2.243.166-.464.388-.907.66-1.32.132-.308-.088.836-.044 1.23a3.1 3.1 0 0 0 1.407 2.287c.132.088 1.01.528.748.22a4.692 4.692 0 0 1-.88-2.155l-.748-1.715c-.044-.088-.22-.352-.176-.4.044-.352.44-.748.616-1.01a.92.92 0 0 1 .176-.264c.484-.792.088.176.044.616a3.06 3.06 0 0 0 .22 1.407 2.61 2.61 0 0 0 1.011 1.363c.22.132.836.572.572.176-.572-.79-.528-2.067-.88-3.034-.044-.22-.484-1.01-.4-1.32a4.83 4.83 0 0 1 1.275-1.583c.088-.088-.088.132-.088.264a2.641 2.641 0 0 0-.264.484c-.25.964-.073 1.99.484 2.814.22.264 1.1.924.967.7a1.54 1.54 0 0 1-.264-.616c-.22-.968-.176-2.067-.352-2.946-.132-.528-.352-.88.044-1.275.352-.4 1.583-1.67.923-.616-.374.638-.47 1.4-.264 2.11a2.9 2.9 0 0 0 .528 1.187c.132.132.7.66.7.528a26.708 26.708 0 0 1-.176-2.726c-.088-.528-.4-1.76 0-2.11a10.28 10.28 0 0 1 1.363-1.055c.088-.044-.088.132-.176.22-.053.116-.128.22-.22.308a2.32 2.32 0 0 0-.352 1.1 2.875 2.875 0 0 0 .923 2.726c.176.132-.044-.528-.044-.923.044-.484.176-.835.22-1.32a19.09 19.09 0 0 1 .044-2.243c.044-.4.66-.615.88-.748a2.61 2.61 0 0 1 .879-.528c.132-.088-.132.176-.264.308a2.91 2.91 0 0 0-.66.967 3.43 3.43 0 0 0 .044 2.639c.044.088.572.923.528.528-.22-1.275.4-2.55.572-3.826.044-.176.044-.7.176-.835.354-.202.72-.378 1.1-.528 1.1-.528-.484.7-.7 1.847a3.35 3.35 0 0 0 .132 1.5c.044.132.44.792.484.7.088-.352 0-.748.088-1.1l1.01-3.166c.176-.7 1.32-.528 1.89-.923-1.1.88-1.935 2.067-1.45 3.606 0 .132.308.923.308.572 0-1.1.792-1.847 1.1-2.814.22-.616.264-1.407.88-1.67.5-.18.99-.326 1.5-.44.088 0 .132.044 0 .176a2.51 2.51 0 0 0-.308.176 3.256 3.256 0 0 0-1.407 1.76 2.336 2.336 0 0 0-.132 1.45c.044.176.176.792.264.66a3.5 3.5 0 0 0 .132-.66c.264-.616.836-1.143 1.1-1.715.135-.224.252-.458.352-.7a1.7 1.7 0 0 1 1.539-1.275c.352-.044.748-.352 1.01-.132.088.088-.088.088-.22.088-.185.086-.362.19-.528.308a2.65 2.65 0 0 0-1.1 1.1 3.058 3.058 0 0 0-.44 1.67c0 .22.132.835.22.748.22-.264.22-.7.44-1.01l1.935-2.638c.264-.4 1.01-.4 1.67-.352.22 0 .44.044.572.044a4.93 4.93 0 0 0-.572.22 3.13 3.13 0 0 0-2.111 2.2c-.044.176-.22 1.187 0 1.32.132.088.088-.264.132-.352.18-.307.403-.588.66-.835l1.32-1.407.748-.88c.352-.352 1.1-.264 1.76-.132.132 0 .352.044.44.044l-.44.132a3.5 3.5 0 0 0-1.935 1.188 2.908 2.908 0 0 0-.572 1.363v.572c0 .132.044.176.132 0 .308-.7 1.01-1.01 1.54-1.45.264-.22.528-.572.836-.88.4-.44.88-.88 1.363-.792.132 0 .22.044.352.044l1.23.308c-.416.012-.83.07-1.23.176a2.8 2.8 0 0 0-1.363.835 3.35 3.35 0 0 0-.352.484 2.09 2.09 0 0 0-.352.791c-.088.22-.22.968.044.572a2.2 2.2 0 0 1 .308-.352c.44-.44 1.1-.66 1.627-1.1.044 0 .044 0 .088-.044.572-.484 1.32-1.363 1.98-1.187.528.132 1.01.352 1.54.528a3.117 3.117 0 0 0-3.166 1.495c-.154.213-.272.45-.352.7-.088.22-.176.484-.088.528.044.044.044.044.088-.044.044 0 .088-.176.132-.22.132-.132.264-.22.4-.352.528-.308 1.1-.528 1.627-.835.528-.264 1.407-1.143 1.935-1.1a6.35 6.35 0 0 1 1.759.792 3.38 3.38 0 0 0-3.43 1.055c-.132.176-.7 1.01-.528 1.23.044.088.132-.132.22-.22a1.58 1.58 0 0 1 .44-.308c.484-.264 1.143-.4 1.67-.616.572-.264 1.45-.967 2.067-.923a5.62 5.62 0 0 1 1.671.923 3.45 3.45 0 0 0-3.474.792c-.132.132-.748.968-.66 1.143.044.088.176-.132.264-.176l.44-.308c.572-.22 1.23-.22 1.76-.44a14.34 14.34 0 0 1 2.067-.7c.44-.044 1.32.923 1.67 1.187-1.54-.528-3.43-.528-4.265 1.1a11.59 11.59 0 0 0 1.979-.264c1.23-.132 2.243-.88 3.2-.044.286.3.595.58.923.836a3.51 3.51 0 0 0-3.606-.044c-.264.176-1.1 1.056-.7.88a4.82 4.82 0 0 1 2.111-.22c1.1-.088 2.2-.615 2.946.22l.836.968a3.592 3.592 0 0 0-3.518-.4c-.264.176-1.187.967-.748.835a7.44 7.44 0 0 1 2.419 0c1.935.044 2.33-.132 3.342 1.627-.967-.748-2.2-1.45-3.518-.88-.176.044-1.1.528-1.1.748 0 .088.22-.088.308-.088a2.12 2.12 0 0 1 .528 0 8.18 8.18 0 0 1 1.8.352c.66.088 1.89-.088 2.287.44a7.4 7.4 0 0 1 .879 1.5 3.37 3.37 0 0 0-3.386-1.187c-.22.088-1.1.4-1.143.66-.044.088.176-.044.308-.044a1.08 1.08 0 0 1 .528.044 11.64 11.64 0 0 1 1.759.528c.572.132 1.847.132 2.2.616a6.33 6.33 0 0 1 .66 1.583c-.88-.88-1.67-1.67-3.122-1.407-.22 0-1.187.22-1.23.484 0 .088.22 0 .308 0 .176 0 .352.044.528.044.616.176 1.1.572 1.67.748.572.22 1.76.264 2.067.79a5.84 5.84 0 0 1 .528 1.759c-.967-1.54-2.42-2.33-4.265-1.54a6.06 6.06 0 0 1 2.419 1.1c.528.308 1.715.528 2.023 1.01a5.96 5.96 0 0 1 .308 1.8 3.18 3.18 0 0 0-4.09-1.891 5.99 5.99 0 0 1 2.287 1.319c.484.308 1.627.66 1.89 1.143a5.94 5.94 0 0 1 .132 1.979c-.616-1.715-1.847-2.858-3.87-2.463.923.308 1.363.968 2.155 1.54.484.44 1.45.835 1.76 1.407.22.352-.088 1.45-.088 1.89a3.2 3.2 0 0 0-3.606-2.726 6.8 6.8 0 0 1 1.979 1.759 17.13 17.13 0 0 1 1.583 1.495c.088.132-.044.308-.088.44-.044.528-.132 1.01-.22 1.54a3.17 3.17 0 0 0-3.21-3.21c1.01.616 1.45 1.8 2.33 2.726.44.44.792.7.7 1.32-.044.484-.264 1.01-.352 1.54-.22-1.935-.967-3.2-3-3.474 1.143.88 1.76 2.374 2.55 3.518.44.7-.132 1.583-.44 2.33.132-1.935-.572-3.474-2.507-3.87 1.055.923 1.5 2.594 2.11 3.782.4.747-.264 1.54-.66 2.2.264-1.89-.308-3.386-2.11-4a16.05 16.05 0 0 1 1.671 4c.264.747-.44 1.45-.923 2.067.484-1.847.176-3.342-1.583-4.265.39.814.63 1.694.7 2.594.132.616.748 1.67.44 2.243a4.98 4.98 0 0 1-1.055 1.319c.616-1.76.484-3.254-1.187-4.265.616 1.055.616 2.946.792 4.22.088.792-.748 1.275-1.275 1.76.66-1.627.792-3.166-.792-4.354.4 1.143.22 2.858.352 4.134.044.967-.88 1.32-1.54 1.847 1.01-1.45 1.23-3.2-.176-4.53.117.882.057 1.78-.176 2.638a7.27 7.27 0 0 1-.088 2.2c-.264.44-1.187.748-1.627 1.01 1.143-1.407 1.5-3 .308-4.485a6.318 6.318 0 0 1-.44 2.594c-.06.724-.162 1.443-.308 2.155-.044.132-.22.088-.352.176l-1.407.66c1.275-1.275 1.847-2.814.7-4.44.132 1.45-.7 2.9-1.055 4.222-.22.88-1.32.747-2.067 1.143 1.54-1.055 2.287-2.594 1.363-4.4 0 1.055-.66 1.715-1.01 2.594l-.572 1.45c-.308.748-1.32.792-2.067.924 1.5-.968 2.375-2.287 1.715-4.178-.22 1.275-1.275 2.55-1.89 3.65-.044.088-.044.132-.088.22-.308.528-.967.572-1.627.616-.22 0-.4.044-.528.044.176-.088.308-.176.528-.264a3.15 3.15 0 0 0 1.539-3.738 9.573 9.573 0 0 1-1.54 2.463 2.82 2.82 0 0 0-.44.572c-.22.44-.4.88-.88.967a10.76 10.76 0 0 1-1.187.088 2.15 2.15 0 0 1-.528-.044 2.69 2.69 0 0 0 .528-.22 3.062 3.062 0 0 0 2.067-3.474 8.257 8.257 0 0 1-1.715 2.023c-.132.132-.22.308-.352.44-.66.792-.836 1.275-2.33 1.143-.22 0-.4-.088-.616-.088a3.19 3.19 0 0 0 2.858-3.43c-.352.79-1.01 1.1-1.67 1.67-.572.572-1.32 1.76-2.155 1.627l-.616-.132c-.3-.047-.593-.12-.88-.22.296-.022.6-.067.88-.132a3.027 3.027 0 0 0 2.463-2.9 6.66 6.66 0 0 1-2.111 1.583 2.459 2.459 0 0 1-.352.308c-.484.44-1.055 1.056-1.5 1.01a5.6 5.6 0 0 1-1.67-.572 3.31 3.31 0 0 0 3.166-1.627 3.62 3.62 0 0 0 .308-1.1c-.088.132-.22.22-.308.352-.836.7-1.8.967-2.682 1.627-.308.22-.792.572-1.143.528-.44-.1-.856-.28-1.23-.528a.466.466 0 0 1-.22-.088c-.4-.176-.176-.088.044-.088 1.64.3 3.23-.718 3.65-2.33-.88.88-2.2 1.01-3.254 1.54a3.19 3.19 0 0 1-1.187.528 3.84 3.84 0 0 1-1.055-.66c-.132 0-.176-.088-.264-.088-.352-.22-.264-.22-.088-.132a3.2 3.2 0 0 0 3.87-1.935c-1.01.7-2.33.748-3.386 1.187a2.731 2.731 0 0 1-1.143.4c-.308-.044-.748-.528-1.055-.747-.088-.088-.176-.132-.264-.22-.528-.4-.22-.22.044-.088a3.135 3.135 0 0 0 4.046-1.54c-.836.572-1.76.44-2.726.66a15.74 15.74 0 0 0-1.539.4c-.66.132-2.463-1.583-1.5-1.055a3.14 3.14 0 0 0 4-1.143c-1.1.484-2.9.4-4.134.528-.484.088-.528.088-.88-.22a10.5 10.5 0 0 1-.967-1.011c-.088-.132-.132-.22 0-.132a3.18 3.18 0 0 0 4.4-.572 14.64 14.64 0 0 1-4.178.132c-.836.044-1.407-.836-1.715-1.54-.088-.176.044.044.132.044a3.16 3.16 0 0 0 4.4.044 14.27 14.27 0 0 1-3.562-.4 1.98 1.98 0 0 1-1.363-.308c-.044-.088-1.32-1.98-.616-1.32a3.185 3.185 0 0 0 4.265.352c-1.23.176-2.33-.528-3.518-.748-.44-.044-1.01-.088-1.23-.44-.132-.132-.967-1.98-.572-1.407a3.23 3.23 0 0 0 4.265.792c-1.32 0-2.243-.792-3.43-1.1-.4-.088-1.01-.176-1.187-.484-.176-.22-.967-2.42-.352-1.54a3.14 3.14 0 0 0 4.09 1.319c-1.275-.22-2.155-1.01-3.254-1.5-.352-.132-1.01-.352-1.187-.66a6.58 6.58 0 0 1-.264-1.275v-.308c-.088-.44 0-.176.044 0a3.215 3.215 0 0 0 4 1.715c-1.187-.308-2.067-1.275-3.122-1.8-.308-.132-.923-.4-1.055-.7a4.376 4.376 0 0 1-.132-1.32v-.308c-.044-.528.044-.22.132.044a3.09 3.09 0 0 0 3.738 2.067c-1.187-.4-1.935-1.407-2.9-2.11a3.644 3.644 0 0 1-1.01-.835c-.175-.318 0-.9.044-1.24zm-.176-.4c-.044.44.044 1.32-.22 1.67-.528.748-1.23 1.407-1.715 2.155-.572.66-.792 1.5-1.54 1.98-.44.308.967.044 1.275-.132a4.657 4.657 0 0 0 1.67-1.54c.2-.286.322-.62.352-.968.044-.132.044-.264.088-.44 0-.044 0-.264.044-.22.132.088.044 1.187.044 1.407.088.22-.308.748-.484.968-.59.778-1.092 1.62-1.5 2.506-.114.366-.293.71-.528 1.01-.132.088-.528.352-.572.484s.22-.044.352-.044a3.55 3.55 0 0 0 2.507-1.891c.218-.412.367-.858.44-1.32v-.4c0-.132-.088-.4-.044-.308.044.308.4 1.187.264 1.5A5.4 5.4 0 0 1 4 33.156a14.23 14.23 0 0 0-1.187 2.638 2.41 2.41 0 0 1-.748 1.231c-.176.22.836-.176 1.1-.308 1-.623 1.613-1.7 1.67-2.858 0-.132-.132-.7-.044-.835s.088.308.132.484a3.3 3.3 0 0 0 .22.7c.176.528-.352 1.32-.572 1.8a17.3 17.3 0 0 1-1.363 3.65 4.86 4.86 0 0 0 1.055-.44 3.765 3.765 0 0 0 1.5-2.814c0-.308-.22-.7-.132-.968 0-.132.044.176.088.308.054.183.128.36.22.528.264.528.044 1.01-.088 1.627-.308 1.055-.308 2.55-.7 3.606-.088.264-.616.88-.22.7a3.621 3.621 0 0 0 1.8-4.178c-.308-.923.616.792.572 1.275l-.44 2.638a5.56 5.56 0 0 1-.264 2.419c-.264.528.264 0 .4-.132a3.5 3.5 0 0 0 1.275-2.506 3.1 3.1 0 0 0-.176-1.319c-.044-.22-.352-.748-.176-.528a6.01 6.01 0 0 1 .792 1.055c.132.132 0 .616 0 .792v3.738a2.85 2.85 0 0 1-.088.879c-.044.088-.22.308-.132.264.967-.088 1.45-2.067 1.5-2.77s-.616-2.067-.4-1.847c1.23 1.143.66 3.122 1.143 4.617.17.433.23.9.176 1.363 0 .176-.176.747-.044.572.088-.132.22-.22.308-.352a3.767 3.767 0 0 0 .308-4 .965.965 0 0 0-.22-.352c-.088-.088-.308-.352-.22-.264a2.4 2.4 0 0 1 1.187 1.539l.528 2.594a7.69 7.69 0 0 1 .484 1.627c0 .176-.132.792-.044.88.044.132.132-.22.22-.308a1.04 1.04 0 0 0 .264-.4c.404-.85.482-1.82.22-2.726a2.81 2.81 0 0 0-.7-1.275c-.132-.132-.484-.4-.308-.352.748.044 1.363 1.187 1.54 1.8l.66 2.287a4.76 4.76 0 0 1 .616 1.979c0 .7.616-.792.66-1.23a3.828 3.828 0 0 0-.44-2.33c-.176-.308-1.187-1.187-.748-.967a2.22 2.22 0 0 1 1.319 1.187l1.76 3.65a2.21 2.21 0 0 1 .22.572c0 .132 0 .572.088.528 1.055-1.01.088-3.386-.528-4.134a2.69 2.69 0 0 0-.748-.66c-.012 0-.023-.004-.03-.013s-.013-.02-.013-.03c.66.308 1.187.44 1.583 1.1l1.847 3.034a3.2 3.2 0 0 1 .528 1.01c.044.132 0 .484.088.44a2.67 2.67 0 0 0 .308-1.671 3.85 3.85 0 0 0-1.187-2.419 7.122 7.122 0 0 1-.967-.572c0-.044.132 0 .176.044a1.4 1.4 0 0 1 .4.132c.7.264.88.264 1.32.88l1.143 1.45 1.275 1.583c.176.264.528 1.01.528.923a3.69 3.69 0 0 0-1.759-4.046h-.044c-.132-.1-.28-.174-.44-.22-.044-.044-.132-.044-.22-.088l.66.132c1.143.308 1.45 1.1 2.463 2.067a10.05 10.05 0 0 1 2.05 2.304c0 .044.044.088.088.132a3.042 3.042 0 0 0-.088-1.67 3.97 3.97 0 0 0-1.1-1.671 2.76 2.76 0 0 0-.792-.528l-.66-.264c.494-.042.99.034 1.45.22.41.3.78.63 1.1 1.014a6.8 6.8 0 0 0 .572.528c.572.484 1.23.79 1.76 1.32.088 0 .088.044.176.132.22.308.572.792.572.616a2.85 2.85 0 0 0-.088-.88 3.313 3.313 0 0 0-.484-1.143 3.81 3.81 0 0 0-2.331-1.583c-.044-.044-.132-.044-.176-.088-.176 0-.132-.044 0-.044.523-.04 1.05.034 1.54.22l.967.7c.392.318.803.61 1.23.88.155.113.316.215.484.308a4.38 4.38 0 0 1 1.5 1.1c.352.484.088-.264.088-.528a2.78 2.78 0 0 0-1.583-2.111 5.027 5.027 0 0 0-1.715-.616c-.088 0-.088-.044-.176-.044h.176a3.55 3.55 0 0 1 1.715.22c.923.352 1.67.968 2.77 1.363.443.133.86.342 1.23.616.088.088.484.484.528.44.044-.088-.088-.352-.088-.44a3.78 3.78 0 0 0-3.958-2.551 2.74 2.74 0 0 1 1.759-.22 18.9 18.9 0 0 0 3.078 1.275c.453.075.886.24 1.275.484.132.088.528.484.572.4a1.692 1.692 0 0 0-.132-.44c-.616-1.67-2.375-2.287-4.134-2.155a2.674 2.674 0 0 1 1.715-.4c1.025.414 2.084.738 3.166.967a3.9 3.9 0 0 1 1.275.352 5.85 5.85 0 0 0 .616.352.78.78 0 0 0-.176-.44c-.792-1.627-2.55-2.067-4.31-1.76a7.14 7.14 0 0 1 1.32-.616c.9.052 1.788.23 2.638.528.86.043 1.712.16 2.55.352.572.264.572.176.176-.264a3.67 3.67 0 0 0-4.573-1.055c.308-.176 1.01-.792 1.363-.792 1.23 0 2.463.44 3.782.22.7-.088 2.155.484 1.715-.044-1.275-1.5-3.034-1.5-4.75-.792l1.055-.792c.176-.132.176-.308.4-.308.967-.132 2.067.044 3.034-.132a6.025 6.025 0 0 1 2.507-.132c.4.132.176 0 0-.22-1.32-1.5-3.65-1.01-5.057 0 .308-.308.616-.528.88-.836.088-.132.308-.44.308-.264 0-.264.484-.22.7-.264l1.45-.132a22.55 22.55 0 0 1 2.9-.572c.22-.044.792.044.792 0-.176-.528-1.45-.88-1.935-.967a4.195 4.195 0 0 0-3.254 1.187 7.45 7.45 0 0 1 .967-1.275 8.3 8.3 0 0 1 2.111-.572c.967-.22 1.847-.748 2.858-.923.143-.04.292-.056.44-.044.088 0 .352.088.308 0-.22-.484-1.54-.748-2.067-.7a4.27 4.27 0 0 0-3.3 1.8 14.8 14.8 0 0 1 1.01-1.627c.616-.572 1.935-.66 2.726-.967.967-.44 1.627-1.1 2.814-1.1-1.847-1.1-3.826-.308-5.057 1.32a7.4 7.4 0 0 1 .7-1.451c.528-.66 1.847-.835 2.594-1.275a6.42 6.42 0 0 1 2.638-1.275 3.7 3.7 0 0 0-4.881 1.671 7.72 7.72 0 0 1 .528-1.407 5.53 5.53 0 0 1 1.583-1.055c1.143-.66 2.023-1.847 3.386-2.155a3.745 3.745 0 0 0-4.705 2.375 7.46 7.46 0 0 1 .44-1.627c.4-.7 1.583-1.143 2.2-1.76a6.81 6.81 0 0 1 2.287-1.8 3.58 3.58 0 0 0-3.914 1.627 7.6 7.6 0 0 0-.44 1.055c.044-.484.132-1.01.22-1.495.088-.616 1.45-1.45 1.847-1.89.792-.88 1.23-1.76 2.287-2.33a3.7 3.7 0 0 0-4.09 3.386l.088-1.583c0-.7 1.187-1.54 1.627-2.11a7.95 7.95 0 0 1 2.023-2.507 3.66 3.66 0 0 0-3.518 2.463c-.132.352-.088.792-.22 1.143 0-.484-.22-1.363.044-1.76.4-.7.88-1.32 1.275-1.98.572-.967.792-1.98 1.715-2.77-2.155.264-3.254 1.98-3.254 4.178a5.63 5.63 0 0 1-.176-1.891c.264-.7.7-1.363 1.055-2.11.528-1.01.572-2.067 1.5-2.858a3.69 3.69 0 0 0-2.946 3.122 9.69 9.69 0 0 0 .044 1.143l-.4-1.363a7.66 7.66 0 0 1 .836-2.506c.4-1.1.4-2.155 1.1-3.122a3.79 3.79 0 0 0-2.243 4.793c-.22-.616-.748-1.32-.572-1.98.352-1.5.528-3.87 1.32-5.233a3.666 3.666 0 0 0-1.935 4.53c.22.66-.176-.264-.308-.484a2.432 2.432 0 0 1-.176-1.847c.264-1.407.088-3.254.66-4.485a3.85 3.85 0 0 0-1.407 4.837l-.792-1.1h.044c-.22-.132-.088-1.1-.088-1.407.088-1.5-.352-3.166.132-4.485a3.772 3.772 0 0 0-.7 5.145 6.8 6.8 0 0 1-1.055-1.187c-.352-.7-.132-2.023-.22-2.858a8.203 8.203 0 0 1-.264-2.946 3.664 3.664 0 0 0-.132 5.145 5.51 5.51 0 0 1-1.187-1.055c-.44-.66-.308-1.98-.528-2.77a7.1 7.1 0 0 1-.528-2.9 3.66 3.66 0 0 0 .308 5.1c-.264-.22-1.143-.66-1.23-.923-.308-.748-.44-1.627-.748-2.42a7.268 7.268 0 0 1-1.01-3.122C36.762 4.09 37.51 6.3 39.092 7.52c-.4-.264-1.32-.572-1.54-1.01-.352-.7-.572-1.495-.923-2.2a10.07 10.07 0 0 1-1.275-2.99 3.745 3.745 0 0 0 1.407 4.925l-1.32-.572c-.4 0-1.1-2.023-1.275-2.243-.572-1.01-1.363-1.627-1.583-2.814-.836 1.847.22 3.65 1.76 4.66-.572-.22-1.187-.264-1.583-.748a23.967 23.967 0 0 0-1.54-2.155c-.044-.044-.088-.132-.176-.176A5.27 5.27 0 0 1 29.639.175c-.086.21-.13.434-.132.66a2.13 2.13 0 0 0 0 .748 3.882 3.882 0 0 0 1.715 2.594l.836.44c-.268-.1-.55-.16-.836-.176a3.44 3.44 0 0 0-.616-.088c-.264 0-.88-.923-1.1-1.23-.044-.044-.088-.088-.088-.132-.748-.923-1.89-1.54-2.42-2.594a3.19 3.19 0 0 1-.22-.4 3.417 3.417 0 0 0 .22 2.023 4.32 4.32 0 0 0 2.419 2.155A2.87 2.87 0 0 1 27 3.122l-.748-.79c-.88-.748-1.847-1.056-2.42-2.11A3.69 3.69 0 0 0 27 4.046a5.61 5.61 0 0 0-.836.044h-.528c-.352-.044-.792-.528-1.01-.7L22.47 1.983a5.917 5.917 0 0 1-1.5-1.275 3.93 3.93 0 0 0 1.5 2.726c.602.42 1.296.69 2.023.792a7.27 7.27 0 0 1-1.319.176 2.3 2.3 0 0 1-.7-.264c-.616-.308-1.275-.88-1.8-1.143a8.717 8.717 0 0 1-2.55-1.45c.22 2.023 1.98 3 4 3.034l-1.363.352c-.528.132-1.847-.836-2.33-1.056-1.055-.484-2.067-.484-3-1.32a3.864 3.864 0 0 0 2.814 2.682c.4.132.792-.044 1.23.044.484 0-.4.176-.572.264a1.9 1.9 0 0 1-1.539-.132c-1.363-.4-3.342-.572-4.573-1.363a3.766 3.766 0 0 0 3.078 2.287c.484.044.88-.176 1.363-.176.528 0-.44.264-.616.352a1.768 1.768 0 0 1-1.5.088c-1.363-.264-3.43-.264-4.66-.923a3.34 3.34 0 0 0 2.463 1.847c.565.14 1.158.124 1.715-.044a1.05 1.05 0 0 1 .4-.132c.044 0 .22-.132.176-.044-.044.176-.264.176-.44.264-1.1.66-1.89.352-3.3.264-1.187-.088-2.2.176-3.2-.308a3.508 3.508 0 0 0 2.682 1.627c.748.088 2.463-.66 1.89-.22-.308.22-.616.616-1.01.66-.748.088-1.583 0-2.375.088a9.05 9.05 0 0 1-3.254.088 3.76 3.76 0 0 0 4.793.7 1.4 1.4 0 0 1 .264-.22c.176-.044-.132.176-.176.176l-.66.66c-.4.44-1.363.4-1.935.44-1.407.176-2.638.836-4 .528a3.593 3.593 0 0 0 4.353.572c.308-.22.836-.66.572-.4-.132.132-.792 1.143-.792.967 0 .132-1.01.264-1.187.308-1.45.308-2.814 1.143-4.4 1.01.845.698 1.97.957 3.034.7a2.974 2.974 0 0 0 1.45-.7c.088-.088.308-.264.4-.352-.528.572-.484 1.01-1.23 1.32-.89.272-1.756.6-2.594 1.01a4.6 4.6 0 0 1-2.287.792 3.73 3.73 0 0 0 3.826-.044c.352-.22.572-.616.923-.88.4-.308-.132.4-.22.616-.264.528-.572.66-1.143.967-1.32.616-2.726 1.8-4.265 2.023a3.6 3.6 0 0 0 3.738-.4c.4-.264.528-.66.88-.968.308-.264-.132.44-.176.66-.22.616-.528.748-1.055 1.1-1.23.748-2.594 2.155-4.046 2.594a3.856 3.856 0 0 0 3.738-.88c.28-.375.53-.772.748-1.187.352-.4-.044.484-.088.7a1.7 1.7 0 0 1-.923 1.187c-1.145.923-2.377 2.419-3.74 2.947 1.33.33 2.732-.13 3.606-1.187.24-.362.445-.744.616-1.143.308-.44 0 .44 0 .66a2.16 2.16 0 0 1-.792 1.319C2.335 26.463 1.368 28 .05 28.75a3.76 3.76 0 0 0 3.738-2.111 2.52 2.52 0 0 0 .176-.616c.044-.176.132-.66.132-.44"
      fill="#131212" fill-rule="evenodd" opacity=".2"></path>
  </symbol>
  <symbol xmlns="http://www.w3.org/2000/svg" id="ellipse">
    <circle cx="50" cy="50" r="49.5" fill="none" stroke="#000"></circle>
  </symbol>
  <symbol xmlns="http://www.w3.org/2000/svg" id="foot-left">
    <text font-weight="700" font-family="Philosopher-Bold,Philosopher" font-size="25">
      <tspan x="74.623" y="71.186">A</tspan>
      <tspan x="203.623" y="80.186">F</tspan>
      <tspan x="139.623" y="36.186">F</tspan>
      <tspan x="262.623" y="52.186">I</tspan>
      <tspan x="328.623" y="92.186">N</tspan>
    </text>
    <path d="M22.8 22.39c-.41 0-.822-.205-1.233-.205a4.49 4.49 0 0 1-1.027-.616 4.3 4.3 0 0 1-.822-1.232 11.438 11.438 0 0 1-1.027-1.643L11.09.001h-1.027L0 23.213h22.8v-.822" fill="#131212" fill-rule="evenodd"></path>
    <path stroke="#000" d="M281.8 112.39c-.41 0-.822-.205-1.233-.205a4.49 4.49 0 0 1-1.027-.616 4.3 4.3 0 0 1-.822-1.232 11.438 11.438 0 0 1-1.027-1.643L270.09 90h-1.027L259 113.213h22.8v-.822" fill="none" stroke-linecap="round" stroke-linejoin="round"></path>
  </symbol>
  <symbol xmlns="http://www.w3.org/2000/svg" id="foot-right">
    <path d="M114.5 28.825a11.021 11.021 0 0 1-3.075 1.275 14.84 14.84 0 0 1-3.55.4 9.111 9.111 0 0 1-3.6-.7 8.79 8.79 0 0 1-2.85-1.913 8.74 8.74 0 0 1-1.875-2.85 9.19 9.19 0 0 1-.675-3.537c-.01-1.143.19-2.28.588-3.35a8.02 8.02 0 0 1 1.675-2.7 7.74 7.74 0 0 1 2.6-1.8 8.5 8.5 0 0 1 3.387-.65 10.29 10.29 0 0 1 3.85.612 5.8 5.8 0 0 1 2.2 1.412c.17.224.298.48.375.75a5.98 5.98 0 0 1 .188.887c.042.31.067.624.075.938l.012.9s1.208 2.85 2.275 2.85v.625a1.32 1.32 0 0 0-1.225.625 3.418 3.418 0 0 0-.375 1.75z"
      fill="none" stroke="#000" opacity=".3"></path>
    <text font-size="25" font-weight="700" font-family="Philosopher-Bold,Philosopher">
      <tspan x="0" y="22">A</tspan>
      <tspan x="213" y="56">E</tspan>
      <tspan x="101" y="29">G</tspan>
    </text>
    <path d="M293.177 36.205c-.41 0-.822-.205-1.233-.205a4.49 4.49 0 0 1-1.027-.616 4.3 4.3 0 0 1-.822-1.232 11.438 11.438 0 0 1-1.027-1.643l-7.6-18.694h-1.027l-10.064 23.212h22.8v-.822" fill="#131212" fill-rule="evenodd"></path>
    <path stroke="#000" d="M58.177 55.205c-.41 0-.822-.205-1.233-.205a4.49 4.49 0 0 1-1.027-.616 4.3 4.3 0 0 1-.822-1.232 11.438 11.438 0 0 1-1.027-1.643l-7.6-18.694H45.44L35.377 56.027h22.8v-.822" fill="none" stroke-linecap="round"></path>
  </symbol>
  <symbol xmlns="http://www.w3.org/2000/svg" id="left-btn">
    <path d="M0 17.916L17.206 0 20 2.93 5.527 18 20 33.07 17.206 36 0 18.083.08 18z"></path>
  </symbol>
  <symbol xmlns="http://www.w3.org/2000/svg" id="logo">
    <path d="M9.45 4.93l4.314 10.066H4.93L9.45 4.93zM22.8 22.39c-.41 0-.822-.205-1.233-.205a4.49 4.49 0 0 1-1.027-.616 4.3 4.3 0 0 1-.822-1.232 11.438 11.438 0 0 1-1.027-1.643L11.09.001h-1.027L0 23.213h1.438l2.876-6.78h10.27l.822 2.26a7.2 7.2 0 0 0 1.438 2.465 5.54 5.54 0 0 0 1.643 1.438 14.14 14.14 0 0 0 1.643.616h2.67v-.822"
      fill="#131212" fill-rule="evenodd"></path>
  </symbol>
  <symbol xmlns="http://www.w3.org/2000/svg" id="right-btn">
    <path d="M20 18.084L2.794 36 0 33.07 14.473 18 0 2.93 2.794 0 20 17.917l-.08.083z"></path>
  </symbol>
  <symbol xmlns="http://www.w3.org/2000/svg" viewBox="0 0 213.02 134.123" id="sign">
    <defs>
      <clipPath id="a">
        <path transform="translate(613 582)" fill="#fff" d="M0 0h213v124H0z"></path>
      </clipPath>
    </defs>
    <g clip-path="url(#a)" transform="translate(-613 -582)">
      <path d="M652.638 671v-1.042c.13-1.563.13-.782.391-.13 1.173 4.821 5.081 8.078 10.293 7.427-3.257-1.563-4.951-4.821-7.818-7.166a12.823 12.823 0 0 1-2.736-2.606c-.391-.912.391-2.736.651-3.779a3.606 3.606 0 0 1 .13-1.172c.261-1.954.261-.782.261.13.782 5.082 4.169 8.469 9.511 8.469-3.388-1.824-5.993-6.515-8.469-9.642-1.3-1.563.391-8.99.521-5.342.391 4.169 3.388 8.469 7.818 8.729.651 0-1.564-2.476-2.345-4.039-1.564-3.258-5.6-6.124-4.3-9.772.521-1.563 1.433-4.56 1.3-2.866-.261 4.43 1.173 8.729 5.212 10.293.651.261 2.736 1.172 1.694.13-1.824-1.824-2.215-4.169-3.127-6.384-1.042-2.085-3.518-4.561-2.736-6.645a18.278 18.278 0 0 1 1.954-3.909c.391-.912-.261 2.476-.13 3.648a9.183 9.183 0 0 0 4.169 6.775c.391.26 3 1.563 2.215.651-1.694-1.824-1.954-4.039-2.606-6.384-.651-1.694-1.564-3.258-2.215-5.082-.13-.26-.651-1.042-.521-1.173.13-1.042 1.3-2.215 1.824-3a2.717 2.717 0 0 1 .521-.781c1.433-2.345.261.521.13 1.824a9.066 9.066 0 0 0 .651 4.169 7.738 7.738 0 0 0 3 4.039c.651.391 2.476 1.694 1.694.521-1.694-2.345-1.564-6.124-2.606-8.99-.13-.652-1.433-3-1.173-3.908a14.307 14.307 0 0 1 3.779-4.691c.261-.261-.261.391-.261.782a7.781 7.781 0 0 0-.782 1.433 10.3 10.3 0 0 0 1.433 8.338c.651.782 3.257 2.737 2.866 2.085a4.568 4.568 0 0 1-.782-1.824c-.651-2.867-.521-6.123-1.042-8.729-.391-1.563-1.042-2.606.13-3.779 1.042-1.172 4.691-4.951 2.736-1.824a7.98 7.98 0 0 0-.782 6.254 8.6 8.6 0 0 0 1.564 3.518c.391.391 2.085 1.954 2.085 1.563a78.913 78.913 0 0 1-.521-8.078c-.261-1.563-1.173-5.211 0-6.254a30.427 30.427 0 0 1 4.039-3.127c.261-.131-.261.391-.521.651a3 3 0 0 1-.651.913 6.876 6.876 0 0 0-1.042 3.257 8.523 8.523 0 0 0 2.736 8.078c.521.391-.13-1.563-.13-2.736.13-1.434.521-2.476.651-3.909.13-2.084-.261-4.561.13-6.645.13-1.172 1.954-1.824 2.606-2.215a7.737 7.737 0 0 1 2.606-1.563c.391-.26-.391.521-.782.913a8.626 8.626 0 0 0-1.954 2.866 10.167 10.167 0 0 0 .13 7.818c.13.26 1.694 2.736 1.564 1.563-.651-3.778 1.173-7.556 1.694-11.335.13-.521.13-2.084.521-2.476a25.688 25.688 0 0 1 3.257-1.563c3.257-1.563-1.433 2.085-2.085 5.472a9.928 9.928 0 0 0 .391 4.43c.13.391 1.3 2.346 1.433 2.085.261-1.042 0-2.215.261-3.258 1.042-3 1.954-6.124 3-9.381.521-2.084 3.909-1.564 5.6-2.736-3.257 2.606-5.733 6.124-4.3 10.684 0 .391.912 2.736.912 1.694 0-3.258 2.345-5.473 3.257-8.339.651-1.825.782-4.169 2.606-4.951a35.7 35.7 0 0 1 4.43-1.3c.261 0 .391.13 0 .521a7.394 7.394 0 0 0-.912.521 9.65 9.65 0 0 0-4.169 5.212 6.924 6.924 0 0 0-.391 4.3c.13.521.521 2.345.782 1.955a10.388 10.388 0 0 0 .391-1.955c.782-1.824 2.476-3.388 3.257-5.081a15.348 15.348 0 0 0 1.042-2.085c.912-2.084 1.694-3.387 4.56-3.778 1.042-.13 2.215-1.042 3-.391.261.261-.261.261-.651.261a9.709 9.709 0 0 0-1.564.912 7.846 7.846 0 0 0-3.257 3.258 9.082 9.082 0 0 0-1.3 4.951c0 .651.391 2.475.651 2.215.651-.782.651-2.084 1.3-3 2.085-2.605 3.909-5.211 5.733-7.817.782-1.172 3-1.172 4.951-1.042.651 0 1.3.131 1.694.131a14.585 14.585 0 0 0-1.694.651c-3 1.173-5.342 3-6.254 6.515-.13.521-.651 3.518 0 3.909.391.261.261-.782.391-1.042a11.662 11.662 0 0 1 1.954-2.476c1.433-1.433 2.606-2.736 3.909-4.169.651-.782 1.433-1.824 2.215-2.605 1.042-1.042 3.257-.782 5.212-.391.391 0 1.042.13 1.3.13-.391.13-.912.261-1.3.391a10.358 10.358 0 0 0-5.733 3.519 8.637 8.637 0 0 0-1.695 4.041v1.694c0 .391.13.521.391 0 .912-2.085 3-3 4.56-4.3.782-.651 1.564-1.693 2.476-2.606 1.173-1.3 2.606-2.606 4.039-2.345.391 0 .651.13 1.042.13a37.3 37.3 0 0 1 3.648.913 16.416 16.416 0 0 0-3.648.521 8.344 8.344 0 0 0-4.039 2.475 9.947 9.947 0 0 0-1.042 1.434 6.2 6.2 0 0 0-1.042 2.345c-.261.652-.651 2.867.13 1.694a6.526 6.526 0 0 1 .912-1.042c1.3-1.3 3.257-1.954 4.821-3.257.13 0 .13 0 .261-.13 1.694-1.433 3.909-4.039 5.863-3.518 1.564.391 3 1.042 4.56 1.563a9.235 9.235 0 0 0-9.381 4.43 7.362 7.362 0 0 0-1.042 2.084c-.261.651-.521 1.433-.261 1.564.13.13.13.13.261-.131.13 0 .261-.521.391-.651.391-.391.782-.651 1.173-1.043 1.564-.912 3.257-1.563 4.821-2.475 1.563-.782 4.169-3.387 5.733-3.257 1.824.261 3.648 1.563 5.212 2.345-3.909-.782-7.818.13-10.163 3.127-.391.521-2.085 3-1.564 3.648.13.26.391-.391.651-.652a4.676 4.676 0 0 1 1.3-.912c1.433-.782 3.388-1.173 4.951-1.825 1.694-.781 4.3-2.866 6.124-2.736 1.694.261 3.648 1.955 4.951 2.736-3.779-.781-7.557-.651-10.293 2.346-.391.391-2.215 2.867-1.954 3.388.13.261.521-.391.782-.521.391-.261.912-.652 1.3-.913 1.694-.652 3.648-.652 5.212-1.3 1.954-.522 4.3-1.955 6.124-2.085 1.3-.13 3.909 2.736 4.951 3.519-4.56-1.564-10.163-1.564-12.638 3.257-.261.391 3.518-.521 5.863-.783 3.648-.391 6.645-2.605 9.511-.129a24.684 24.684 0 0 0 2.736 2.476c-3.388-1.694-7.3-2.346-10.684-.131-.782.521-3.257 3.127-2.085 2.606 1.954-1.042 4.039-.521 6.254-.651 3.257-.261 6.515-1.824 8.73.651.782.913 1.694 1.955 2.476 2.867-3.127-1.824-6.775-3-10.423-1.173-.782.521-3.518 2.867-2.215 2.476 2.345-.782 4.691 0 7.166 0 5.733.13 6.906-.391 9.9 4.821-2.866-2.215-6.515-4.3-10.423-2.605-.521.13-3.257 1.563-3.257 2.215 0 .261.651-.261.912-.261a6.275 6.275 0 0 1 1.564 0 24.229 24.229 0 0 1 5.342 1.042c1.954.26 5.6-.261 6.775 1.3a21.917 21.917 0 0 1 2.606 4.43c-2.606-2.605-5.863-4.69-10.033-3.518-.651.261-3.257 1.173-3.388 1.955-.13.261.521-.13.912-.13a3.206 3.206 0 0 1 1.563.13 34.471 34.471 0 0 1 5.212 1.563c1.694.392 5.472.392 6.515 1.824a18.759 18.759 0 0 1 1.954 4.691c-2.606-2.606-4.951-4.952-9.251-4.169-.651 0-3.518.651-3.648 1.433 0 .26.651 0 .912 0 .521 0 1.042.13 1.564.13 1.824.521 3.257 1.694 4.951 2.215 1.694.652 5.212.782 6.124 2.345.912 1.434 1.173 3.519 1.564 5.212-2.866-4.561-7.166-6.905-12.638-4.561 3 .261 4.691 1.955 7.166 3.258 1.564.912 5.081 1.563 5.993 3 .782 1.3.651 3.779.912 5.342-2.085-4.821-6.775-7.427-12.117-5.6 2.866.521 4.43 2.346 6.775 3.909 1.433.912 4.821 1.955 5.6 3.388s.261 4.3.391 5.863c-1.824-5.081-5.472-8.469-11.466-7.3 2.736.913 4.039 2.867 6.384 4.561 1.433 1.3 4.3 2.476 5.212 4.169.651 1.043-.261 4.3-.261 5.6-1.3-5.342-4.691-8.469-10.684-8.078 2.606 1.172 3.778 3.127 5.863 5.212 1.433 1.563 3.518 2.736 4.691 4.429.261.391-.13.913-.261 1.3-.13 1.563-.391 3-.651 4.56-.521-5.472-3.778-9.511-9.511-9.511 3 1.825 4.3 5.342 6.906 8.078 1.3 1.3 2.345 2.085 2.085 3.909-.13 1.434-.782 3-1.042 4.561-.651-5.733-2.866-9.512-8.86-10.293 3.388 2.606 5.212 7.035 7.557 10.423 1.3 2.085-.391 4.691-1.3 6.906.391-5.733-1.694-10.294-7.427-11.466 3.127 2.736 4.43 7.687 6.254 11.205 1.173 2.214-.782 4.56-1.954 6.515.782-5.6-.912-10.033-6.254-11.857 2.476 3.258 3.518 8.079 4.951 11.857.782 2.215-1.3 4.3-2.736 6.124 1.433-5.473.521-9.9-4.691-12.638 1.564 2.345 1.433 4.951 2.085 7.687.391 1.825 2.215 4.951 1.3 6.645a14.759 14.759 0 0 1-3.127 3.909c1.824-5.212 1.433-9.642-3.518-12.638 1.824 3.127 1.824 8.729 2.345 12.508.261 2.345-2.215 3.779-3.779 5.212 1.954-4.821 2.345-9.381-2.345-12.9 1.173 3.388.651 8.47 1.042 12.248.13 2.867-2.606 3.909-4.56 5.472 3-4.3 3.648-9.511-.521-13.42.651 2.736-.13 5.081-.521 7.817-.13 1.824.521 4.951-.261 6.515-.782 1.3-3.518 2.215-4.821 3 3.388-4.17 4.43-8.86.912-13.29.391 3-.651 5.082-1.3 7.687-.391 2.085-.261 4.3-.912 6.384-.13.391-.651.261-1.042.521-1.433.652-2.866 1.3-4.169 1.955 3.779-3.779 5.472-8.339 2.085-13.16.391 4.3-2.085 8.6-3.127 12.508-.651 2.605-3.909 2.214-6.124 3.387 4.56-3.127 6.775-7.687 4.039-13.029 0 3.127-1.954 5.082-3 7.688-.521 1.433-1.042 2.866-1.694 4.3-.912 2.215-3.909 2.345-6.124 2.736 4.43-2.867 7.036-6.775 5.081-12.378-.651 3.778-3.778 7.557-5.6 10.814-.13.261-.13.391-.261.652-.912 1.564-2.866 1.694-4.821 1.824-.651 0-1.173.13-1.564.13a17.442 17.442 0 0 1 1.564-.782 9.331 9.331 0 0 0 4.56-11.075c-.912 2.736-2.866 4.951-4.56 7.3a8.376 8.376 0 0 0-1.3 1.694c-.651 1.3-1.173 2.606-2.606 2.867a31.927 31.927 0 0 1-3.518.26 6.363 6.363 0 0 1-1.564-.13 7.968 7.968 0 0 0 1.567-.657c4.169-1.694 6.775-4.951 6.124-10.293-1.3 2.605-3 3.778-5.081 5.993-.391.391-.651.912-1.042 1.3-1.954 2.345-2.476 3.778-6.906 3.388-.651 0-1.173-.26-1.824-.26 5.212-.913 8.73-4.561 8.469-10.163-1.042 2.345-3 3.257-4.951 4.951-1.694 1.694-3.909 5.212-6.384 4.821-.651-.13-1.3-.26-1.824-.391a15.232 15.232 0 0 1-2.606-.652 17.842 17.842 0 0 0 2.606-.391c4.039-1.042 6.906-3.647 7.3-8.6-1.694 2.345-4.039 3.257-6.254 4.691a7.414 7.414 0 0 1-1.042.911c-1.433 1.3-3.127 3.128-4.43 3a15.891 15.891 0 0 1-4.951-1.693c4.3 0 7.687-1.563 9.381-4.82a10.728 10.728 0 0 0 .912-3.257c-.261.391-.651.651-.912 1.042-2.476 2.084-5.342 2.867-7.948 4.821-.912.651-2.345 1.693-3.388 1.563a11.028 11.028 0 0 1-3.648-1.563 1.376 1.376 0 0 1-.651-.261c-1.173-.521-.521-.261.13-.261 5.212.652 9.511-2.084 10.814-6.905-2.606 2.606-6.515 3-9.642 4.561-.912.521-2.476 1.563-3.518 1.563a11.369 11.369 0 0 1-3.127-1.954c-.391 0-.521-.261-.782-.261-1.042-.651-.782-.651-.261-.391 5.081 1.172 9.772-1.173 11.466-5.733-3 2.085-6.906 2.215-10.033 3.518-.912.391-2.345 1.3-3.388 1.172-.912-.13-2.215-1.563-3.127-2.214-.261-.261-.521-.391-.782-.651-1.564-1.173-.651-.651.13-.261a9.291 9.291 0 0 0 11.987-4.561c-2.476 1.694-5.212 1.3-8.078 1.955a46.584 46.584 0 0 0-4.56 1.173c-1.954.391-7.3-4.691-4.43-3.127 4.43 2.346 9.121.261 11.857-3.387-3.257 1.433-8.6 1.172-12.248 1.563-1.433.26-1.564.26-2.606-.652a31.135 31.135 0 0 1-2.866-3c-.261-.391-.391-.651 0-.391 4.691 2.736 9.381 2.605 13.029-1.694-3.648 1.172-8.339.391-12.378.391-2.476.13-4.169-2.476-5.081-4.56-.261-.521.13.129.391.129 4.169 3.388 8.99 3.779 13.029.131-3.648.521-6.775-.782-10.554-1.173-1.433 0-3.127 0-4.039-.912-.13-.261-3.909-5.863-1.824-3.909 3.648 3.518 8.6 4.039 12.638 1.042-3.648.521-6.906-1.563-10.423-2.215-1.3-.13-3-.261-3.648-1.3-.391-.391-2.866-5.863-1.694-4.169a9.562 9.562 0 0 0 12.638 2.346c-3.909 0-6.645-2.346-10.163-3.257-1.173-.261-3-.521-3.518-1.434-.521-.651-2.866-7.166-1.042-4.56 2.736 4.169 7.3 6.124 12.117 3.909-3.778-.652-6.384-3-9.642-4.43-1.042-.391-3-1.043-3.518-1.955-.521-1.042-.521-2.736-.782-3.779v-.912c-.261-1.3 0-.521.13 0 2.345 4.69 6.775 6.514 11.857 5.081-3.518-.912-6.124-3.778-9.251-5.342-.912-.391-2.736-1.173-3.127-2.085-.521-1.042-.261-2.736-.391-3.909v-.912c-.13-1.563.13-.651.391.13 1.824 4.56 5.6 7.3 11.075 6.124-3.518-1.173-5.733-4.17-8.6-6.254a10.867 10.867 0 0 1-3-2.475c-.519-.91.002-2.604.132-3.65zm-.521-1.173c-.13 1.3.13 3.909-.651 4.951-1.564 2.215-3.648 4.17-5.081 6.384-1.694 1.955-2.345 4.43-4.56 5.863-1.3.912 2.866.13 3.779-.391a13.879 13.879 0 0 0 4.951-4.56 5.9 5.9 0 0 0 1.042-2.867c.13-.391.13-.782.261-1.3 0-.13 0-.782.13-.651.391.26.13 3.518.13 4.169.261.651-.912 2.215-1.433 2.867-1.694 2.605-3.388 4.69-4.43 7.426a9.434 9.434 0 0 1-1.564 3c-.391.261-1.564 1.042-1.694 1.434s.651-.13 1.042-.13a10.516 10.516 0 0 0 7.427-5.6 12.555 12.555 0 0 0 1.3-3.908v-1.173c0-.391-.261-1.173-.13-.912.13.912 1.173 3.518.782 4.43a15.988 15.988 0 0 1-1.564 3.388 42.168 42.168 0 0 0-3.518 7.818 7.135 7.135 0 0 1-2.215 3.648c-.521.651 2.476-.521 3.257-.912 2.736-1.693 5.081-5.342 4.951-8.469 0-.391-.391-2.084-.13-2.476s.261.912.391 1.433a9.774 9.774 0 0 0 .651 2.085c.521 1.563-1.042 3.909-1.694 5.342-1.433 3.647-1.824 7.557-4.039 10.814a14.4 14.4 0 0 0 3.127-1.3 11.149 11.149 0 0 0 4.43-8.339c0-.913-.651-2.085-.391-2.867 0-.391.13.521.261.912a7.986 7.986 0 0 0 .651 1.564c.782 1.563.13 3-.261 4.821-.912 3.127-.912 7.556-2.085 10.684-.261.781-1.824 2.606-.651 2.084a10.733 10.733 0 0 0 5.342-12.378c-.912-2.736 1.824 2.346 1.694 3.779-.391 2.606-1.042 5.081-1.3 7.817 0 2.606.261 4.821-.782 7.167-.782 1.563.782 0 1.173-.391a10.366 10.366 0 0 0 3.779-7.426 9.193 9.193 0 0 0-.521-3.909c-.13-.652-1.042-2.215-.521-1.563a17.812 17.812 0 0 1 2.347 3.115c.391.391 0 1.824 0 2.346-.13 3.648.261 7.557 0 11.075a8.441 8.441 0 0 1-.261 2.606c-.13.26-.651.912-.391.782 2.866-.261 4.3-6.124 4.43-8.208s-1.824-6.124-1.173-5.472c3.648 3.388 1.954 9.25 3.388 13.681a8.466 8.466 0 0 1 .521 4.04c0 .521-.521 2.214-.13 1.693.261-.391.651-.651.912-1.042 2.736-3 2.736-8.469.912-11.857a2.835 2.835 0 0 0-.651-1.042c-.261-.26-.912-1.042-.651-.782a7.107 7.107 0 0 1 3.518 4.56c.651 2.606.912 5.342 1.564 7.688.521 1.693 1.3 3.127 1.433 4.821 0 .521-.391 2.345-.13 2.606.13.391.391-.651.651-.912a3.077 3.077 0 0 0 .782-1.173 11.426 11.426 0 0 0 .651-8.078 8.317 8.317 0 0 0-2.085-3.778c-.391-.391-1.433-1.173-.912-1.042 2.215.13 4.039 3.518 4.56 5.342.651 2.215 1.173 4.56 1.954 6.775.782 1.955 1.824 3.388 1.824 5.864 0 2.084 1.824-2.346 1.954-3.648a11.392 11.392 0 0 0-1.3-6.906c-.521-.912-3.518-3.518-2.215-2.867 2.085 1.042 3 1.564 3.909 3.519 1.564 3.648 3.778 7.166 5.212 10.813a6.555 6.555 0 0 1 .651 1.694c0 .391 0 1.694.261 1.563 3.127-3 .261-10.033-1.564-12.248a7.973 7.973 0 0 0-2.215-1.954.128.128 0 0 1-.13-.131c1.954.913 3.518 1.3 4.691 3.258 1.824 3.126 3.388 5.993 5.472 8.99a9.444 9.444 0 0 1 1.564 3c.13.391 0 1.433.261 1.3.912-.912 1.042-3.648.912-4.951-.261-2.475-1.564-5.6-3.518-7.166a20.779 20.779 0 0 1-2.866-1.694c0-.13.391 0 .521.13a4.139 4.139 0 0 1 1.173.391c2.085.781 2.606.781 3.909 2.605a54.7 54.7 0 0 0 3.388 4.3c1.3 1.563 2.606 3.126 3.778 4.69.521.782 1.564 3 1.564 2.736a10.933 10.933 0 0 0-5.212-11.987h-.13a4.018 4.018 0 0 0-1.3-.651c-.13-.131-.391-.131-.651-.261.782.13 1.3.261 1.954.391 3.388.912 4.3 3.257 7.3 6.124 2.345 2.345 4.691 4.039 6.124 6.775 0 .13.13.261.261.391a9.026 9.026 0 0 0-.274-4.949 11.765 11.765 0 0 0-3.257-4.952 8.182 8.182 0 0 0-2.345-1.563c-.912-.391-3-1.042-1.954-.782 1.433.13 3.127-.13 4.3.651a17.424 17.424 0 0 1 3.257 3 20.2 20.2 0 0 0 1.694 1.563c1.694 1.433 3.648 2.345 5.212 3.908.261 0 .261.131.521.391.651.912 1.694 2.345 1.694 1.824a8.441 8.441 0 0 0-.261-2.606 9.859 9.859 0 0 0-1.433-3.388 11.289 11.289 0 0 0-6.906-4.69c-.13-.13-.391-.13-.521-.26-.521 0-.391-.131 0-.131.912-.13 3.909.131 4.56.651.912.652 1.954 1.434 2.866 2.085a36.961 36.961 0 0 0 3.648 2.605 13.734 13.734 0 0 0 1.433.913 12.982 12.982 0 0 1 4.43 3.257c1.042 1.433.261-.782.261-1.563-.261-2.867-2.215-4.821-4.691-6.254a14.917 14.917 0 0 0-5.081-1.824c-.261 0-.261-.13-.521-.13h.521a10.514 10.514 0 0 1 5.081.651c2.736 1.042 4.951 2.867 8.208 4.039a11.979 11.979 0 0 1 3.648 1.825c.261.26 1.433 1.433 1.564 1.3.13-.261-.261-1.042-.261-1.3-1.694-5.212-6.124-7.558-11.726-7.558 1.694-.521 3.518-1.3 5.212-.651 3 1.3 5.863 3 9.121 3.779a10.288 10.288 0 0 1 3.778 1.433c.391.26 1.564 1.433 1.694 1.172a4.968 4.968 0 0 0-.391-1.3c-1.824-4.951-7.036-6.775-12.248-6.384 1.564-.651 3.388-1.694 5.081-1.173 3.127 1.042 5.993 2.345 9.381 2.866a11.573 11.573 0 0 1 3.779 1.042 17.312 17.312 0 0 0 1.824 1.042 2.314 2.314 0 0 0-.521-1.3c-2.345-4.821-7.557-6.124-12.769-5.212 1.173-.521 2.606-1.563 3.909-1.824 2.215-.391 5.472 1.173 7.818 1.564 2.606.521 5.342.13 7.557 1.042 1.694.782 1.694.521.521-.782a10.879 10.879 0 0 0-13.551-3.126c.912-.521 3-2.345 4.039-2.345 3.648 0 7.3 1.3 11.205.651 2.085-.26 6.384 1.433 5.081-.13-3.778-4.43-8.99-4.43-14.072-2.345 1.042-.782 2.085-1.433 3.127-2.345.521-.391.521-.912 1.173-.912 2.866-.391 6.124.13 8.99-.391 2.476-.391 4.951-1.042 7.427-.391 1.173.391.521 0 0-.651-3.909-4.43-10.814-3-14.984 0 .912-.912 1.824-1.564 2.606-2.476.261-.391.912-1.3.912-.782 0-.782 1.433-.651 2.085-.782 1.433-.13 2.736-.26 4.3-.39 3-.391 5.6-1.694 8.6-1.694.651-.13 2.345.13 2.345 0-.521-1.563-4.3-2.606-5.733-2.866-4.3-.391-6.775 1.3-9.642 3.518.912-1.172 1.824-3 2.866-3.778 1.564-1.042 4.43-1.173 6.254-1.694 2.866-.651 5.472-2.215 8.469-2.736a3.629 3.629 0 0 1 1.3-.13c.261 0 1.042.26.912 0-.651-1.433-4.56-2.215-6.124-2.085-4.56.13-6.906 2.215-9.772 5.342a43.324 43.324 0 0 1 3-4.821c1.824-1.693 5.733-1.955 8.078-2.866 2.866-1.3 4.821-3.257 8.339-3.257-5.472-3.257-11.335-.912-14.984 3.909.651-1.3 1.173-3.257 2.085-4.3 1.564-1.955 5.472-2.476 7.687-3.779 2.736-1.563 4.43-3.388 7.818-3.778a10.958 10.958 0 0 0-14.463 4.951 22.873 22.873 0 0 1 1.564-4.169c.912-1.3 3.388-2.346 4.691-3.127 3.388-1.955 5.993-5.473 10.033-6.385-6.254-2.084-11.726 1.564-13.941 7.036.391-1.433.521-3.388 1.3-4.821 1.173-2.084 4.691-3.387 6.515-5.211 2.345-2.215 3.909-4.3 6.775-5.342-4.691-1.3-8.99 1.043-11.6 4.821a22.461 22.461 0 0 0-1.3 3.126c.13-1.433.391-3 .651-4.429.261-1.825 4.3-4.3 5.472-5.6 2.345-2.606 3.648-5.211 6.775-6.906-6.645-.651-11.205 3.909-12.117 10.033.13-1.564.261-3 .261-4.691 0-2.084 3.518-4.56 4.821-6.253 1.954-2.736 3-5.472 5.993-7.427a10.847 10.847 0 0 0-10.423 7.3c-.391 1.042-.261 2.345-.651 3.387 0-1.433-.651-4.039.13-5.211 1.173-2.085 2.606-3.909 3.779-5.864 1.694-2.866 2.345-5.862 5.081-8.208-6.384.782-9.642 5.863-9.642 12.378-.13-1.563-1.042-4.17-.521-5.6.782-2.084 2.085-4.039 3.127-6.254 1.564-3 1.694-6.124 4.43-8.469a10.939 10.939 0 0 0-8.73 9.25 28.343 28.343 0 0 0 .13 3.388c-.391-1.3-.782-2.736-1.173-4.039-.13-2.346 1.694-5.212 2.476-7.427 1.173-3.257 1.173-6.385 3.257-9.251-5.733 2.215-8.469 8.079-6.645 14.2-.651-1.825-2.215-3.909-1.694-5.864 1.042-4.43 1.564-11.465 3.909-15.5a10.859 10.859 0 0 0-5.733 13.42c.651 1.955-.521-.781-.912-1.433-1.042-1.955-.912-3.257-.521-5.472.782-4.169.261-9.642 1.954-13.29-5.081 3.257-6.124 8.73-4.169 14.333-.782-1.042-1.564-2.215-2.345-3.257h.13c-.651-.391-.261-3.257-.261-4.17.261-4.43-1.042-9.381.391-13.29-4.691 3.909-5.472 10.033-2.085 15.244-.912-1.042-2.476-2.215-3.127-3.518-1.042-2.085-.391-5.994-.651-8.469-.391-3-1.433-5.472-.782-8.729-4.169 3.778-4.56 11.2-.391 15.244a16.324 16.324 0 0 1-3.518-3.127c-1.3-1.955-.912-5.863-1.564-8.208-.782-3-1.954-5.212-1.563-8.6-3.648 4.3-3.648 11.206.912 15.114-.782-.652-3.388-1.955-3.648-2.736-.912-2.215-1.3-4.821-2.215-7.167-1.3-3-3-5.472-3-9.25-3.779 5.081-1.564 11.6 3.127 15.244-1.173-.782-3.909-1.694-4.56-3-1.042-2.084-1.694-4.43-2.736-6.514-1.433-3.127-3.257-5.212-3.779-8.86a11.1 11.1 0 0 0 4.169 14.592c-1.3-.521-2.606-1.172-3.909-1.693-1.173 0-3.257-5.994-3.778-6.645-1.694-3-4.039-4.821-4.691-8.339-2.476 5.473.651 10.814 5.212 13.812-1.694-.651-3.518-.782-4.691-2.215-1.564-2.084-2.736-4.43-4.56-6.384-.13-.13-.261-.391-.521-.521-1.824-2.085-3.388-3.388-4.169-5.994a5.227 5.227 0 0 0-.391 1.955 6.315 6.315 0 0 0 0 2.215 11.51 11.51 0 0 0 5.081 7.687c.782.391 1.564.912 2.476 1.3a8.407 8.407 0 0 0-2.476-.521 10.215 10.215 0 0 0-1.824-.261c-.782 0-2.606-2.736-3.257-3.648-.13-.13-.261-.261-.261-.391-2.215-2.736-5.6-4.56-7.166-7.687a9.441 9.441 0 0 1-.651-1.172 10.121 10.121 0 0 0 .651 5.994 12.807 12.807 0 0 0 7.166 6.384c-3.779 0-5.212-1.173-7.166-3.127-.651-.651-1.433-1.433-2.215-2.345-2.606-2.215-5.472-3.127-7.166-6.254 0 6.254 3.518 9.9 9.381 11.335a16.665 16.665 0 0 0-2.476.13h-1.554c-1.042-.13-2.345-1.563-3-2.084-2.085-1.434-4.3-2.736-6.384-4.169a17.5 17.5 0 0 1-4.43-3.778 11.646 11.646 0 0 0 4.43 8.078 13.793 13.793 0 0 0 5.993 2.345 21.554 21.554 0 0 1-3.909.521 6.82 6.82 0 0 1-2.085-.782c-1.824-.912-3.778-2.606-5.342-3.388-2.736-1.433-5.212-1.954-7.557-4.3.651 5.995 5.863 8.86 11.857 8.991-1.433.391-2.736.781-4.039 1.042-1.564.391-5.472-2.476-6.906-3.128-3.127-1.433-6.124-1.433-8.86-3.908 1.433 4.039 3.909 6.775 8.339 7.948 1.173.391 2.345-.13 3.648.13 1.433 0-1.173.521-1.694.782-1.954.651-2.606.26-4.56-.391-4.039-1.172-9.9-1.694-13.55-4.039 1.824 3.648 4.56 6.254 9.121 6.775 1.433.13 2.606-.521 4.039-.521 1.564 0-1.3.782-1.824 1.042-1.694.913-2.476.652-4.43.261-4.039-.782-10.163-.782-13.811-2.736a9.891 9.891 0 0 0 7.3 5.472 9.621 9.621 0 0 0 5.081-.13 3.112 3.112 0 0 1 1.173-.391c.13 0 .651-.391.521-.13-.13.521-.782.521-1.3.782-3.257 1.954-5.6 1.042-9.772.782-3.518-.261-6.515.521-9.511-.912a10.392 10.392 0 0 0 7.948 4.821c2.215.26 7.3-1.955 5.6-.652-.912.652-1.824 1.824-3 1.954-2.215.261-4.691 0-7.036.261-3.518.26-6.384 1.173-9.642.26a11.144 11.144 0 0 0 14.2 2.085 4.151 4.151 0 0 1 .782-.652c.521-.13-.391.521-.521.521l-1.954 1.955c-1.173 1.3-4.039 1.172-5.733 1.3-4.169.521-7.818 2.476-11.857 1.564 3.127 3.257 8.99 4.3 12.9 1.693.912-.651 2.476-1.954 1.694-1.173-.391.391-2.345 3.388-2.345 2.867 0 .391-3 .781-3.518.913-4.3.912-8.339 3.387-13.029 3a10.321 10.321 0 0 0 8.99 2.085 8.873 8.873 0 0 0 4.3-2.085c.261-.26.912-.782 1.173-1.042-1.564 1.694-1.433 3-3.648 3.908-2.476 1.043-5.342 1.564-7.687 3-2.215 1.173-4.039 2.345-6.775 2.345a11.059 11.059 0 0 0 11.336-.13c1.042-.651 1.694-1.824 2.736-2.606 1.173-.912-.391 1.173-.651 1.825-.782 1.563-1.694 1.955-3.388 2.866-3.909 1.825-8.078 5.343-12.638 5.994a10.659 10.659 0 0 0 11.075-1.173c1.173-.782 1.564-1.955 2.606-2.867.912-.782-.391 1.3-.521 1.955-.651 1.824-1.564 2.215-3.127 3.257-3.648 2.215-7.687 6.384-11.987 7.687 4.3.912 7.818.391 11.075-2.606a26.172 26.172 0 0 0 2.215-3.517c1.042-1.173-.13 1.433-.261 2.084-.521 1.955-1.173 2.476-2.736 3.518-3.388 2.736-7.036 7.166-11.075 8.73a10.559 10.559 0 0 0 10.684-3.519c.912-1.042 1.173-2.345 1.824-3.387.912-1.3 0 1.3 0 1.954a6.409 6.409 0 0 1-2.345 3.909c-3.257 3.237-6.124 7.8-10.033 10.012a11.139 11.139 0 0 0 11.075-6.254 7.465 7.465 0 0 0 .521-1.824c.13-.521.391-1.955.391-1.3"
        fill="#131212" fill-rule="evenodd"></path>
    </g>
    <path fill="#F8EB4B" d="M.02 124.123h213v10H.02z"></path>
  </symbol>
  <symbol xmlns="http://www.w3.org/2000/svg" viewBox="0 0 177 282" id="trapeze">
    <path fill="none" stroke="#000" stroke-width="1" d="M.5.5h177l-39 281H.5z"></path>
  </symbol>
  <symbol xmlns="http://www.w3.org/2000/svg" id="triangle-stroke">
    <path d="M23.3 22.89c-.41 0-.822-.205-1.233-.205a4.49 4.49 0 0 1-1.027-.616 4.3 4.3 0 0 1-.822-1.232 11.438 11.438 0 0 1-1.027-1.643L11.59.5h-1.027L.5 23.713h22.8v-.822" fill="none" stroke="#000" stroke-linecap="round" stroke-linejoin="round"></path>
  </symbol>
  <symbol xmlns="http://www.w3.org/2000/svg" viewBox="0 0 22.802 23.213" id="triangle-fill">
    <path d="M22.8 22.391c-.411 0-.822-.205-1.233-.205a4.491 4.491 0 0 1-1.027-.616 4.3 4.3 0 0 1-.822-1.232 11.463 11.463 0 0 1-1.027-1.643L11.091.001h-1.027L0 23.213h22.8v-.822" fill="#131212" fill-rule="evenodd"></path>
  </symbol>
</svg>