<?xml version="1.0" standalone="no"?>
  <!DOCTYPE svg PUBLIC "-//W3C//DTD SVG 1.1//EN" "http://www.w3.org/Graphics/SVG/1.1/DTD/svg11.dtd" >
  <svg>
  <metadata>
  Created by font-carrier
  </metadata>
  <defs>
  <font id="Philosopher-Italic" horiz-adv-x="1008" vert-adv-y="1008" >
    <font-face
      
      font-family="Philosopher"
      
      font-weight="400"
      
      font-stretch="normal"
      
      units-per-em="1000"
      
      ascent="864"
      
      descent="-220"
      
    />
      <missing-glyph />

      

      
      <glyph glyph-name="uni21" unicode="&#x21;" d="M127 155L69 155L140 660L234 660L127 155M87 94Q107 94 120 81Q133 68 133 49Q133 37 127.50 26Q122 15 113 6Q104-3 92-8.50Q80-14 68-14Q48-14 35.50-1.50Q23 11 23 31Q23 43 28 54Q33 65 42 74Q51 83 62.50 88.50Q74 94 87 94Z"  horiz-adv-x="239" vert-adv-y="1000"  />

      
      <glyph glyph-name="uni22" unicode="&#x22;" d="M262 390L280 660L380 660L302 390L262 390M102 390L120 660L220 660L142 390L102 390Z"  horiz-adv-x="368" vert-adv-y="1000"  />

      
      <glyph glyph-name="uni23" unicode="&#x23;" d="M78 0L143 175L13 175L24 235L168 235L236 415L116 415L126 475L259 475L337 675L402 675L324 475L469 475L547 675L612 675L534 475L671 475L661 415L511 415L442 235L569 235L558 175L418 175L353 0L288 0L353 175L208 175L143 0L78 0M232 235L378 235L446 415L301 415L232 235Z"  horiz-adv-x="669" vert-adv-y="1000"  />

      
      <glyph glyph-name="uni24" unicode="&#x24;" d="M173-80L185-15Q152-12 122-3Q92 6 68.50 20Q45 34 31.50 52.50Q18 71 18 93Q18 94 18.50 97.50Q19 101 20.50 112.50Q22 124 26 147Q30 170 38 212L56 212L56 208Q56 119 89.50 75.50Q123 32 192 24L239 294L177 336Q129 368 108 399Q87 430 87 472Q87 517 104 553.50Q121 590 151 616.50Q181 643 221 659Q261 675 307 678L317 735L357 735L347 676Q378 673 407 664.50Q436 656 459 642.50Q482 629 496 610.50Q510 592 510 570Q510 568 509.50 565Q509 562 507.50 550.50Q506 539 501.50 516Q497 493 490 451L472 451L472 455Q472 543 439 585.50Q406 628 340 636L295 383L371 333Q420 301 444.50 270.50Q469 240 469 198Q469 150 449 111Q429 72 395.50 44Q362 16 317.50 0.50Q273-15 225-17L213-80L173-80M275 270L232 23Q257 24 282.50 32.50Q308 41 328.50 56.50Q349 72 362 94.50Q375 117 375 146Q375 181 352.50 207.50Q330 234 287 263L275 270M300 638Q276 636 253 627Q230 618 212 602.50Q194 587 182.50 565.50Q171 544 171 517Q171 482 194 458.50Q217 435 259 407L300 638Z"  horiz-adv-x="524" vert-adv-y="1000"  />

      
      <glyph glyph-name="uni25" unicode="&#x25;" d="M25 0L596 660L671 660L100 0L25 0M455 30Q480 30 500 41Q520 52 533 70Q546 88 553 111.50Q560 135 560 160Q560 230 490 230Q465 230 445 219Q425 208 411.50 190Q398 172 391 149Q384 126 384 101Q384 30 455 30M620 160Q620 125 607 95Q594 65 571.50 43Q549 21 517.50 8Q486-5 449-5Q389-5 356.50 22Q324 49 324 100Q324 135 337 165Q350 195 373 217.50Q396 240 427.50 252.50Q459 265 496 265Q556 265 588 237.50Q620 210 620 160M205 430Q230 430 250 441Q270 452 283.50 470Q297 488 304 511Q311 534 311 559Q311 630 241 630Q215 630 195.50 619Q176 608 162.50 590Q149 572 142 548.50Q135 525 135 500Q135 430 205 430M371 560Q371 525 358 495Q345 465 322 443Q299 421 267.50 408Q236 395 199 395Q139 395 107 422.50Q75 450 75 500Q75 534 88 564.50Q101 595 124 617Q147 639 178.50 652Q210 665 247 665Q307 665 339 637.50Q371 610 371 560Z"  horiz-adv-x="676" vert-adv-y="1000"  />

      
      <glyph glyph-name="uni26" unicode="&#x26;" d="M15 112Q15 149 31 179Q47 209 72.50 235Q98 261 130 283Q162 305 194 326Q174 346 158 372Q144 394 133.50 424Q123 454 123 490Q123 532 139.50 566.50Q156 601 184.50 626.50Q213 652 251 666Q289 680 333 680Q403 680 439.50 648.50Q476 617 476 566Q476 526 459.50 493.50Q443 461 416.50 433.50Q390 406 357.50 383Q325 360 292 340L455 120Q480 143 500.50 165Q521 187 536 205Q554 226 567 245L584 230Q571 210 554 188Q540 169 519 145Q498 121 472 97L544 0L434 0L401 43Q360 16 310-2Q260-20 200-20Q106-20 60.50 17.50Q15 55 15 112M225 15Q271 15 310.50 29Q350 43 384 66L218 291Q174 259 142.50 214.50Q111 170 111 112Q111 15 225 15M327 645Q301 645 281 631.50Q261 618 247.50 596.50Q234 575 226.50 549Q219 523 219 498Q219 473 226 451.50Q233 430 241.50 413.50Q250 397 258 387Q266 377 268 375Q291 392 313 411.50Q335 431 352 454Q369 477 379.50 504.50Q390 532 390 564Q390 586 384.50 601.50Q379 617 370 626.50Q361 636 349.50 640.50Q338 645 327 645Z"  horiz-adv-x="614" vert-adv-y="1000"  />

      
      <glyph glyph-name="uni27" unicode="&#x27;" d="M102 390L120 660L220 660L142 390L102 390Z"  horiz-adv-x="208" vert-adv-y="1000"  />

      
      <glyph glyph-name="uni28" unicode="&#x28;" d="M19 140Q19 230 43.50 307.50Q68 385 112 452.50Q156 520 218.50 578.50Q281 637 357 690L365 675Q301 625 252.50 560.50Q204 496 171 421.50Q138 347 121.50 265.50Q105 184 105 101Q105 18 128.50-58Q152-134 211-195L198-210Q155-173 122-134Q89-95 66-52.50Q43-10 31 37.50Q19 85 19 140Z"  horiz-adv-x="310" vert-adv-y="1000"  />

      
      <glyph glyph-name="uni29" unicode="&#x29;" d="M277 339Q277 249 252.50 171.50Q228 94 183.50 26.50Q139-41 77-99.50Q15-158-61-210L-68-195Q-5-145 43.50-80Q92-15 125 59Q158 133 174.50 214Q191 295 191 378Q191 462 167 537.50Q143 613 85 675L97 690Q183 616 230 532Q277 448 277 339Z"  horiz-adv-x="310" vert-adv-y="1000"  />

      
      <glyph glyph-name="uni2a" unicode="&#x2a;" d="M239 660L319 660L262 510L396 615L424 545L270 495L406 445L354 375L257 480L261 330L181 330L237 480L104 375L76 445L230 495L94 545L146 615L242 510L239 660Z"  horiz-adv-x="425" vert-adv-y="1000"  />

      
      <glyph glyph-name="uni2b" unicode="&#x2b;" d="M238 300L38 300L49 360L249 360L284 560L344 560L309 360L509 360L498 300L298 300L263 100L203 100L238 300Z"  horiz-adv-x="529" vert-adv-y="1000"  />

      
      <glyph glyph-name="uni2c" unicode="&#x2c;" d="M-10-140Q32-114 59-82Q86-50 94-5L62-15Q42-15 29-2Q16 11 16 30Q16 57 37 78.50Q58 100 87 100Q113 100 127.50 87Q142 74 142 48Q142 15 130-14.50Q118-44 98-70Q78-96 52-117.50Q26-139-3-155L-10-140Z"  horiz-adv-x="241" vert-adv-y="1000"  />

      
      <glyph glyph-name="uni2d" unicode="&#x2d;" d="M71 300L326 300L314 230L59 230L71 300Z"  horiz-adv-x="389" vert-adv-y="1000"  />

      
      <glyph glyph-name="uni2e" unicode="&#x2e;" d="M81 95Q102 95 114.50 82Q127 69 127 50Q127 26 107.50 6Q88-14 62-14Q42-14 29.50-1.50Q17 11 17 31Q17 43 22 54.50Q27 66 36 75Q45 84 56.50 89.50Q68 95 81 95Z"  horiz-adv-x="225" vert-adv-y="1000"  />

      
      <glyph glyph-name="uni2f" unicode="&#x2f;" d="M-23 0L414 660L487 660L50 0L-23 0Z"  horiz-adv-x="445" vert-adv-y="1000"  />

      
      <glyph glyph-name="uni30" unicode="&#x30;" d="M357 640Q321 640 291 617.50Q261 595 237.50 558Q214 521 196.50 472Q179 423 167.50 369.50Q156 316 150 262Q144 208 144 160Q144 89 168 54.50Q192 20 248 20Q284 20 314 42Q344 64 367.50 101.50Q391 139 409 188Q427 237 438.50 290Q450 343 456 397Q462 451 462 499Q462 571 438 605.50Q414 640 357 640M364 680Q415 680 451.50 664.50Q488 649 511 620.50Q534 592 544.50 550.50Q555 509 555 458Q555 413 548.50 360Q542 307 527 254Q512 201 488 151.50Q464 102 429 64Q394 26 347.50 3Q301-20 241-20Q139-20 94.50 39Q50 98 50 201Q50 246 56.50 299Q63 352 78 405Q93 458 117 508Q141 558 176 596Q211 634 257.50 657Q304 680 364 680Z"  horiz-adv-x="587" vert-adv-y="1000"  />

      
      <glyph glyph-name="uni31" unicode="&#x31;" d="M170 0L80 0L178 560L70 497L56 520L236 660L286 660L170 0Z"  horiz-adv-x="306" vert-adv-y="1000"  />

      
      <glyph glyph-name="uni32" unicode="&#x32;" d="M297 40Q357 40 394 66Q431 92 440 145L460 145L449 80Q446 65 440 50.50Q434 36 423 25Q412 14 394 7Q376 0 350 0L-5 0L3 50Q65 106 119.50 150Q174 194 219 231.50Q264 269 299.50 302.50Q335 336 359.50 370.50Q384 405 397 443Q410 481 410 528Q410 585 379 612.50Q348 640 302 640Q242 640 189.50 596.50Q137 553 107 470L87 470Q94 508 103 542.50Q112 577 134 600Q150 616 173 631Q196 646 223 656.50Q250 667 279.50 673.50Q309 680 339 680Q366 680 396 674.50Q426 669 451.50 653Q477 637 493.50 609Q510 581 510 536Q510 484 488.50 436Q467 388 431.50 343.50Q396 299 350 257.50Q304 216 255.50 178.50Q207 141 159 106Q111 71 72 40L297 40Z"  horiz-adv-x="532" vert-adv-y="1000"  />

      
      <glyph glyph-name="uni33" unicode="&#x33;" d="M208 370Q236 378 263.50 379Q291 380 300 380Q320 380 350.50 374Q381 368 409.50 351.50Q438 335 458.50 304.50Q479 274 479 226Q479 174 458.50 129Q438 84 402.50 51Q367 18 318.50-1Q270-20 214-20Q139-20 89 9Q39 38 7 87L26 105Q56 63 97.50 41.50Q139 20 196 20Q236 20 269.50 36.50Q303 53 327 81Q351 109 364.50 145.50Q378 182 378 222Q378 252 368.50 274Q359 296 344 311Q329 326 310 333Q291 340 272 340Q249 340 234 339Q219 338 206 336Q193 334 180.50 331.50Q168 329 150 325L131 367L447 620L262 620Q202 620 165 594Q128 568 118 515L98 515L110 580Q113 595 119 609.50Q125 624 136 635Q147 646 165 653Q183 660 209 660L527 660L520 620L208 370Z"  horiz-adv-x="531" vert-adv-y="1000"  />

      
      <glyph glyph-name="uni34" unicode="&#x34;" d="M418 210L508 210L500 170L410 170L381 0L291 0L320 170L0 170L8 210L417 660L497 660L418 210M328 210L390 564L68 210L328 210Z"  horiz-adv-x="549" vert-adv-y="1000"  />

      
      <glyph glyph-name="uni35" unicode="&#x35;" d="M272 380Q306 380 343 373.50Q380 367 410.50 350Q441 333 461 303Q481 273 481 226Q481 170 458.50 125Q436 80 398.50 47.50Q361 15 311-2.50Q261-20 206-20Q131-20 86.50 8Q42 36 9 85L31 102Q62 60 102.50 40Q143 20 198 20Q241 20 275 36.50Q309 53 332.50 81Q356 109 368.50 146.50Q381 184 381 225Q381 284 345 312Q309 340 244 340Q221 340 198.50 338.50Q176 337 158 335L118 330L85 370L146 660L521 660L514 620L221 620L169 375Q184 376 202 377Q216 378 234.50 379Q253 380 272 380Z"  horiz-adv-x="533" vert-adv-y="1000"  />

      
      <glyph glyph-name="uni36" unicode="&#x36;" d="M159 340Q151 293 147 254Q143 215 143 183Q143 96 168.50 58Q194 20 238 20Q278 20 308 46Q338 72 357.50 110Q377 148 387 191Q397 234 397 269Q397 327 371 358.50Q345 390 288 390Q250 390 220 376.50Q190 363 159 340M49 193Q49 241 55.50 295.50Q62 350 77.50 404Q93 458 118 508Q143 558 179 596Q215 634 263 657Q311 680 374 680Q423 680 459.50 670.50Q496 661 524 650L516 630Q493 634 459 637Q425 640 387 640Q342 640 306 622Q270 604 242.50 570.50Q215 537 196 490Q177 443 167 385Q197 404 234.50 417Q272 430 325 430Q412 430 451.50 386.50Q491 343 491 270Q491 217 473.50 165Q456 113 423 72Q390 31 341.50 5.50Q293-20 231-20Q137-20 93 33.50Q49 87 49 193Z"  horiz-adv-x="538" vert-adv-y="1000"  />

      
      <glyph glyph-name="uni37" unicode="&#x37;" d="M162 0L72 0L431 620L231 620Q171 620 134 594Q97 568 87 515L67 515L79 580Q82 595 88 609.50Q94 624 105 635Q116 646 134 653Q152 660 178 660L528 660L521 620L162 0Z"  horiz-adv-x="477" vert-adv-y="1000"  />

      
      <glyph glyph-name="uni38" unicode="&#x38;" d="M528 554Q528 519 516 490Q504 461 482.50 436.50Q461 412 432.50 391.50Q404 371 371 355Q393 340 414.50 324.50Q436 309 452.50 289.50Q469 270 479.50 246Q490 222 490 192Q490 140 467.50 100.50Q445 61 408 34Q371 7 323.50-6.50Q276-20 225-20Q183-20 146-12Q109-4 81.50 12.50Q54 29 38 55.50Q22 82 22 118Q22 158 37.50 190Q53 222 79.50 248.50Q106 275 141.50 296Q177 317 218 335Q197 348 177.50 363Q158 378 143.50 395.50Q129 413 120 434Q111 455 111 482Q111 531 130 568Q149 605 181.50 630Q214 655 257 667.50Q300 680 348 680Q385 680 418 673.50Q451 667 475.50 652Q500 637 514 613Q528 589 528 554M232 20Q262 20 290 30Q318 40 340.50 59Q363 78 376.50 104.50Q390 131 390 164Q390 190 379.50 211.50Q369 233 351 251Q333 269 309 284.50Q285 300 259 315Q230 302 204.50 283Q179 264 159.50 240Q140 216 128.50 186Q117 156 117 121Q117 95 126 76Q135 57 151 44.50Q167 32 188 26Q209 20 232 20M341 640Q316 640 292.50 631Q269 622 251 605.50Q233 589 222 565.50Q211 542 211 514Q211 493 221 473.50Q231 454 247.50 437.50Q264 421 285.50 406.50Q307 392 331 380Q375 409 404 451.50Q433 494 433 552Q433 577 425 594Q417 611 403.50 621.50Q390 632 373.50 636Q357 640 341 640Z"  horiz-adv-x="556" vert-adv-y="1000"  />

      
      <glyph glyph-name="uni39" unicode="&#x39;" d="M398 320Q406 367 410 406Q414 445 414 477Q414 564 388.50 602Q363 640 319 640Q279 640 249 614Q219 588 199.50 549.50Q180 511 170 467.50Q160 424 160 390Q160 333 186 301.50Q212 270 269 270Q307 270 337.50 283.50Q368 297 398 320M508 465Q508 417 501 362.50Q494 308 479 254Q464 200 439 150.50Q414 101 378 63Q342 25 293.50 2.50Q245-20 183-20Q134-20 98-10.50Q62-1 33 10L42 30Q64 26 98 23Q132 20 170 20Q215 20 251 38Q287 56 314.50 89.50Q342 123 361 170Q380 217 390 275Q361 256 323 243Q285 230 232 230Q145 230 105.50 273Q66 316 66 390Q66 443 83.50 495Q101 547 134 588Q167 629 215.50 654.50Q264 680 326 680Q420 680 464 626Q508 572 508 465Z"  horiz-adv-x="539" vert-adv-y="1000"  />

      
      <glyph glyph-name="uni3a" unicode="&#x3a;" d="M154 461Q175 461 187 448.50Q199 436 199 417Q199 392 180.50 372.50Q162 353 135 353Q115 353 102 365.50Q89 378 89 398Q89 410 94.50 421Q100 432 109 441Q118 450 129.50 455.50Q141 461 154 461M88 95Q109 95 122 82Q135 69 135 50Q135 38 129.50 26.50Q124 15 115 6Q106-3 94-8.50Q82-14 69-14Q49-14 36.50-1.50Q24 11 24 31Q24 43 29 54.50Q34 66 43 75Q52 84 63.50 89.50Q75 95 88 95Z"  horiz-adv-x="243" vert-adv-y="1000"  />

      
      <glyph glyph-name="uni3b" unicode="&#x3b;" d="M164 461Q184 461 197 448Q210 435 210 416Q210 404 204.50 393Q199 382 190 373.50Q181 365 169 359.50Q157 354 145 354Q125 354 112 366Q99 378 99 397Q99 422 118 441.50Q137 461 164 461M-3-140Q41-110 67.50-79.50Q94-49 103 0Q98-4 89-9.50Q80-15 65-15Q45-15 34.50-2.50Q24 10 24 28Q24 57 46.50 78.50Q69 100 100 100Q122 100 135 85Q148 70 148 43Q148 10 136-18Q124-46 104.50-70.50Q85-95 59-115.50Q33-136 5-154L-3-140Z"  horiz-adv-x="259" vert-adv-y="1000"  />

      
      <glyph glyph-name="uni3c" unicode="&#x3c;" d="M144 335L529 155L518 95L38 320L43 350L603 575L592 515L144 335Z"  horiz-adv-x="620" vert-adv-y="1000"  />

      
      <glyph glyph-name="uni3d" unicode="&#x3d;" d="M98 450L623 450L612 390L87 390L98 450M66 270L591 270L581 210L56 210L66 270Z"  horiz-adv-x="662" vert-adv-y="1000"  />

      
      <glyph glyph-name="uni3e" unicode="&#x3e;" d="M111 515L122 575L602 350L597 320L37 95L48 155L497 335L111 515Z"  horiz-adv-x="620" vert-adv-y="1000"  />

      
      <glyph glyph-name="uni3f" unicode="&#x3f;" d="M195 96Q216 96 229 83Q242 70 242 50Q242 38 236.50 26.50Q231 15 222 6.50Q213-2 201-7.50Q189-13 176-13Q155-13 143-0.50Q131 12 131 31Q131 55 149.50 75.50Q168 96 195 96M186 156Q195 196 213.50 228Q232 260 254.50 288Q277 316 301 342Q325 368 344.50 396Q364 424 376.50 456Q389 488 389 528Q389 585 358 612.50Q327 640 281 640Q221 640 168 596.50Q115 553 85 470L65 470Q72 508 81 542.50Q90 577 113 600Q129 616 152 631Q175 646 202 656.50Q229 667 258.50 673.50Q288 680 318 680Q345 680 375 674.50Q405 669 430.50 653Q456 637 472.50 609Q489 581 489 536Q489 485 473 448Q457 411 432 382Q407 353 377 329.50Q347 306 317.50 281Q288 256 263.50 226Q239 196 226 156L186 156Z"  horiz-adv-x="481" vert-adv-y="1000"  />

      
      <glyph glyph-name="uni40" unicode="&#x40;" d="M427 490Q479 490 505 472Q531 454 542 435L547 435L590 480L640 480L574 105Q573 100 573 90Q573 72 582 58.50Q591 45 613 45Q643 45 668 61.50Q693 78 712 105Q731 132 745 166Q759 200 768 235Q777 270 781.50 303.50Q786 337 786 362Q786 430 765.50 482Q745 534 707 569Q669 604 615 622Q561 640 493 640Q390 640 310.50 598Q231 556 176.50 486.50Q122 417 93.50 328Q65 239 65 145Q65 74 85.50 20.50Q106-33 143.50-68.50Q181-104 235-122Q289-140 356-140Q454-140 533.50-118.50Q613-97 681-55L696-85Q628-127 543-153.50Q458-180 349-180Q275-180 215-159.50Q155-139 113-98.50Q71-58 48 2Q25 62 25 140Q25 206 39 271.50Q53 337 80 397Q107 457 147.50 509Q188 561 240.50 599Q293 637 358 658.50Q423 680 500 680Q575 680 635.50 659Q696 638 738.50 598.50Q781 559 804 500.50Q827 442 827 367Q827 331 821.50 290Q816 249 804 208.50Q792 168 772.50 131.50Q753 95 725 66.50Q697 38 660 21.50Q623 5 576 5Q534 5 512.50 18.50Q491 32 480 55L475 55Q457 36 424.50 18Q392 0 336 0Q297 0 268.50 13.50Q240 27 222 50Q204 73 195 105Q186 137 186 173Q186 221 201.50 276.50Q217 332 247 379.50Q277 427 322 458.50Q367 490 427 490M450 450Q405 450 372.50 420Q340 390 319.50 346.50Q299 303 289.50 253.50Q280 204 280 166Q280 111 300.50 75.50Q321 40 368 40Q390 40 407.50 46Q425 52 439 61.50Q453 71 464 82.50Q475 94 484 105L534 390Q529 401 522 412Q515 423 505.50 431.50Q496 440 482.50 445Q469 450 450 450Z"  horiz-adv-x="855" vert-adv-y="1000"  />

      
      <glyph glyph-name="uni41" unicode="&#x41;" d="M617 0Q599-5 576-5Q559-5 537.50-1Q516 3 495 16.50Q474 30 456 56Q438 82 429 125L415 190L135 190L22 0L-23 0L373 660L403 660L529 125Q535 97 542.50 77.50Q550 58 560.50 46Q571 34 585.50 28Q600 22 620 20L617 0M157 230L402 230L333 520L157 230Z"  horiz-adv-x="634" vert-adv-y="1000"  />

      
      <glyph glyph-name="uni42" unicode="&#x42;" d="M204 315L157 49Q179 42 203 38.50Q227 35 250 35Q288 35 326.50 44.50Q365 54 396.50 74.50Q428 95 447.50 127Q467 159 467 204Q467 258 425 286.50Q383 315 299 315L204 315M306 355Q338 355 371 365.50Q404 376 431 396.50Q458 417 475 446Q492 475 492 512Q492 542 477.50 563Q463 584 440.50 598Q418 612 390 618.50Q362 625 334 625Q315 625 294 622Q273 619 257 615L211 355L306 355M345 660Q381 660 423.50 655.50Q466 651 502.50 636Q539 621 563 593Q587 565 587 518Q587 484 574.50 456Q562 428 540 406Q518 384 489.50 367.50Q461 351 428 340Q507 327 538 295Q569 263 569 217Q569 157 542.50 115.50Q516 74 472.50 48.50Q429 23 373 11.50Q317 0 259 0L148 0L59 0L154 540Q156 552 157 562.50Q158 573 158 583Q158 609 146 624.50Q134 640 101 640L81 640L85 660L345 660Z"  horiz-adv-x="624" vert-adv-y="1000"  />

      
      <glyph glyph-name="uni43" unicode="&#x43;" d="M620 450Q618 548 574.50 594Q531 640 448 640Q371 640 314.50 604Q258 568 220 510.50Q182 453 163.50 382Q145 311 145 241Q145 196 155.50 156Q166 116 189.50 86Q213 56 249.50 38Q286 20 339 20Q414 20 474.50 56Q535 92 589 160L606 145Q573 98 538.50 66.50Q504 35 466.50 15.50Q429-4 388-12Q347-20 302-20Q240-20 192.50 0Q145 20 112 55Q79 90 62 139Q45 188 45 245Q45 317 73.50 393.50Q102 470 152.50 534Q203 598 272.50 639Q342 680 425 680Q454 680 493 674.50Q532 669 567.50 655Q603 641 627.50 615.50Q652 590 652 550Q652 525 648 500.50Q644 476 640 450L620 450Z"  horiz-adv-x="666" vert-adv-y="1000"  />

      
      <glyph glyph-name="uni44" unicode="&#x44;" d="M160 48Q189 41 214.50 38Q240 35 260 35Q330 35 389 66Q448 97 490 148Q532 199 555.50 264.50Q579 330 579 398Q579 450 564 492Q549 534 520.50 563.50Q492 593 452 609Q412 625 362 625Q340 625 314 621Q288 617 259 609L160 48M347 660Q434 660 498 642.50Q562 625 604.50 592Q647 559 668 511.50Q689 464 689 405Q689 318 656.50 243.50Q624 169 566.50 115Q509 61 429.50 30.50Q350 0 257 0L153 0L59 0L154 540Q156 552 157 562.50Q158 573 158 583Q158 609 146 624.50Q134 640 101 640L81 640L85 660L347 660Z"  horiz-adv-x="716" vert-adv-y="1000"  />

      
      <glyph glyph-name="uni45" unicode="&#x45;" d="M512 660Q555 660 570 643Q585 626 585 602Q585 599 584.50 595Q584 591 582.50 581.50Q581 572 578 554Q575 536 570 505L550 505Q553 521 553 535Q553 580 525 600Q497 620 445 620L259 620L213 360L483 360L476 320L206 320L157 40L332 40Q400 40 444 65Q488 90 521 150L540 145L488 50Q476 27 455.50 13.50Q435 0 405 0L150 0L60 0Q84 139 101 235.50Q118 332 129 395.50Q140 459 146 495Q152 531 155 549.50Q158 568 158.50 574Q159 580 159 583Q159 609 147 624.50Q135 640 102 640L82 640L86 660L512 660Z"  horiz-adv-x="593" vert-adv-y="1000"  />

      
      <glyph glyph-name="uni46" unicode="&#x46;" d="M485 660Q528 660 543 643Q558 626 558 602Q558 599 557.50 595Q557 591 555.50 581.50Q554 572 551 554Q548 536 543 505L523 505Q526 521 526 535Q526 580 498 600Q470 620 418 620L259 620L212 355L438 355L431 315L205 315L150 0L60 0Q84 139 101 235.50Q118 332 129 395.50Q140 459 146 495Q152 531 155 549.50Q158 568 158.50 574Q159 580 159 583Q159 609 147 624.50Q135 640 102 640L82 640L86 660L485 660Z"  horiz-adv-x="531" vert-adv-y="1000"  />

      
      <glyph glyph-name="uni47" unicode="&#x47;" d="M448 640Q371 640 314 602.50Q257 565 219.50 506.50Q182 448 163.50 376.50Q145 305 145 236Q145 176 160 135Q175 94 201 68.50Q227 43 262.50 31.50Q298 20 339 20Q393 20 430.50 29.50Q468 39 500 55L531 229Q535 250 543.50 270.50Q552 291 571.50 308Q591 325 626 335.50Q661 346 717 346L713 326Q689 326 673 319.50Q657 313 647 300.50Q637 288 631 270.50Q625 253 621 231L588 43Q528 10 466.50-5Q405-20 332-20Q266-20 213.50 2Q161 24 124.50 62.50Q88 101 68.50 154Q49 207 49 269Q49 342 76 415.50Q103 489 152.50 548Q202 607 271.50 643.50Q341 680 425 680Q455 680 496 675.50Q537 671 573.50 657Q610 643 636 617.50Q662 592 662 550Q662 530 659 507.50Q656 485 652 465L632 465Q626 640 448 640Z"  horiz-adv-x="720" vert-adv-y="1000"  />

      
      <glyph glyph-name="uni48" unicode="&#x48;" d="M560 120Q555 92 555 75Q555 49 567.50 34.50Q580 20 612 20L632 20L629 0L539 0Q499 0 481 12Q463 24 463 61Q463 73 465 87.50Q467 102 470 120L505 320L205 320L149 0L59 0L154 540Q156 552 157 562.50Q158 573 158 583Q158 609 146 624.50Q134 640 101 640L81 640L85 660L175 660Q215 660 232.50 648.50Q250 637 250 599Q250 576 244 540L212 360L512 360L565 660L655 660L560 120Z"  horiz-adv-x="696" vert-adv-y="1000"  />

      
      <glyph glyph-name="uni49" unicode="&#x49;" d="M158 660L248 660L153 120Q148 92 148 75Q148 49 160.50 34.50Q173 20 205 20L225 20L222 0L132 0Q92 0 74 12Q56 24 56 61Q56 73 58 87.50Q60 102 63 120L158 660Z"  horiz-adv-x="289" vert-adv-y="1000"  />

      
      <glyph glyph-name="uni4a" unicode="&#x4a;" d="M-76-117Q-28-117 4-65Q36-13 52 78L155 660L245 660L142 78Q132 22 116.50-19Q101-60 75.50-86Q50-112 12-124.50Q-26-137-80-137L-76-117Z"  horiz-adv-x="264" vert-adv-y="1000"  />

      
      <glyph glyph-name="uni4b" unicode="&#x4b;" d="M176 660Q216 660 234 648Q252 636 252 599Q252 593 251 583.50Q250 574 245.50 548.50Q241 523 233 475Q225 427 210 345L457 555Q479 574 500 592.50Q521 611 543.50 626Q566 641 591 650.50Q616 660 646 660L696 660L691 635Q670 635 652 632Q634 629 616 621Q598 613 578 599.50Q558 586 534 565L305 370L492 130Q525 87 565.50 55.50Q606 24 643 19L640 0Q628-4 612-7Q596-10 573-10Q552-10 530-5.50Q508-1 484 12.50Q460 26 434 49Q408 72 379 110L208 330L150 0L60 0Q84 139 101 235.50Q118 332 129 395.50Q140 459 146 495Q152 531 155 549.50Q158 568 158.50 574Q159 580 159 583Q159 609 147 624.50Q135 640 102 640L82 640L86 660L176 660Z"  horiz-adv-x="678" vert-adv-y="1000"  />

      
      <glyph glyph-name="uni4c" unicode="&#x4c;" d="M512 40L505 0L60 0Q84 139 101 235.50Q118 332 129 395.50Q140 459 146 495Q152 531 155 549.50Q158 568 158.50 574Q159 580 159 583Q159 609 147 624.50Q135 640 102 640L82 640L86 660L176 660Q216 660 233.50 648.50Q251 637 251 599Q251 595 250.50 588.50Q250 582 247 563.50Q244 545 238.50 510Q233 475 222.50 414Q212 353 196 262Q180 171 157 40L512 40Z"  horiz-adv-x="557" vert-adv-y="1000"  />

      
      <glyph glyph-name="uni4d" unicode="&#x4d;" d="M785-45Q699-45 663.50-14Q628 17 628 86Q628 122 637 170L705 555L358 0L338 0L177 565L78 0L38 0L154 660L249 660L397 140L724 660L814 660L727 170Q718 122 718 84Q718 32 735 3.50Q752-25 788-25L785-45Z"  horiz-adv-x="857" vert-adv-y="1000"  />

      
      <glyph glyph-name="uni4e" unicode="&#x4e;" d="M62 0Q86 138 103 233Q120 328 130.50 391Q141 454 147 489Q153 524 156 541.50Q159 559 159.50 564Q160 569 160 572Q160 604 143.50 622Q127 640 84 640L74 640L78 660L143 660Q192 660 221 644Q250 628 267 600L541 165L628 660L668 660L550-10L530-10L194 525L102 0L62 0Z"  horiz-adv-x="687" vert-adv-y="1000"  />

      
      <glyph glyph-name="uni4f" unicode="&#x4f;" d="M310 20Q358 20 396.50 39Q435 58 465.50 89.50Q496 121 518.50 162.50Q541 204 555.50 249.50Q570 295 577 340.50Q584 386 584 427Q584 527 541.50 583.50Q499 640 419 640Q371 640 332 621Q293 602 263 570.50Q233 539 210.50 497Q188 455 174 409.50Q160 364 153 318Q146 272 146 231Q146 131 188 75.50Q230 20 310 20M48 251Q48 326 74.50 402Q101 478 150 540Q199 602 269 641Q339 680 426 680Q487 680 535 659.50Q583 639 615.50 602.50Q648 566 665 516Q682 466 682 407Q682 332 655.50 256Q629 180 579.50 118.50Q530 57 460 18.50Q390-20 303-20Q241-20 193.50 0.50Q146 21 114 57Q82 93 65 142.50Q48 192 48 251Z"  horiz-adv-x="712" vert-adv-y="1000"  />

      
      <glyph glyph-name="uni50" unicode="&#x50;" d="M278 305Q305 305 337 316.50Q369 328 397.50 352Q426 376 445 412.50Q464 449 464 499Q464 534 450.50 558Q437 582 417.50 597Q398 612 375.50 618.50Q353 625 335 625Q316 625 295 622Q274 619 258 615L205 315Q219 311 239 308Q259 305 278 305M150 0L60 0Q84 139 101 235.50Q118 332 129 395.50Q140 459 146 495Q152 531 155 549.50Q158 568 158.50 574Q159 580 159 583Q159 609 147 624.50Q135 640 102 640L82 640L86 660L346 660Q375 660 413 655Q451 650 484.50 634Q518 618 541.50 586.50Q565 555 565 503Q565 450 544 407.50Q523 365 488 334Q453 303 406 286.50Q359 270 307 270L197 270L150 0Z"  horiz-adv-x="555" vert-adv-y="1000"  />

      
      <glyph glyph-name="uni51" unicode="&#x51;" d="M48 251Q48 326 74.50 402Q101 478 150 540Q199 602 269 641Q339 680 426 680Q487 680 535 659.50Q583 639 615 603Q647 567 664 517.50Q681 468 681 409Q681 342 661.50 276Q642 210 604.50 154Q567 98 512 55Q457 12 387-9Q392-47 413-79Q434-111 463.50-134.50Q493-158 527.50-171.50Q562-185 594-185L590-205Q536-205 484-195.50Q432-186 384-163.50Q336-141 293.50-102.50Q251-64 215-7Q134 18 91 87Q48 156 48 251M310 20Q358 20 396.50 39Q435 58 465.50 89.50Q496 121 518.50 162.50Q541 204 555.50 249.50Q570 295 577 340.50Q584 386 584 427Q584 527 541.50 583.50Q499 640 419 640Q371 640 332 621Q293 602 263 570.50Q233 539 210.50 497Q188 455 174 409.50Q160 364 153 318Q146 272 146 231Q146 131 188 75.50Q230 20 310 20Z"  horiz-adv-x="711" vert-adv-y="1000"  />

      
      <glyph glyph-name="uni52" unicode="&#x52;" d="M284 340Q317 340 349.50 352.50Q382 365 408.50 387.50Q435 410 451 440.50Q467 471 467 507Q467 539 453.50 561.50Q440 584 420 598Q400 612 377 618.50Q354 625 335 625Q316 625 295 622Q274 619 258 615L211 350Q225 346 245 343Q265 340 284 340M273 305L203 305L150 0L60 0Q84 139 101 235.50Q118 332 129 395.50Q140 459 146 495Q152 531 155 549.50Q158 568 158.50 574Q159 580 159 583Q159 609 147 624.50Q135 640 102 640L82 640L86 660L346 660Q375 660 413.50 655.50Q452 651 486 635.50Q520 620 543.50 591.50Q567 563 567 515Q567 474 552.50 440.50Q538 407 512 381.50Q486 356 451 338Q416 320 374 310L448 135Q461 103 474 82Q487 61 500.50 47.50Q514 34 529.50 28Q545 22 563 20L560 0Q552-4 534.50-7Q517-10 498-10Q472-10 451-3Q430 4 411.50 21Q393 38 376.50 66Q360 94 343 135L273 305Z"  horiz-adv-x="595" vert-adv-y="1000"  />

      
      <glyph glyph-name="uni53" unicode="&#x53;" d="M474 198Q474 151 454 111.50Q434 72 400.50 43.50Q367 15 323-1Q279-17 231-17Q192-17 155-9.50Q118-2 88.50 12.50Q59 27 41 47Q23 67 23 93Q23 94 23.50 97.50Q24 101 25.50 112.50Q27 124 31 147Q35 170 43 212L61 212L61 205Q61 108 103.50 65.50Q146 23 229 23Q255 23 282 31Q309 39 330.50 54.50Q352 70 366 93Q380 116 380 146Q380 181 357.50 207.50Q335 234 292 263L182 336Q134 368 113 399Q92 430 92 472Q92 517 110 554.50Q128 592 158.50 619.50Q189 647 230.50 662.50Q272 678 319 678Q354 678 389 670.50Q424 663 452 649.50Q480 636 497.50 615.50Q515 595 515 570Q515 568 514.50 565Q514 562 512.50 550.50Q511 539 506.50 516Q502 493 495 451L477 451L477 458Q477 555 436 596.50Q395 638 312 638Q288 638 263.50 629.50Q239 621 219.50 605Q200 589 188 567Q176 545 176 518Q176 483 199.50 459Q223 435 266 406L376 333Q425 301 449.50 270.50Q474 240 474 198Z"  horiz-adv-x="534" vert-adv-y="1000"  />

      
      <glyph glyph-name="uni54" unicode="&#x54;" d="M637 660L630 620L405 620L296 0L206 0L315 620L225 620Q165 620 128 592.50Q91 565 80 505L60 505L73 580Q76 595 82 609.50Q88 624 99 635Q110 646 128 653Q146 660 172 660L637 660Z"  horiz-adv-x="585" vert-adv-y="1000"  />

      
      <glyph glyph-name="uni55" unicode="&#x55;" d="M144 540Q146 552 147 562.50Q148 573 148 583Q148 609 136 624.50Q124 640 91 640L71 640L75 660L165 660Q205 660 223 648Q241 636 241 599Q241 587 239 572.50Q237 558 234 540L183 255Q179 233 177 214Q175 195 175 177Q175 107 208.50 68.50Q242 30 321 30Q378 30 419.50 45Q461 60 490.50 91.50Q520 123 538.50 171Q557 219 569 285L635 660L675 660L609 285Q596 212 575 156.50Q554 101 519 64Q484 27 431.50 8.50Q379-10 302-10Q186-10 137 37Q88 84 88 177Q88 201 91 228Q94 255 99 285L144 540Z"  horiz-adv-x="687" vert-adv-y="1000"  />

      
      <glyph glyph-name="uni56" unicode="&#x56;" d="M321 140Q356 198 379 235Q402 272 417 297Q432 322 442 339Q452 356 462 372.50Q472 389 484 409Q496 429 514.50 461Q533 493 561.50 540.50Q590 588 633 660L681 660L276-10L258-10L123 543Q116 571 108.50 590.50Q101 610 91 622Q81 634 66.50 640Q52 646 32 648L35 668Q39 668 51 669Q63 670 70 670Q88 670 110.50 666Q133 662 154 649Q175 636 193 611Q211 586 221 543L321 140Z"  horiz-adv-x="639" vert-adv-y="1000"  />

      
      <glyph glyph-name="uni57" unicode="&#x57;" d="M121 543Q116 571 109.50 590.50Q103 610 92.50 622Q82 634 67 640Q52 646 30 648L33 668Q37 668 49 669Q61 670 68 670Q89 670 112 666.50Q135 663 155.50 650Q176 637 192 611.50Q208 586 216 543L282 157L445 474L433 543Q428 571 421.50 590.50Q415 610 404.50 622Q394 634 379 640Q364 646 342 648L345 668Q349 668 361 669Q373 670 380 670Q401 670 424 666.50Q447 663 467.50 650Q488 637 504 611.50Q520 586 528 543L594 157L854 660L897 660L550-10L530-10L456 411L238-10L218-10L121 543Z"  horiz-adv-x="867" vert-adv-y="1000"  />

      
      <glyph glyph-name="uni58" unicode="&#x58;" d="M41 0L-9 0L298 325L194 530Q185 549 174 567.50Q163 586 147.50 601.50Q132 617 109 627.50Q86 638 53 640L57 660L177 660Q201 660 219.50 650Q238 640 252 624Q266 608 277 588.50Q288 569 297 550L371 400L617 660L667 660L390 365L508 130Q518 111 530 92.50Q542 74 557 58.50Q572 43 591 32.50Q610 22 634 20L631 0L526 0Q502 0 483 10Q464 20 450 36Q436 52 425 71.50Q414 91 405 110L317 290L41 0Z"  horiz-adv-x="663" vert-adv-y="1000"  />

      
      <glyph glyph-name="uni59" unicode="&#x59;" d="M365 325L633 660L678 660L377 280L328 0L238 0L286 273L161 530Q150 552 138.50 571.50Q127 591 113 605.50Q99 620 80 629Q61 638 35 640L39 660L129 660Q157 660 177.50 650.50Q198 641 213 625.50Q228 610 239 590.50Q250 571 259 550L365 325Z"  horiz-adv-x="629" vert-adv-y="1000"  />

      
      <glyph glyph-name="uni5a" unicode="&#x5a;" d="M644 660L110 40L520 40L513 0L-22 0L-19 20L502 620L262 620Q202 620 165 592.50Q128 565 117 505L97 505L110 580Q113 595 119 609.50Q125 624 136 635Q147 646 165 653Q183 660 209 660L644 660Z"  horiz-adv-x="594" vert-adv-y="1000"  />

      
      <glyph glyph-name="uni5b" unicode="&#x5b;" d="M207-200L75-200L-8-200L147 680L362 680L355 640L220 640L79-160L214-160L207-200Z"  horiz-adv-x="317" vert-adv-y="1000"  />

      
      <glyph glyph-name="uni5c" unicode="&#x5c;" d="M295 0L90 660L163 660L368 0L295 0Z"  horiz-adv-x="440" vert-adv-y="1000"  />

      
      <glyph glyph-name="uni5d" unicode="&#x5d;" d="M-50-160L84-160L225 640L90 640L97 680L312 680L157-200L76-200L-57-200L-50-160Z"  horiz-adv-x="317" vert-adv-y="1000"  />

      
      <glyph glyph-name="uni5e" unicode="&#x5e;" d="M314 680L334 680L488 330L421 330L308 587L105 330L38 330L314 680Z"  horiz-adv-x="490" vert-adv-y="1000"  />

      
      <glyph glyph-name="uni5f" unicode="&#x5f;" d="M359-60L-41-60L-30 0L370 0L359-60Z"  horiz-adv-x="430" vert-adv-y="1000"  />

      
      <glyph glyph-name="uni60" unicode="&#x60;" d="M99 680L199 680L224 480L174 480L99 680Z"  horiz-adv-x="200" vert-adv-y="1000"  />

      
      <glyph glyph-name="uni61" unicode="&#x61;" d="M296 440Q250 440 218 410Q186 380 165.50 336.50Q145 293 136 244Q127 195 127 157Q127 102 147 66Q167 30 214 30Q259 30 284.50 48.50Q310 67 329 90L381 380Q375 391 368 402Q361 413 351.50 421.50Q342 430 328.50 435Q315 440 296 440M273 480Q325 480 351 462Q377 444 388 425L393 425L436 470L486 470L419 87L404 0L354 0L326 45L321 45Q303 26 270 8Q237-10 177-10Q140-10 112.50 3.50Q85 17 67 40Q49 63 40.50 95Q32 127 32 163Q32 215 47 269Q62 323 92 368.50Q122 414 167 444.50Q212 475 273 480Z"  horiz-adv-x="525" vert-adv-y="1000"  />

      
      <glyph glyph-name="uni62" unicode="&#x62;" d="M130 90Q141 67 162.50 48.50Q184 30 225 30Q254 30 277 44Q300 58 317.50 81Q335 104 347.50 134Q360 164 368 195Q376 226 379.50 256.50Q383 287 383 311Q383 368 361 404Q339 440 287 440Q264 440 237.50 430.50Q211 421 187 410L130 90M25 0Q49 139 66 235.50Q83 332 94 395.50Q105 459 111 495Q117 531 120 549.50Q123 568 123.50 574Q124 580 124 583Q124 609 112 624.50Q100 640 67 640L47 640L51 660L141 660Q181 660 198.50 648.50Q216 637 216 599Q216 576 210 540L194 450Q218 461 250 470.50Q282 480 324 480Q364 480 393 467Q422 454 441 430.50Q460 407 469 375Q478 343 478 305Q478 274 472 238.50Q466 203 453.50 168Q441 133 422 101Q403 69 377.50 44Q352 19 319.50 4.50Q287-10 248-10Q192-10 163 8Q134 26 122 45L117 45L75 0L25 0Z"  horiz-adv-x="526" vert-adv-y="1000"  />

      
      <glyph glyph-name="uni63" unicode="&#x63;" d="M301 480Q320 480 346.50 478.50Q373 477 397 469.50Q421 462 437.50 446.50Q454 431 454 402Q454 388 451 368.50Q448 349 443 322L442 315L422 315Q423 321 423 326.50Q423 332 423 337Q423 390 392.50 415Q362 440 314 440Q265 440 230 414Q195 388 172 348.50Q149 309 138 261.50Q127 214 127 171Q127 108 154.50 69Q182 30 242 30Q295 30 331.50 51Q368 72 401 110L418 95Q374 38 324.50 14Q275-10 215-10Q167-10 132.50 4Q98 18 75.50 42.50Q53 67 42.50 100.50Q32 134 32 174Q32 229 50 283.50Q68 338 102.50 381.50Q137 425 187 452.50Q237 480 301 480Z"  horiz-adv-x="484" vert-adv-y="1000"  />

      
      <glyph glyph-name="uni64" unicode="&#x64;" d="M386 410Q365 421 342 430.50Q319 440 296 440Q249 440 216.50 410.50Q184 381 164.50 338Q145 295 136.50 245.50Q128 196 128 157Q128 100 148 65Q168 30 214 30Q259 30 284.50 48.50Q310 67 329 90L386 410M354 0L326 45L321 45Q303 26 270 8Q237-10 177-10Q140-10 113 3Q86 16 68 39.50Q50 63 41.50 95Q33 127 33 165Q33 214 47.50 269.50Q62 325 91.50 372Q121 419 166 449.50Q211 480 273 480Q315 480 343.50 470.50Q372 461 393 450Q400 490 404 514Q408 538 410 551.50Q412 565 412.50 571.50Q413 578 413 583Q413 609 401 624.50Q389 640 356 640L336 640L340 660L430 660Q470 660 487.50 648.50Q505 637 505 599Q505 595 504.50 588Q504 581 501 561.50Q498 542 491.50 505Q485 468 474 402.50Q463 337 446 239Q429 141 404 0L354 0Z"  horiz-adv-x="525" vert-adv-y="1000"  />

      
      <glyph glyph-name="uni65" unicode="&#x65;" d="M127 200Q125 189 124 179Q123 169 123 159Q123 105 150.50 67.50Q178 30 232 30Q281 30 317 51Q353 72 386 110L403 95Q359 38 310.50 14Q262-10 205-10Q161-10 128.50 4Q96 18 74.50 42.50Q53 67 42.50 100.50Q32 134 32 173Q32 225 49 279.50Q66 334 99 378.50Q132 423 180.50 451.50Q229 480 291 480Q380 480 419 447Q458 414 458 366Q458 325 440.50 294Q423 263 393.50 242Q364 221 326 210.50Q288 200 247 200L127 200M249 240Q297 242 330 276Q363 310 363 364Q363 399 342.50 419.50Q322 440 284 440Q231 440 191 387Q151 334 134 240L249 240Z"  horiz-adv-x="487" vert-adv-y="1000"  />

      
      <glyph glyph-name="uni66" unicode="&#x66;" d="M118 430L48 430L55 470L125 470L131 500Q141 552 162.50 585Q184 618 212 637Q240 656 272 663Q304 670 336 670Q398 670 418 655Q436 641 445 610L411 585Q400 608 379 619Q358 630 324 630Q290 630 263 602Q236 574 221 500L215 470L355 470L348 430L208 430L137 25Q127-31 111-72Q95-113 69.50-139Q44-165 6.50-177.50Q-31-190-85-190L-81-170Q-33-170-1-118Q31-66 47 25L118 430Z"  horiz-adv-x="340" vert-adv-y="1000"  />

      
      <glyph glyph-name="uni67" unicode="&#x67;" d="M380 380Q369 402 347.50 421Q326 440 285 440Q242 440 212 411Q182 382 163.50 340Q145 298 136.50 251Q128 204 128 168Q128 112 150.50 76Q173 40 225 40Q248 40 274 49.50Q300 59 325 70L380 380M407 25Q398-26 378-67.50Q358-109 328-138.50Q298-168 260-184Q222-200 177-200Q117-200 76-176Q35-152 11-95L33-80Q53-118 82-139Q111-160 164-160Q221-160 261.50-111Q302-62 317 25L318 30Q293 19 261.50 9.50Q230 0 188 0Q148 0 119 13.50Q90 27 71 50Q52 73 43 105Q34 137 34 174Q34 220 48 273.50Q62 327 90.50 373Q119 419 161.50 449.50Q204 480 262 480Q318 480 347 462Q376 444 387 425L392 425L435 470L485 470L407 25Z"  horiz-adv-x="524" vert-adv-y="1000"  />

      
      <glyph glyph-name="uni68" unicode="&#x68;" d="M190 430Q213 449 248.50 464.50Q284 480 329 480Q357 480 382.50 474.50Q408 469 428 454.50Q448 440 460 415Q472 390 472 352Q472 348 471.50 342.50Q471 337 469.50 324.50Q468 312 464.50 290Q461 268 454.50 230Q448 192 438.50 136Q429 80 415 0L325 0Q339 78 348.50 133Q358 188 364 224.50Q370 261 373.50 282.50Q377 304 378.50 315.50Q380 327 380.50 331.50Q381 336 381 339Q381 365 373.50 383.50Q366 402 353.50 413.50Q341 425 325 430Q309 435 291 435Q261 435 233 419Q205 403 182 382L115 0L25 0Q49 139 66 235.50Q83 332 94 395.50Q105 459 111 495Q117 531 120 549.50Q123 568 123.50 574Q124 580 124 583Q124 609 112 624.50Q100 640 67 640L47 640L51 660L141 660Q181 660 198.50 648.50Q216 637 216 599Q216 593 215.50 584.50Q215 576 212 558.50Q209 541 204 510.50Q199 480 190 430Z"  horiz-adv-x="532" vert-adv-y="1000"  />

      
      <glyph glyph-name="uni69" unicode="&#x69;" d="M42 0Q58 92 69 156Q80 220 87.50 262.50Q95 305 99 330Q103 355 105 368.50Q107 382 107.50 387Q108 392 108 395Q108 421 95.50 435.50Q83 450 51 450L31 450L34 470L124 470Q164 470 182 458Q200 446 200 409Q200 405 199.50 399Q199 393 197 379Q195 365 190.50 339Q186 313 178.50 269Q171 225 159.50 159Q148 93 132 0L42 0M228 587Q228 564 213.50 547Q199 530 173 530Q153 530 140 545Q127 560 127 582Q127 605 141.50 622Q156 639 182 639Q202 639 215 624Q228 609 228 587Z"  horiz-adv-x="251" vert-adv-y="1000"  />

      
      <glyph glyph-name="uni6a" unicode="&#x6a;" d="M46 25Q61 110 71.50 170Q82 230 89 270Q96 310 99.50 333.50Q103 357 105 369.50Q107 382 107.50 387Q108 392 108 395Q108 421 95.50 435.50Q83 450 51 450L31 450L34 470L124 470Q164 470 182 458Q200 446 200 409Q200 405 199.50 399Q199 393 197 379.50Q195 366 191 341.50Q187 317 180 276Q173 235 162 173.50Q151 112 136 25Q126-31 110-72Q94-113 68.50-139Q43-165 5.50-177.50Q-32-190-86-190L-82-170Q-34-170-2-118Q30-66 46 25M228 587Q228 564 213.50 547Q199 530 173 530Q153 530 140 545Q127 560 127 582Q127 605 141.50 622Q156 639 182 639Q202 639 215 624Q228 609 228 587Z"  horiz-adv-x="251" vert-adv-y="1000"  />

      
      <glyph glyph-name="uni6b" unicode="&#x6b;" d="M157 245L310 405Q338 434 370 452Q402 470 451 470L481 470L477 445Q451 445 424 434Q397 423 374 400L239 260L336 100Q359 62 381 43Q403 24 432 19L429 0Q421-4 406.50-7Q392-10 377-10Q339-10 305.50 7.50Q272 25 246 70L154 230L114 0L24 0L119 540Q121 552 122 562.50Q123 573 123 583Q123 609 111 624.50Q99 640 66 640L46 640L50 660L140 660Q180 660 197.50 648.50Q215 637 215 599Q215 576 209 540L157 245Z"  horiz-adv-x="485" vert-adv-y="1000"  />

      
      <glyph glyph-name="uni6c" unicode="&#x6c;" d="M29 0Q53 139 70 235.50Q87 332 98 395.50Q109 459 115 495Q121 531 124 549.50Q127 568 127.50 574Q128 580 128 583Q128 609 116 624.50Q104 640 71 640L51 640L55 660L145 660Q185 660 202.50 648.50Q220 637 220 599Q220 595 219.50 588Q219 581 216 561.50Q213 542 206.50 505Q200 468 189 402.50Q178 337 161 239Q144 141 119 0L29 0Z"  horiz-adv-x="244" vert-adv-y="1000"  />

      
      <glyph glyph-name="uni6d" unicode="&#x6d;" d="M207 430Q230 449 265.50 464.50Q301 480 346 480Q383 480 412.50 465.50Q442 451 454 410Q486 444 530 462Q574 480 616 480Q640 480 660.50 475Q681 470 696.50 456.50Q712 443 721 420.50Q730 398 730 363Q730 358 729.50 352Q729 346 727.50 333Q726 320 722 296.50Q718 273 711.50 234Q705 195 695.50 138Q686 81 672 0L582 0Q596 80 605.50 137Q615 194 621.50 232.50Q628 271 632 294Q636 317 637.50 330Q639 343 639.50 348.50Q640 354 640 358Q640 400 623.50 417.50Q607 435 578 435Q563 435 546.50 429Q530 423 514.50 413.50Q499 404 485 392.50Q471 381 462 370L462 363Q462 357 460.50 344Q459 331 453 294Q447 257 435 188Q423 119 402 0L312 0Q326 80 335.50 137Q345 194 351.50 232.50Q358 271 362 294Q366 317 367.50 330Q369 343 369.50 348.50Q370 354 370 358Q370 400 353.50 417.50Q337 435 308 435Q278 435 250 419Q222 403 199 382L132 0L42 0Q58 92 69 156Q80 220 87.50 262.50Q95 305 99 330Q103 355 105 368.50Q107 382 107.50 387Q108 392 108 395Q108 421 95.50 435.50Q83 450 51 450L31 450L34 470L124 470Q162 470 180 459.50Q198 449 202 430L207 430Z"  horiz-adv-x="789" vert-adv-y="1000"  />

      
      <glyph glyph-name="uni6e" unicode="&#x6e;" d="M42 0Q58 92 69 156Q80 220 87.50 262.50Q95 305 99 330Q103 355 105 368.50Q107 382 107.50 387Q108 392 108 395Q108 421 95.50 435.50Q83 450 51 450L31 450L34 470L124 470Q162 470 180 459.50Q198 449 202 430L207 430Q230 449 265.50 464.50Q301 480 346 480Q374 480 399.50 474.50Q425 469 445 454.50Q465 440 477 415Q489 390 489 352Q489 348 488.50 342.50Q488 337 486.50 324.50Q485 312 481.50 290Q478 268 471.50 230Q465 192 455.50 136Q446 80 432 0L342 0Q356 78 365.50 133Q375 188 381 224.50Q387 261 390.50 282.50Q394 304 395.50 315.50Q397 327 397.50 331.50Q398 336 398 339Q398 365 390.50 383.50Q383 402 370.50 413.50Q358 425 342 430Q326 435 308 435Q278 435 250 419Q222 403 199 382L132 0L42 0Z"  horiz-adv-x="549" vert-adv-y="1000"  />

      
      <glyph glyph-name="uni6f" unicode="&#x6f;" d="M221 30Q263 30 294.50 58.50Q326 87 346.50 128Q367 169 377.50 215Q388 261 388 297Q388 360 363.50 400Q339 440 293 440Q251 440 219.50 411.50Q188 383 167.50 342Q147 301 136.50 255Q126 209 126 173Q126 110 150.50 70Q175 30 221 30M32 179Q32 232 50.50 286Q69 340 104 383Q139 426 188.50 453Q238 480 300 480Q345 480 379 465.50Q413 451 436 426Q459 401 470.50 366Q482 331 482 291Q482 238 463.50 184Q445 130 410 87Q375 44 325.50 17Q276-10 214-10Q169-10 135 4.50Q101 19 78 44Q55 69 43.50 103.50Q32 138 32 179Z"  horiz-adv-x="529" vert-adv-y="1000"  />

      
      <glyph glyph-name="uni70" unicode="&#x70;" d="M142 60Q162 49 185.50 39.50Q209 30 232 30Q279 30 311.50 59.50Q344 89 363.50 132Q383 175 391.50 224.50Q400 274 400 313Q400 370 380 405Q360 440 314 440Q272 440 245 421.50Q218 403 199 380L142 60M8-190Q32-51 49 45.50Q66 142 77.50 206Q89 270 95 306.50Q101 343 104 361.50Q107 380 107.50 386Q108 392 108 395Q108 421 95.50 435.50Q83 450 51 450L31 450L34 470L124 470Q162 470 180 459Q198 448 201 425L206 425Q225 444 259.50 462Q294 480 351 480Q388 480 415 467Q442 454 460 430.50Q478 407 486.50 375Q495 343 495 305Q495 255 480.50 200Q466 145 436.50 98Q407 51 362 20.50Q317-10 255-10Q213-10 184-0.50Q155 9 135 20L98-190L8-190Z"  horiz-adv-x="543" vert-adv-y="1000"  />

      
      <glyph glyph-name="uni71" unicode="&#x71;" d="M380 380Q369 402 347.50 421Q326 440 285 440Q256 440 233 426Q210 412 192.50 389Q175 366 162.50 336Q150 306 142 275Q134 244 130.50 213.50Q127 183 127 159Q127 102 149 66Q171 30 223 30Q246 30 272 39.50Q298 49 323 60L380 380M316 20Q291 9 259.50-0.50Q228-10 186-10Q146-10 117 3Q88 16 69 39.50Q50 63 41 95Q32 127 32 165Q32 211 46 266.50Q60 322 88.50 369Q117 416 160 448Q203 480 262 480Q318 480 347 462Q376 444 387 425L392 425L435 470L485 470L369-190L279-190L316 20Z"  horiz-adv-x="524" vert-adv-y="1000"  />

      
      <glyph glyph-name="uni72" unicode="&#x72;" d="M36 0Q52 92 63 156Q74 220 81.50 262.50Q89 305 93 330Q97 355 99 368.50Q101 382 101.50 387Q102 392 102 395Q102 421 89.50 435.50Q77 450 45 450L35 450L38 470L118 470Q156 470 174 459Q192 448 195 425L200 425Q219 444 252 462Q285 480 330 480Q345 480 361 476.50Q377 473 387 465Q398 457 404 446Q410 435 415 420L369 390Q361 405 341 412.50Q321 420 295 420Q265 420 237.50 406.50Q210 393 191 370L126 0L36 0Z"  horiz-adv-x="403" vert-adv-y="1000"  />

      
      <glyph glyph-name="uni73" unicode="&#x73;" d="M380 144Q380 106 362.50 77.50Q345 49 316.50 29.50Q288 10 252.50 0Q217-10 180-10Q159-10 131-8Q103-6 77.50 2Q52 10 34.50 27.50Q17 45 17 75Q17 88 19.50 102.50Q22 117 25 135L45 135L45 133Q45 85 74.50 57.50Q104 30 167 30Q185 30 206 34Q227 38 246 47.50Q265 57 277.50 73Q290 89 290 113Q290 138 271.50 155.50Q253 173 215 190L159 215Q113 235 87 262.50Q61 290 61 329Q61 365 77.50 393Q94 421 121 440.50Q148 460 182 470Q216 480 251 480Q271 480 298 478Q325 476 349.50 467.50Q374 459 391 442.50Q408 426 408 397Q408 382 405.50 366.50Q403 351 401 335L381 335L381 337Q381 385 352.50 412.50Q324 440 264 440Q247 440 227.50 436Q208 432 191 422.50Q174 413 162.50 397.50Q151 382 151 360Q151 337 168 318Q185 299 217 285L272 260Q324 237 352 211Q380 185 380 144Z"  horiz-adv-x="449" vert-adv-y="1000"  />

      
      <glyph glyph-name="uni74" unicode="&#x74;" d="M46 430L53 470L123 470L139 560L200 620L240 620L213 470L333 470L326 430L206 430Q192 350 182.50 294Q173 238 166.50 201Q160 164 156.50 143Q153 122 151.50 111Q150 100 149.50 96Q149 92 149 90Q149 30 206 30Q232 30 250 36Q268 42 284 50L291 30Q274 19 243 4.50Q212-10 159-10Q114-10 86.50 13Q59 36 59 85Q59 89 60 98Q61 107 66.50 140.50Q72 174 83.50 241.50Q95 309 116 430L46 430Z"  horiz-adv-x="336" vert-adv-y="1000"  />

      
      <glyph glyph-name="uni75" unicode="&#x75;" d="M416 0L366 0L338 40L333 40Q310 21 274.50 5.50Q239-10 194-10Q166-10 140-4Q114 2 94 16.50Q74 31 62 56Q50 81 50 120Q50 126 51 134.50Q52 143 55.50 166Q59 189 66.50 232Q74 275 87 350Q92 378 92 395Q92 421 79.50 435.50Q67 450 35 450L25 450L28 470L108 470Q148 470 166 458Q184 446 184 409Q184 397 182 382.50Q180 368 177 350Q164 277 157 235.50Q150 194 146.50 172.50Q143 151 142.50 143.50Q142 136 142 132Q142 105 149.50 86.50Q157 68 169.50 56.50Q182 45 198 40Q214 35 232 35Q262 35 290 51Q318 67 341 88L408 470L498 470L416 0Z"  horiz-adv-x="537" vert-adv-y="1000"  />

      
      <glyph glyph-name="uni76" unicode="&#x76;" d="M262 140L460 470L510 470L221-10L201-10L110 355Q103 383 95.50 402Q88 421 78 433Q68 445 55 451Q42 457 24 458L28 478Q32 478 43.50 479Q55 480 62 480Q84 480 106.50 475Q129 470 148.50 456.50Q168 443 184 418.50Q200 394 210 355L262 140Z"  horiz-adv-x="498" vert-adv-y="1000"  />

      
      <glyph glyph-name="uni77" unicode="&#x77;" d="M523 145L710 470L760 470L481-10L461-10L390 300L211-10L191-10L110 355Q97 411 78.50 433.50Q60 456 23 458L27 478Q31 478 43 479Q55 480 62 480Q86 480 108.50 474.50Q131 469 149.50 455Q168 441 182.50 416.50Q197 392 205 355L253 145L376 360Q362 412 344.50 434Q327 456 293 458L297 478Q301 478 313 479Q325 480 332 480Q356 480 378.50 474.50Q401 469 419.50 455Q438 441 452.50 416.50Q467 392 475 355L523 145Z"  horiz-adv-x="749" vert-adv-y="1000"  />

      
      <glyph glyph-name="uni78" unicode="&#x78;" d="M202 185L40 0L-10 0L189 225L128 370Q98 442 39 450L42 470L127 470Q161 470 186 448.50Q211 427 226 390L270 285L432 470L482 470L283 245L344 100Q374 27 438 20L435 0L345 0Q311 0 286 21.50Q261 43 246 80L202 185Z"  horiz-adv-x="490" vert-adv-y="1000"  />

      
      <glyph glyph-name="uni79" unicode="&#x79;" d="M206-10L115 380Q106 418 81 437Q56 456 19 460L22 480L107 480Q152 480 178 459Q204 438 213 400L278 123L465 470L515 470L226-65Q204-106 183-132.50Q162-159 140.50-174Q119-189 96-194.50Q73-200 47-200L17-200L23-170Q45-170 65.50-165.50Q86-161 104.50-149.50Q123-138 141-117.50Q159-97 176-65L206-10Z"  horiz-adv-x="514" vert-adv-y="1000"  />

      
      <glyph glyph-name="uni7a" unicode="&#x7a;" d="M469 470L124 40L394 40L387 0L-3 0L0 19L332 430L217 430Q153 430 118.50 406Q84 382 76 340L56 340L65 390Q68 405 74 419.50Q80 434 91 445Q102 456 120 463Q138 470 164 470L469 470Z"  horiz-adv-x="468" vert-adv-y="1000"  />

      
      <glyph glyph-name="uni7b" unicode="&#x7b;" d="M6 255Q64 263 91.50 295.50Q119 328 127 370L151 510Q163 578 208.50 622.50Q254 667 348 690L343 660Q315 652 297 642.50Q279 633 267 620Q255 607 248.50 589.50Q242 572 238 550L209 380Q198 320 166 287.50Q134 255 79 240Q121 227 142 203Q163 179 163 137Q163 107 157 77Q151 47 144.50 17Q138-13 132-43.50Q126-74 126-105Q126-134 140.50-151Q155-168 195-180L189-210Q116-191 84-156Q52-121 52-69Q52-44 57-19Q62 6 68 31Q74 56 79 82.50Q84 109 84 137Q84 169 65.50 194Q47 219 1 225L6 255Z"  horiz-adv-x="304" vert-adv-y="1000"  />

      
      <glyph glyph-name="uni7c" unicode="&#x7c;" d="M237 680L84-190L-6-190L147 680L237 680Z"  horiz-adv-x="242" vert-adv-y="1000"  />

      
      <glyph glyph-name="uni7d" unicode="&#x7d;" d="M284 225Q226 217 199 184.50Q172 152 164 110L139-30Q127-98 82-142.50Q37-187-57-210L-51-180Q-24-173-6-163Q12-153 23.50-140Q35-127 41.50-110Q48-93 52-70L82 100Q93 160 124.50 192.50Q156 225 212 240Q170 253 149 276.50Q128 300 128 342Q128 372 134 402Q140 432 146.50 462Q153 492 159 523Q165 554 165 586Q165 614 149.50 631Q134 648 96 660L101 690Q174 671 206 635.50Q238 600 238 549Q238 523 233 497.50Q228 472 222.50 446.50Q217 421 212 395Q207 369 207 342Q207 310 225.50 285.50Q244 261 289 255L284 225Z"  horiz-adv-x="304" vert-adv-y="1000"  />

      
      <glyph glyph-name="uni7e" unicode="&#x7e;" d="M434 180Q396 180 363 192.50Q330 205 298.50 220Q267 235 237.50 247.50Q208 260 178 260Q140 260 115.50 240Q91 220 86 190L46 190Q53 227 68 254Q83 281 103 297.50Q123 314 145.50 322Q168 330 191 330Q228 330 261.50 317.50Q295 305 326.50 290Q358 275 387.50 262.50Q417 250 447 250Q485 250 509.50 270Q534 290 539 320L579 320Q572 282 557 255.50Q542 229 522 212.50Q502 196 479 188Q456 180 434 180Z"  horiz-adv-x="632" vert-adv-y="1000"  />

      
      <glyph glyph-name="unia1" unicode="&#xa1;" d="M75-194L-19-194L88 311L146 311L75-194M128 372Q108 372 95 385Q82 398 82 417Q82 429 87.50 440Q93 451 102 460Q111 469 123 474.50Q135 480 147 480Q167 480 179.50 467.50Q192 455 192 435Q192 423 187 412Q182 401 173 392Q164 383 152.50 377.50Q141 372 128 372Z"  horiz-adv-x="222" vert-adv-y="1000"  />

      
      <glyph glyph-name="unia2" unicode="&#xa2;" d="M323 520L316 480Q334 480 357.50 477.50Q381 475 401 466.50Q421 458 435 442.50Q449 427 449 402Q449 380 445 358.50Q441 337 437 315L417 315Q418 321 418 326.50Q418 332 418 337Q418 390 387.50 415Q357 440 309 440L237 30Q290 30 326.50 51Q363 72 396 110L413 95Q373 43 328.50 18.50Q284-6 230-10L223-50L183-50L190-10Q148-7 117.50 8Q87 23 66.50 48Q46 73 36.50 105Q27 137 27 175Q27 229 43.50 280.50Q60 332 91.50 373.50Q123 415 169.50 443.50Q216 472 276 480L283 520L323 520M268 435Q229 423 201.50 395Q174 367 156.50 330Q139 293 130.50 251Q122 209 122 171Q122 119 140.50 82.50Q159 46 198 35L268 435Z"  horiz-adv-x="485" vert-adv-y="1000"  />

      
      <glyph glyph-name="unia3" unicode="&#xa3;" d="M152 460Q164 527 185.50 568.50Q207 610 235.50 632.50Q264 655 297 662.50Q330 670 364 670Q384 670 411.50 668.50Q439 667 463.50 659Q488 651 505 635Q522 619 522 589Q522 578 520.50 567.50Q519 557 517 545L472 545Q469 594 444 612Q419 630 377 630Q354 630 333.50 623Q313 616 296 597.50Q279 579 265 545.50Q251 512 242 460L224 360L364 360L357 320L217 320L199 220Q187 148 165 105.50Q143 63 113 40L298 40Q358 40 395 67.50Q432 95 443 155L463 155L450 80Q447 65 441 50.50Q435 36 424 25Q413 14 395 7Q377 0 351 0L-14 0L-10 25Q12 31 30 43.50Q48 56 62.50 79Q77 102 88.50 136.50Q100 171 109 220L127 320L57 320L64 360L134 360L152 460Z"  horiz-adv-x="531" vert-adv-y="1000"  />

      
      <glyph glyph-name="unia4" unicode="&#xa4;" d="M304 330Q341 331 373.50 345Q406 359 430.50 383Q455 407 469 440Q483 473 483 513Q483 542 473 563Q463 584 445 598Q427 612 403 618.50Q379 625 351 625Q332 625 311 622Q290 619 274 615L224 330L304 330M461 200L201 200L166 0L76 0L111 200L51 200L58 240L118 240L127 290L67 290L74 330L134 330L171 540Q173 552 174 562.50Q175 573 175 583Q175 609 163 624.50Q151 640 118 640L98 640L102 660L362 660Q406 660 446 652.50Q486 645 516.50 628Q547 611 565 583Q583 555 583 515Q583 457 559 414.50Q535 372 495.50 344.50Q456 317 404 303.50Q352 290 297 290L217 290L208 240L468 240L461 200Z"  horiz-adv-x="577" vert-adv-y="1000"  />

      
      <glyph glyph-name="unia5" unicode="&#xa5;" d="M417 325L685 660L730 660L429 280L426 265L521 265L514 225L419 225L412 185L507 185L500 145L405 145L380 0L290 0L315 145L220 145L227 185L322 185L329 225L234 225L241 265L336 265L338 273L213 530Q202 552 190.50 571.50Q179 591 165 605.50Q151 620 132 629Q113 638 87 640L91 660L181 660Q209 660 229.50 650.50Q250 641 265 625.50Q280 610 291 590.50Q302 571 311 550L417 325Z"  horiz-adv-x="692" vert-adv-y="1000"  />

      
      <glyph glyph-name="unia6" unicode="&#xa6;" d="M240 680L179 330L89 330L150 680L240 680M149 160L87-190L-3-190L59 160L149 160Z"  horiz-adv-x="249" vert-adv-y="1000"  />

      
      <glyph glyph-name="unia7" unicode="&#xa7;" d="M314 630Q290 630 269 622.50Q248 615 231.50 600.50Q215 586 205.50 565.50Q196 545 196 519Q196 491 209.50 470Q223 449 243 432Q263 415 287 398.50Q311 382 331 364Q351 346 364.50 323Q378 300 378 269Q378 208 340 165Q302 122 244 100Q273 78 292.50 48.50Q312 19 312-22Q312-59 297.50-91.50Q283-124 258.50-148Q234-172 200-186Q166-200 127-200Q107-200 83.50-196.50Q60-193 39-184Q18-175 4-158.50Q-10-142-10-116Q-10-103-7.50-88.50Q-5-74-2-55L18-55L18-61Q18-108 41-134Q64-160 104-160Q128-160 149-152.50Q170-145 186.50-130.50Q203-116 212.50-95.50Q222-75 222-49Q222-21 208.50 0Q195 21 175 38Q155 55 131 71.50Q107 88 87 106Q67 124 53.50 147Q40 170 40 201Q40 261 78 304Q116 347 173 370Q144 391 125 421Q106 451 106 492Q106 529 120.50 561.50Q135 594 159.50 618Q184 642 218 656Q252 670 291 670Q310 670 334 666.50Q358 663 379 654Q400 645 414 628.50Q428 612 428 586Q428 573 425.50 558.50Q423 544 420 525L400 525L400 531Q400 578 377 604Q354 630 314 630M208 347Q173 337 147 309Q121 281 121 239Q121 204 145.50 176Q170 148 210 123Q246 134 271.50 162Q297 190 297 232Q297 267 272.50 294.50Q248 322 208 347Z"  horiz-adv-x="433" vert-adv-y="1000"  />

      
      <glyph glyph-name="unia8" unicode="&#xa8;" d="M381 750Q381 727 364 708.50Q347 690 321 690Q301 690 290 701Q279 712 279 730Q279 753 296 771.50Q313 790 339 790Q359 790 370 779Q381 768 381 750M211 750Q211 727 194 708.50Q177 690 151 690Q131 690 120 701Q109 712 109 730Q109 753 126 771.50Q143 790 169 790Q189 790 200 779Q211 768 211 750Z"  horiz-adv-x="310" vert-adv-y="1000"  />

      
      <glyph glyph-name="unia9" unicode="&#xa9;" d="M466 685Q534 685 589 664Q644 643 683 605.50Q722 568 743.50 515Q765 462 765 399Q765 318 732 241.50Q699 165 642 105.50Q585 46 507.50 10.50Q430-25 341-25Q273-25 218-4Q163 17 124 54.50Q85 92 64 145Q43 198 43 261Q43 342 75.50 418.50Q108 495 165 554.50Q222 614 299.50 649.50Q377 685 466 685M348 15Q424 15 492 45Q560 75 612 126Q664 177 694.50 246Q725 315 725 393Q725 450 706.50 496.50Q688 543 653.50 576Q619 609 569.50 627Q520 645 459 645Q382 645 314 615Q246 585 194.50 533.50Q143 482 113 412.50Q83 343 83 265Q83 209 101.50 163Q120 117 154.50 84Q189 51 238 33Q287 15 348 15M571 412Q570 476 542 506Q514 536 460 536Q411 536 374 512.50Q337 489 312 451.50Q287 414 274.50 368Q262 322 262 277Q262 248 269 221.50Q276 195 291.50 175Q307 155 331 143.50Q355 132 389 132Q438 132 477 155Q516 178 551 223L562 213Q520 152 471.50 128.50Q423 105 364 105Q324 105 293.50 118Q263 131 242 154Q221 177 210 208.50Q199 240 199 278Q199 324 217 374.50Q235 425 267.50 466.50Q300 508 345.50 535Q391 562 445 562Q464 562 489.50 558.50Q515 555 537.50 545.50Q560 536 576 519.50Q592 503 592 476Q592 462 590 447Q588 432 585 415Q585 414 584.50 413.50Q584 413 584 412L571 412Z"  horiz-adv-x="789" vert-adv-y="1000"  />

      
      <glyph glyph-name="uniaa" unicode="&#xaa;" d="M248 525L232 525Q217 525 200 521Q183 517 168.50 508.50Q154 500 144.50 486.50Q135 473 135 453Q135 435 145.50 426.50Q156 418 173 418Q193 418 209 429.50Q225 441 235 453L248 525M248 401L231 426Q220 415 200 405.50Q180 396 150 396Q140 396 128 398Q116 400 106 406Q96 412 89 423Q82 434 82 451Q82 479 97 497.50Q112 516 134.50 527Q157 538 184 542.50Q211 547 236 547L252 547Q256 567 256 586Q256 618 243.50 628Q231 638 212 638Q189 638 172.50 628.50Q156 619 145 593L120 593Q122 607 126 618.50Q130 630 143 641Q154 652 178 656Q202 660 226 660Q242 660 256.50 657Q271 654 282.50 646Q294 638 301 623Q308 608 308 584Q308 580 307 573.50Q306 567 303 548.50Q300 530 294 495.50Q288 461 278 401L248 401Z"  horiz-adv-x="321" vert-adv-y="1000"  />

      
      <glyph glyph-name="uniab" unicode="&#xab;" d="M293 370L333 370L247 225L282 80L242 80L167 225L293 370M127 225L188 30L148 30L27 225L217 420L257 420L127 225Z"  horiz-adv-x="375" vert-adv-y="1000"  />

      
      <glyph glyph-name="uniac" unicode="&#xac;" d="M520 230L60 230L71 290L591 290L562 130L502 130L520 230Z"  horiz-adv-x="656" vert-adv-y="1000"  />

      
      <glyph glyph-name="uniad" unicode="&#xad;" d="M71 300L326 300L314 230L59 230L71 300Z"  horiz-adv-x="389" vert-adv-y="1000"  />

      
      <glyph glyph-name="uniae" unicode="&#xae;" d="M466 685Q534 685 589 664Q644 643 683 605.50Q722 568 743.50 515Q765 462 765 399Q765 318 732 241.50Q699 165 642 105.50Q585 46 507.50 10.50Q430-25 341-25Q273-25 218-4Q163 17 124 54.50Q85 92 64 145Q43 198 43 261Q43 342 75.50 418.50Q108 495 165 554.50Q222 614 299.50 649.50Q377 685 466 685M348 15Q424 15 492 45Q560 75 612 126Q664 177 694.50 246Q725 315 725 393Q725 450 706.50 496.50Q688 543 653.50 576Q619 609 569.50 627Q520 645 459 645Q382 645 314 615Q246 585 194.50 533.50Q143 482 113 412.50Q83 343 83 265Q83 209 101.50 163Q120 117 154.50 84Q189 51 238 33Q287 15 348 15M387 345Q407 345 428 353Q449 361 466 375.50Q483 390 494 410Q505 430 505 454Q505 474 496.50 488.50Q488 503 475 512Q462 521 447 525.50Q432 530 420 530Q408 530 394 527.50Q380 525 370 523L340 352Q349 350 362 347.50Q375 345 387 345M382 323L334 323L300 125L242 125L303 474Q306 490 306 504Q306 521 298.50 530Q291 539 270 539L257 539L259 552L427 552Q446 552 471 549Q496 546 518 536Q540 526 555 507.50Q570 489 570 458Q570 404 535 370.50Q500 337 446 327L498 211Q516 171 531 155.50Q546 140 570 137L568 125Q563 122 550.50 120Q538 118 524 118Q508 118 495.50 122.50Q483 127 472.50 138Q462 149 451.50 167Q441 185 430 211L382 323Z"  horiz-adv-x="789" vert-adv-y="1000"  />

      
      <glyph glyph-name="unib0" unicode="&#xb0;" d="M267 625Q244 625 222 615Q200 605 183 587.50Q166 570 156 547.50Q146 525 146 501Q146 463 169.50 439Q193 415 230 415Q254 415 275.50 425.50Q297 436 313.50 453.50Q330 471 340 493.50Q350 516 350 541Q350 578 326.50 601.50Q303 625 267 625M276 680Q306 680 331 670Q356 660 373.50 642.50Q391 625 401 601Q411 577 411 549Q411 513 396 479Q381 445 354.50 418.50Q328 392 293.50 376Q259 360 220 360Q190 360 165 370Q140 380 122.50 397.50Q105 415 95 439Q85 463 85 491Q85 527 100 561Q115 595 141.50 621.50Q168 648 202.50 664Q237 680 276 680Z"  horiz-adv-x="412" vert-adv-y="1000"  />

      
      <glyph glyph-name="unib1" unicode="&#xb1;" d="M21 60L32 120L232 120L263 300L63 300L74 360L274 360L309 560L369 560L334 360L534 360L523 300L323 300L292 120L492 120L481 60L21 60Z"  horiz-adv-x="575" vert-adv-y="1000"  />

      
      <glyph glyph-name="unib2" unicode="&#xb2;" d="M213 399Q241 399 257 409Q273 419 278 443L290 443L284 413Q282 399 272.50 388Q263 377 239 377L78 377L82 400Q103 418 134 441.50Q165 465 194 493.50Q223 522 243.50 554Q264 586 264 620Q264 645 251 656Q238 667 218 667Q190 667 168 649Q146 631 132 593L120 593Q123 610 127 626Q131 642 142 653Q157 668 182.50 678.50Q208 689 235 689Q247 689 261.50 686.50Q276 684 288 677Q300 670 308 657Q316 644 316 623Q316 587 296 555.50Q276 524 246 496Q216 468 182.50 444Q149 420 122 399L213 399Z"  horiz-adv-x="322" vert-adv-y="1000"  />

      
      <glyph glyph-name="unib3" unicode="&#xb3;" d="M167 547Q180 550 192 550.50Q204 551 209 551Q223 551 238.50 547.50Q254 544 266.50 535.50Q279 527 287.50 513.50Q296 500 296 480Q296 454 285 433Q274 412 256 397.50Q238 383 214 375Q190 367 165 367Q130 367 110 380Q90 393 76 416L87 425Q114 389 165 389Q198 389 220.50 415.50Q243 442 243 478Q243 505 228.50 517Q214 529 196 529Q185 529 170.50 528Q156 527 142 523L132 547L275 658L191 658Q164 658 147 648Q130 638 126 613L117 613L122 643Q124 657 133.50 668.50Q143 680 167 680L318 680L315 662L167 547Z"  horiz-adv-x="312" vert-adv-y="1000"  />

      
      <glyph glyph-name="unib4" unicode="&#xb4;" d="M143 700L103 700L166 830L261 830L143 700Z"  horiz-adv-x="175" vert-adv-y="1000"  />

      
      <glyph glyph-name="unib5" unicode="&#xb5;" d="M-8-190L108 470L198 470L157 235Q153 214 151.50 194.50Q150 175 150 157Q150 100 170 65Q190 30 236 30Q278 30 305 48.50Q332 67 351 90L418 470L508 470L426 0L376 0L348 45L343 45Q325 26 296.50 8Q268-10 219-10Q158-10 122 35L82-190L-8-190Z"  horiz-adv-x="531" vert-adv-y="1000"  />

      
      <glyph glyph-name="unib6" unicode="&#xb6;" d="M261 290Q217 290 180 300.50Q143 311 116.50 330.50Q90 350 75 378.50Q60 407 60 443Q60 493 83 533Q106 573 143.50 601.50Q181 630 228.50 645Q276 660 326 660L626 660L619 620L564 620L421-190L331-190L474 620L409 620L266-190L176-190L261 290Z"  horiz-adv-x="603" vert-adv-y="1000"  />

      
      <glyph glyph-name="unib7" unicode="&#xb7;" d="M133 385Q154 385 166.50 372Q179 359 179 340Q179 316 159.50 296Q140 276 114 276Q94 276 81.50 288.50Q69 301 69 321Q69 333 74 344.50Q79 356 88 365Q97 374 108.50 379.50Q120 385 133 385Z"  horiz-adv-x="232" vert-adv-y="1000"  />

      
      <glyph glyph-name="unib8" unicode="&#xb8;" d="M50 0L41-50L51-50Q81-50 100-64.50Q119-79 119-108Q119-146 92-171Q65-196 25-196L-35-196L-28-155L22-155Q40-155 54.50-145Q69-135 69-115Q69-90 34-90L-11-90L5 0L50 0Z"  horiz-adv-x="180" vert-adv-y="1000"  />

      
      <glyph glyph-name="unib9" unicode="&#xb9;" d="M158 377L106 377L150 624L104 600L96 616L172 680L211 680L158 377Z"  horiz-adv-x="211" vert-adv-y="1000"  />

      
      <glyph glyph-name="uniba" unicode="&#xba;" d="M235 667Q214 667 197 647Q180 627 167.50 597Q155 567 148 530.50Q141 494 141 461Q141 389 186 389Q207 389 225 408.50Q243 428 255.50 458Q268 488 275 524.50Q282 561 282 594Q282 667 235 667M239 689Q287 689 309.50 660.50Q332 632 332 581Q332 541 322 502.50Q312 464 293 434Q274 404 246 385.50Q218 367 182 367Q134 367 112.50 395.50Q91 424 91 474Q91 514 100.50 552.50Q110 591 129 621.50Q148 652 175.50 670.50Q203 689 239 689Z"  horiz-adv-x="336" vert-adv-y="1000"  />

      
      <glyph glyph-name="unibb" unicode="&#xbb;" d="M189 225L64 80L24 80L109 225L75 370L115 370L189 225M169 420L209 420L329 225L140 30L100 30L229 225L169 420Z"  horiz-adv-x="375" vert-adv-y="1000"  />

      
      <glyph glyph-name="unibc" unicode="&#xbc;" d="M-19 0L552 660L617 660L46 0L-19 0M176 377L124 377L168 624L122 600L114 616L190 680L229 680L176 377M481 100L522 100L518 78L477 78L464 0L412 0L425 78L273 78L277 97L470 304L517 304L481 100M429 100L456 255L311 100L429 100Z"  horiz-adv-x="597" vert-adv-y="1000"  />

      
      <glyph glyph-name="unibd" unicode="&#xbd;" d="M-19 0L552 660L617 660L46 0L-19 0M176 377L124 377L168 624L122 600L114 616L190 680L229 680L176 377M449 22Q477 22 493 32Q509 42 514 66L526 66L521 36Q519 22 509.50 11Q500 0 476 0L315 0L319 23Q361 62 395 89Q429 116 452 139.50Q475 163 487.50 187Q500 211 500 244Q500 268 487.50 279Q475 290 455 290Q427 290 404.50 272Q382 254 369 216L357 216Q360 233 364 249Q368 265 378 276Q394 291 419.50 301.50Q445 312 472 312Q484 312 498 309.50Q512 307 524 299.50Q536 292 544 279.50Q552 267 552 246Q552 210 536 183Q520 156 493 131Q466 106 431 80.50Q396 55 358 22L449 22Z"  horiz-adv-x="613" vert-adv-y="1000"  />

      
      <glyph glyph-name="unibe" unicode="&#xbe;" d="M10 0L581 660L646 660L75 0L10 0M499 100L540 100L536 78L495 78L482 0L430 0L443 78L291 78L295 97L488 304L535 304L499 100M447 100L474 255L329 100L447 100M158 547Q171 550 183 550.50Q195 551 200 551Q214 551 229.50 547.50Q245 544 257.50 535.50Q270 527 278.50 513.50Q287 500 287 480Q287 446 272.50 424Q258 402 237.50 389.50Q217 377 194.50 372Q172 367 156 367Q121 367 101 380Q81 393 67 416L78 425Q105 389 156 389Q186 389 210 413Q234 437 234 478Q234 505 219.50 517Q205 529 187 529Q176 529 161.50 528Q147 527 133 523L123 547L266 658L182 658Q155 658 138 648Q121 638 117 613L108 613L113 643Q115 657 124.50 668.50Q134 680 158 680L309 680L306 662L158 547Z"  horiz-adv-x="617" vert-adv-y="1000"  />

      
      <glyph glyph-name="unibf" unicode="&#xbf;" d="M278 372Q258 372 245 384Q232 396 232 416Q232 442 251.50 461.50Q271 481 297 481Q318 481 330.50 468Q343 455 343 436Q343 410 323 391Q303 372 278 372M288 312Q279 271 259.50 239Q240 207 216 179.50Q192 152 167 126.50Q142 101 121.50 73Q101 45 88 13Q75-19 75-60Q75-116 106-144Q137-172 182-172Q242-172 295.50-128.50Q349-85 378-2L398-2Q398-15 394.50-33Q391-51 384.50-69.50Q378-88 369-105Q360-122 350-132Q333-149 310.50-163.50Q288-178 261-188.50Q234-199 204.50-205.50Q175-212 145-212Q118-212 88-206.50Q58-201 32.50-185Q7-169-9.50-141.50Q-26-114-26-69Q-26-17-9.50 20.50Q7 58 33 86.50Q59 115 91 139Q123 163 153 188Q183 213 208.50 242Q234 271 248 312L288 312Z"  horiz-adv-x="478" vert-adv-y="1000"  />

      
      <glyph glyph-name="unic0" unicode="&#xc0;" d="M617 0Q599-5 576-5Q559-5 537.50-1Q516 3 495 16.50Q474 30 456 56Q438 82 429 125L415 190L135 190L22 0L-23 0L373 660L403 660L529 125Q535 97 542.50 77.50Q550 58 560.50 46Q571 34 585.50 28Q600 22 620 20L617 0M157 230L402 230L333 520L157 230M303 830L398 830L415 700L375 700L303 830Z"  horiz-adv-x="634" vert-adv-y="1000"  />

      
      <glyph glyph-name="unic1" unicode="&#xc1;" d="M617 0Q599-5 576-5Q559-5 537.50-1Q516 3 495 16.50Q474 30 456 56Q438 82 429 125L415 190L135 190L22 0L-23 0L373 660L403 660L529 125Q535 97 542.50 77.50Q550 58 560.50 46Q571 34 585.50 28Q600 22 620 20L617 0M157 230L402 230L333 520L157 230M420 700L380 700L443 830L538 830L420 700Z"  horiz-adv-x="634" vert-adv-y="1000"  />

      
      <glyph glyph-name="unic2" unicode="&#xc2;" d="M617 0Q599-5 576-5Q559-5 537.50-1Q516 3 495 16.50Q474 30 456 56Q438 82 429 125L415 190L135 190L22 0L-23 0L373 660L403 660L529 125Q535 97 542.50 77.50Q550 58 560.50 46Q571 34 585.50 28Q600 22 620 20L617 0M157 230L402 230L333 520L157 230M406 765L307 685L257 685L357 800L467 800L527 685L477 685L406 765Z"  horiz-adv-x="634" vert-adv-y="1000"  />

      
      <glyph glyph-name="unic3" unicode="&#xc3;" d="M617 0Q599-5 576-5Q559-5 537.50-1Q516 3 495 16.50Q474 30 456 56Q438 82 429 125L415 190L135 190L22 0L-23 0L373 660L403 660L529 125Q535 97 542.50 77.50Q550 58 560.50 46Q571 34 585.50 28Q600 22 620 20L617 0M157 230L402 230L333 520L157 230M287 700Q297 753 315.50 774Q334 795 364 795Q380 795 392 788.50Q404 782 414.50 774.50Q425 767 436 761Q447 755 462 755Q468 755 474 759Q480 763 485.50 769Q491 775 494.50 782Q498 789 499 795L529 795Q520 742 501 721Q482 700 452 700Q436 700 424.50 706Q413 712 402.50 719.50Q392 727 380.50 733.50Q369 740 354 740Q348 740 342 736Q336 732 331 726Q326 720 322 713Q318 706 317 700L287 700Z"  horiz-adv-x="634" vert-adv-y="1000"  />

      
      <glyph glyph-name="unic4" unicode="&#xc4;" d="M617 0Q599-5 576-5Q559-5 537.50-1Q516 3 495 16.50Q474 30 456 56Q438 82 429 125L415 190L135 190L22 0L-23 0L373 660L403 660L529 125Q535 97 542.50 77.50Q550 58 560.50 46Q571 34 585.50 28Q600 22 620 20L617 0M157 230L402 230L333 520L157 230M538 750Q538 727 521 708.50Q504 690 478 690Q458 690 447 701Q436 712 436 730Q436 753 453 771.50Q470 790 496 790Q516 790 527 779Q538 768 538 750M368 750Q368 727 351 708.50Q334 690 308 690Q288 690 277 701Q266 712 266 730Q266 753 283 771.50Q300 790 326 790Q346 790 357 779Q368 768 368 750Z"  horiz-adv-x="634" vert-adv-y="1000"  />

      
      <glyph glyph-name="unic5" unicode="&#xc5;" d="M309 688Q309 707 317.50 725Q326 743 340 757.50Q354 772 372.50 781Q391 790 411 790Q441 790 461.50 768.50Q482 747 482 718Q482 687 462 663Q442 639 412 625L529 125Q535 97 542.50 77.50Q550 58 560.50 46Q571 34 585.50 28Q600 22 620 20L617 0Q599-5 576-5Q559-5 537.50-1Q516 3 495 16.50Q474 30 456 56Q438 82 429 125L415 190L135 190L22 0L-23 0L352 625Q336 632 322.50 647Q309 662 309 688M157 230L402 230L333 520L157 230M405 755Q383 755 366.50 737Q350 719 350 695Q350 673 368 660L408 660Q422 668 432 682.50Q442 697 442 716Q442 734 432 744.50Q422 755 405 755Z"  horiz-adv-x="634" vert-adv-y="1000"  />

      
      <glyph glyph-name="unic6" unicode="&#xc6;" d="M789 660Q832 660 847 643Q862 626 862 602Q862 599 861.50 595Q861 591 859.50 581.50Q858 572 855 554Q852 536 847 505L827 505Q830 521 830 535Q830 580 802 600Q774 620 722 620L536 620L490 360L760 360L753 320L483 320L434 40L609 40Q677 40 721 65Q765 90 798 150L817 145L765 50Q753 27 732.50 13.50Q712 0 682 0L429 0L337 0L370 190L130 190L-8 0L-58 0L428 660L789 660M162 230L377 230L445 615L162 230Z"  horiz-adv-x="870" vert-adv-y="1000"  />

      
      <glyph glyph-name="unic7" unicode="&#xc7;" d="M241-196L248-155L298-155Q316-155 330.50-145Q345-135 345-115Q345-90 310-90L265-90L277-20Q221-17 178 4.50Q135 26 105.50 61Q76 96 60.50 143Q45 190 45 245Q45 317 73.50 393.50Q102 470 152.50 534Q203 598 272.50 639Q342 680 425 680Q454 680 493 674.50Q532 669 567.50 655Q603 641 627.50 615.50Q652 590 652 550Q652 525 648 500.50Q644 476 640 450L620 450Q618 548 574.50 594Q531 640 448 640Q371 640 314.50 604Q258 568 220 510.50Q182 453 163.50 382Q145 311 145 241Q145 196 155.50 156Q166 116 189.50 86Q213 56 249.50 38Q286 20 339 20Q414 20 474.50 56Q535 92 589 160L606 145Q575 101 542.50 70.50Q510 40 474.50 20.50Q439 1 401.50-8.50Q364-18 322-20L317-50L327-50Q357-50 376-64.50Q395-79 395-108Q395-147 368-170.50Q341-194 301-196L241-196Z"  horiz-adv-x="666" vert-adv-y="1000"  />

      
      <glyph glyph-name="unic8" unicode="&#xc8;" d="M512 660Q555 660 570 643Q585 626 585 602Q585 599 584.50 595Q584 591 582.50 581.50Q581 572 578 554Q575 536 570 505L550 505Q553 521 553 535Q553 580 525 600Q497 620 445 620L259 620L213 360L483 360L476 320L206 320L157 40L332 40Q400 40 444 65Q488 90 521 150L540 145L488 50Q476 27 455.50 13.50Q435 0 405 0L150 0L60 0Q84 139 101 235.50Q118 332 129 395.50Q140 459 146 495Q152 531 155 549.50Q158 568 158.50 574Q159 580 159 583Q159 609 147 624.50Q135 640 102 640L82 640L86 660L512 660M296 830L391 830L408 700L368 700L296 830Z"  horiz-adv-x="593" vert-adv-y="1000"  />

      
      <glyph glyph-name="unic9" unicode="&#xc9;" d="M512 660Q555 660 570 643Q585 626 585 602Q585 599 584.50 595Q584 591 582.50 581.50Q581 572 578 554Q575 536 570 505L550 505Q553 521 553 535Q553 580 525 600Q497 620 445 620L259 620L213 360L483 360L476 320L206 320L157 40L332 40Q400 40 444 65Q488 90 521 150L540 145L488 50Q476 27 455.50 13.50Q435 0 405 0L150 0L60 0Q84 139 101 235.50Q118 332 129 395.50Q140 459 146 495Q152 531 155 549.50Q158 568 158.50 574Q159 580 159 583Q159 609 147 624.50Q135 640 102 640L82 640L86 660L512 660M393 700L353 700L416 830L511 830L393 700Z"  horiz-adv-x="593" vert-adv-y="1000"  />

      
      <glyph glyph-name="unica" unicode="&#xca;" d="M512 660Q555 660 570 643Q585 626 585 602Q585 599 584.50 595Q584 591 582.50 581.50Q581 572 578 554Q575 536 570 505L550 505Q553 521 553 535Q553 580 525 600Q497 620 445 620L259 620L213 360L483 360L476 320L206 320L157 40L332 40Q400 40 444 65Q488 90 521 150L540 145L488 50Q476 27 455.50 13.50Q435 0 405 0L150 0L60 0Q84 139 101 235.50Q118 332 129 395.50Q140 459 146 495Q152 531 155 549.50Q158 568 158.50 574Q159 580 159 583Q159 609 147 624.50Q135 640 102 640L82 640L86 660L512 660M396 801L297 721L247 721L347 836L457 836L517 721L467 721L396 801Z"  horiz-adv-x="593" vert-adv-y="1000"  />

      
      <glyph glyph-name="unicb" unicode="&#xcb;" d="M512 660Q555 660 570 643Q585 626 585 602Q585 599 584.50 595Q584 591 582.50 581.50Q581 572 578 554Q575 536 570 505L550 505Q553 521 553 535Q553 580 525 600Q497 620 445 620L259 620L213 360L483 360L476 320L206 320L157 40L332 40Q400 40 444 65Q488 90 521 150L540 145L488 50Q476 27 455.50 13.50Q435 0 405 0L150 0L60 0Q84 139 101 235.50Q118 332 129 395.50Q140 459 146 495Q152 531 155 549.50Q158 568 158.50 574Q159 580 159 583Q159 609 147 624.50Q135 640 102 640L82 640L86 660L512 660M519 790Q519 767 502 748.50Q485 730 459 730Q439 730 428 741Q417 752 417 770Q417 793 434 811.50Q451 830 477 830Q497 830 508 819Q519 808 519 790M349 790Q349 767 332 748.50Q315 730 289 730Q269 730 258 741Q247 752 247 770Q247 793 264 811.50Q281 830 307 830Q327 830 338 819Q349 808 349 790Z"  horiz-adv-x="593" vert-adv-y="1000"  />

      
      <glyph glyph-name="unicc" unicode="&#xcc;" d="M158 660L248 660L153 120Q148 92 148 75Q148 49 160.50 34.50Q173 20 205 20L225 20L222 0L132 0Q92 0 74 12Q56 24 56 61Q56 73 58 87.50Q60 102 63 120L158 660M129 830L224 830L241 700L201 700L129 830Z"  horiz-adv-x="289" vert-adv-y="1000"  />

      
      <glyph glyph-name="unicd" unicode="&#xcd;" d="M158 660L248 660L153 120Q148 92 148 75Q148 49 160.50 34.50Q173 20 205 20L225 20L222 0L132 0Q92 0 74 12Q56 24 56 61Q56 73 58 87.50Q60 102 63 120L158 660M225 700L185 700L248 830L343 830L225 700Z"  horiz-adv-x="289" vert-adv-y="1000"  />

      
      <glyph glyph-name="unice" unicode="&#xce;" d="M158 660L248 660L153 120Q148 92 148 75Q148 49 160.50 34.50Q173 20 205 20L225 20L222 0L132 0Q92 0 74 12Q56 24 56 61Q56 73 58 87.50Q60 102 63 120L158 660M224 775L125 695L75 695L175 810L285 810L345 695L295 695L224 775Z"  horiz-adv-x="289" vert-adv-y="1000"  />

      
      <glyph glyph-name="unicf" unicode="&#xcf;" d="M158 660L248 660L153 120Q148 92 148 75Q148 49 160.50 34.50Q173 20 205 20L225 20L222 0L132 0Q92 0 74 12Q56 24 56 61Q56 73 58 87.50Q60 102 63 120L158 660M349 777Q349 753 333 734Q317 715 290 715Q270 715 258.50 726Q247 737 247 755Q247 778 264 796.50Q281 815 307 815Q327 815 338 804.50Q349 794 349 777M195 777Q195 753 179 734Q163 715 136 715Q116 715 104.50 726Q93 737 93 755Q93 778 110 796.50Q127 815 153 815Q173 815 184 804.50Q195 794 195 777Z"  horiz-adv-x="289" vert-adv-y="1000"  />

      
      <glyph glyph-name="unid0" unicode="&#xd0;" d="M45 350L120 350L154 540Q156 552 157 562.50Q158 573 158 583Q158 609 146 624.50Q134 640 101 640L81 640L85 660L347 660Q434 660 498 642.50Q562 625 604.50 592Q647 559 668 511.50Q689 464 689 405Q689 318 656.50 243.50Q624 169 566.50 115Q509 61 429.50 30.50Q350 0 257 0L153 0L59 0L113 310L38 310L45 350M213 350L300 350L293 310L206 310L160 48Q189 41 214.50 38Q240 35 260 35Q330 35 389 66Q448 97 490 148Q532 199 555.50 264.50Q579 330 579 398Q579 450 564 492Q549 534 520.50 563.50Q492 593 452 609Q412 625 362 625Q340 625 314 621Q288 617 259 609L213 350Z"  horiz-adv-x="716" vert-adv-y="1000"  />

      
      <glyph glyph-name="unid1" unicode="&#xd1;" d="M62 0Q86 138 103 233Q120 328 130.50 391Q141 454 147 489Q153 524 156 541.50Q159 559 159.50 564Q160 569 160 572Q160 604 143.50 622Q127 640 84 640L74 640L78 660L143 660Q192 660 221 644Q250 628 267 600L541 165L628 660L668 660L550-10L530-10L194 525L102 0L62 0M311 694Q321 747 339.50 768Q358 789 388 789Q404 789 416 782.50Q428 776 438.50 768.50Q449 761 460 755Q471 749 486 749Q492 749 498 753Q504 757 509.50 763Q515 769 518.50 776Q522 783 523 789L553 789Q544 736 525 715Q506 694 476 694Q460 694 448.50 700Q437 706 426.50 713.50Q416 721 404.50 727.50Q393 734 378 734Q372 734 366 730Q360 726 355 720Q350 714 346 707Q342 700 341 694L311 694Z"  horiz-adv-x="687" vert-adv-y="1000"  />

      
      <glyph glyph-name="unid2" unicode="&#xd2;" d="M310 20Q358 20 396.50 39Q435 58 465.50 89.50Q496 121 518.50 162.50Q541 204 555.50 249.50Q570 295 577 340.50Q584 386 584 427Q584 527 541.50 583.50Q499 640 419 640Q371 640 332 621Q293 602 263 570.50Q233 539 210.50 497Q188 455 174 409.50Q160 364 153 318Q146 272 146 231Q146 131 188 75.50Q230 20 310 20M48 251Q48 326 74.50 402Q101 478 150 540Q199 602 269 641Q339 680 426 680Q487 680 535 659.50Q583 639 615.50 602.50Q648 566 665 516Q682 466 682 407Q682 332 655.50 256Q629 180 579.50 118.50Q530 57 460 18.50Q390-20 303-20Q241-20 193.50 0.50Q146 21 114 57Q82 93 65 142.50Q48 192 48 251M347 854L442 854L459 724L419 724L347 854Z"  horiz-adv-x="712" vert-adv-y="1000"  />

      
      <glyph glyph-name="unid3" unicode="&#xd3;" d="M310 20Q358 20 396.50 39Q435 58 465.50 89.50Q496 121 518.50 162.50Q541 204 555.50 249.50Q570 295 577 340.50Q584 386 584 427Q584 527 541.50 583.50Q499 640 419 640Q371 640 332 621Q293 602 263 570.50Q233 539 210.50 497Q188 455 174 409.50Q160 364 153 318Q146 272 146 231Q146 131 188 75.50Q230 20 310 20M48 251Q48 326 74.50 402Q101 478 150 540Q199 602 269 641Q339 680 426 680Q487 680 535 659.50Q583 639 615.50 602.50Q648 566 665 516Q682 466 682 407Q682 332 655.50 256Q629 180 579.50 118.50Q530 57 460 18.50Q390-20 303-20Q241-20 193.50 0.50Q146 21 114 57Q82 93 65 142.50Q48 192 48 251M452 720L412 720L475 850L570 850L452 720Z"  horiz-adv-x="712" vert-adv-y="1000"  />

      
      <glyph glyph-name="unid4" unicode="&#xd4;" d="M310 20Q358 20 396.50 39Q435 58 465.50 89.50Q496 121 518.50 162.50Q541 204 555.50 249.50Q570 295 577 340.50Q584 386 584 427Q584 527 541.50 583.50Q499 640 419 640Q371 640 332 621Q293 602 263 570.50Q233 539 210.50 497Q188 455 174 409.50Q160 364 153 318Q146 272 146 231Q146 131 188 75.50Q230 20 310 20M48 251Q48 326 74.50 402Q101 478 150 540Q199 602 269 641Q339 680 426 680Q487 680 535 659.50Q583 639 615.50 602.50Q648 566 665 516Q682 466 682 407Q682 332 655.50 256Q629 180 579.50 118.50Q530 57 460 18.50Q390-20 303-20Q241-20 193.50 0.50Q146 21 114 57Q82 93 65 142.50Q48 192 48 251M442 800L343 720L293 720L393 835L503 835L563 720L513 720L442 800Z"  horiz-adv-x="712" vert-adv-y="1000"  />

      
      <glyph glyph-name="unid5" unicode="&#xd5;" d="M310 20Q358 20 396.50 39Q435 58 465.50 89.50Q496 121 518.50 162.50Q541 204 555.50 249.50Q570 295 577 340.50Q584 386 584 427Q584 527 541.50 583.50Q499 640 419 640Q371 640 332 621Q293 602 263 570.50Q233 539 210.50 497Q188 455 174 409.50Q160 364 153 318Q146 272 146 231Q146 131 188 75.50Q230 20 310 20M48 251Q48 326 74.50 402Q101 478 150 540Q199 602 269 641Q339 680 426 680Q487 680 535 659.50Q583 639 615.50 602.50Q648 566 665 516Q682 466 682 407Q682 332 655.50 256Q629 180 579.50 118.50Q530 57 460 18.50Q390-20 303-20Q241-20 193.50 0.50Q146 21 114 57Q82 93 65 142.50Q48 192 48 251M323 738Q333 791 351.50 812Q370 833 400 833Q416 833 428 826.50Q440 820 450.50 812.50Q461 805 472 799Q483 793 498 793Q504 793 510 797Q516 801 521.50 807Q527 813 530.50 820Q534 827 535 833L565 833Q556 780 537 759Q518 738 488 738Q472 738 460.50 744Q449 750 438.50 757.50Q428 765 416.50 771.50Q405 778 390 778Q384 778 378 774Q372 770 367 764Q362 758 358 751Q354 744 353 738L323 738Z"  horiz-adv-x="712" vert-adv-y="1000"  />

      
      <glyph glyph-name="unid6" unicode="&#xd6;" d="M310 20Q358 20 396.50 39Q435 58 465.50 89.50Q496 121 518.50 162.50Q541 204 555.50 249.50Q570 295 577 340.50Q584 386 584 427Q584 527 541.50 583.50Q499 640 419 640Q371 640 332 621Q293 602 263 570.50Q233 539 210.50 497Q188 455 174 409.50Q160 364 153 318Q146 272 146 231Q146 131 188 75.50Q230 20 310 20M48 251Q48 326 74.50 402Q101 478 150 540Q199 602 269 641Q339 680 426 680Q487 680 535 659.50Q583 639 615.50 602.50Q648 566 665 516Q682 466 682 407Q682 332 655.50 256Q629 180 579.50 118.50Q530 57 460 18.50Q390-20 303-20Q241-20 193.50 0.50Q146 21 114 57Q82 93 65 142.50Q48 192 48 251M581 795Q581 772 564 753.50Q547 735 521 735Q501 735 490 746Q479 757 479 775Q479 798 496 816.50Q513 835 539 835Q559 835 570 824Q581 813 581 795M411 795Q411 772 394 753.50Q377 735 351 735Q331 735 320 746Q309 757 309 775Q309 798 326 816.50Q343 835 369 835Q389 835 400 824Q411 813 411 795Z"  horiz-adv-x="712" vert-adv-y="1000"  />

      
      <glyph glyph-name="unid7" unicode="&#xd7;" d="M237 291L71 149L36 192L202 333L86 475L136 517L253 375L419 517L453 474L287 333L403 191L354 149L237 291Z"  horiz-adv-x="471" vert-adv-y="1000"  />

      
      <glyph glyph-name="unid8" unicode="&#xd8;" d="M73-20L122 48Q86 85 67 136.50Q48 188 48 251Q48 326 74.50 402Q101 478 150 540Q199 602 269 641Q339 680 426 680Q464 680 496 672Q528 664 555 650L577 680L650 680L603 615Q641 578 661.50 525Q682 472 682 407Q682 332 655.50 256Q629 180 579.50 118.50Q530 57 460 18.50Q390-20 303-20Q225-20 169 12L146-20L73-20M310 20Q357 20 396 39Q435 58 465.50 89.50Q496 121 518.50 162Q541 203 555.50 248Q570 293 577 339Q584 385 584 426Q584 501 559 554L203 59Q245 20 310 20M419 640Q371 640 332 621Q293 602 262.50 570Q232 538 210 496Q188 454 173.50 408Q159 362 152 316Q145 270 145 229Q145 161 167 111L522 604Q481 640 419 640Z"  horiz-adv-x="712" vert-adv-y="1000"  />

      
      <glyph glyph-name="unid9" unicode="&#xd9;" d="M144 540Q146 552 147 562.50Q148 573 148 583Q148 609 136 624.50Q124 640 91 640L71 640L75 660L165 660Q205 660 223 648Q241 636 241 599Q241 587 239 572.50Q237 558 234 540L183 255Q179 233 177 214Q175 195 175 177Q175 107 208.50 68.50Q242 30 321 30Q378 30 419.50 45Q461 60 490.50 91.50Q520 123 538.50 171Q557 219 569 285L635 660L675 660L609 285Q596 212 575 156.50Q554 101 519 64Q484 27 431.50 8.50Q379-10 302-10Q186-10 137 37Q88 84 88 177Q88 201 91 228Q94 255 99 285L144 540M361 810L456 810L473 680L433 680L361 810Z"  horiz-adv-x="687" vert-adv-y="1000"  />

      
      <glyph glyph-name="unida" unicode="&#xda;" d="M144 540Q146 552 147 562.50Q148 573 148 583Q148 609 136 624.50Q124 640 91 640L71 640L75 660L165 660Q205 660 223 648Q241 636 241 599Q241 587 239 572.50Q237 558 234 540L183 255Q179 233 177 214Q175 195 175 177Q175 107 208.50 68.50Q242 30 321 30Q378 30 419.50 45Q461 60 490.50 91.50Q520 123 538.50 171Q557 219 569 285L635 660L675 660L609 285Q596 212 575 156.50Q554 101 519 64Q484 27 431.50 8.50Q379-10 302-10Q186-10 137 37Q88 84 88 177Q88 201 91 228Q94 255 99 285L144 540M438 681L398 681L461 811L556 811L438 681Z"  horiz-adv-x="687" vert-adv-y="1000"  />

      
      <glyph glyph-name="unidb" unicode="&#xdb;" d="M144 540Q146 552 147 562.50Q148 573 148 583Q148 609 136 624.50Q124 640 91 640L71 640L75 660L165 660Q205 660 223 648Q241 636 241 599Q241 587 239 572.50Q237 558 234 540L183 255Q179 233 177 214Q175 195 175 177Q175 107 208.50 68.50Q242 30 321 30Q378 30 419.50 45Q461 60 490.50 91.50Q520 123 538.50 171Q557 219 569 285L635 660L675 660L609 285Q596 212 575 156.50Q554 101 519 64Q484 27 431.50 8.50Q379-10 302-10Q186-10 137 37Q88 84 88 177Q88 201 91 228Q94 255 99 285L144 540M456 751L357 671L307 671L407 786L517 786L577 671L527 671L456 751Z"  horiz-adv-x="687" vert-adv-y="1000"  />

      
      <glyph glyph-name="unidc" unicode="&#xdc;" d="M144 540Q146 552 147 562.50Q148 573 148 583Q148 609 136 624.50Q124 640 91 640L71 640L75 660L165 660Q205 660 223 648Q241 636 241 599Q241 587 239 572.50Q237 558 234 540L183 255Q179 233 177 214Q175 195 175 177Q175 107 208.50 68.50Q242 30 321 30Q378 30 419.50 45Q461 60 490.50 91.50Q520 123 538.50 171Q557 219 569 285L635 660L675 660L609 285Q596 212 575 156.50Q554 101 519 64Q484 27 431.50 8.50Q379-10 302-10Q186-10 137 37Q88 84 88 177Q88 201 91 228Q94 255 99 285L144 540M583 741Q583 718 566 699.50Q549 681 523 681Q503 681 492 692Q481 703 481 721Q481 744 498 762.50Q515 781 541 781Q561 781 572 770Q583 759 583 741M413 741Q413 718 396 699.50Q379 681 353 681Q333 681 322 692Q311 703 311 721Q311 744 328 762.50Q345 781 371 781Q391 781 402 770Q413 759 413 741Z"  horiz-adv-x="687" vert-adv-y="1000"  />

      
      <glyph glyph-name="unidd" unicode="&#xdd;" d="M365 325L633 660L678 660L377 280L328 0L238 0L286 273L161 530Q150 552 138.50 571.50Q127 591 113 605.50Q99 620 80 629Q61 638 35 640L39 660L129 660Q157 660 177.50 650.50Q198 641 213 625.50Q228 610 239 590.50Q250 571 259 550L365 325M421 671L381 671L444 801L539 801L421 671Z"  horiz-adv-x="629" vert-adv-y="1000"  />

      
      <glyph glyph-name="unide" unicode="&#xde;" d="M174 120Q228 120 273.50 136.50Q319 153 352 184Q385 215 403.50 260Q422 305 422 363Q422 430 380 470Q338 510 242 510L174 120M249 550Q383 550 452.50 503.50Q522 457 522 364Q522 289 493.50 236.50Q465 184 416.50 150Q368 116 303.50 99Q239 82 167 80L147-30L57-30Q85 130 104.50 240Q124 350 136.50 422Q149 494 156 533.50Q163 573 166 592.50Q169 612 169.50 616.50Q170 621 170 623Q170 670 111 670L91 670L94 690L184 690Q226 690 244 678.50Q262 667 262 636Q262 632 261.50 627Q261 622 260 613Q259 604 256 589Q253 574 249 550Z"  horiz-adv-x="537" vert-adv-y="1000"  />

      
      <glyph glyph-name="unidf" unicode="&#xdf;" d="M248 329Q248 358 259.50 379.50Q271 401 288 418.50Q305 436 325 452Q345 468 362 485Q379 502 390.50 522Q402 542 402 569Q402 598 383 614Q364 630 325 630Q276 630 245.50 602.50Q215 575 202 500L114 0L24 0L112 500Q121 552 142.50 585.50Q164 619 194 637.50Q224 656 261 663Q298 670 337 670Q413 670 451.50 646Q490 622 490 584Q490 558 478.50 537.50Q467 517 450.50 500Q434 483 414 467Q394 451 377.50 434.50Q361 418 349.50 398.50Q338 379 338 355Q338 332 350 315Q362 298 380.50 283.50Q399 269 420 255Q441 241 459.50 225Q478 209 490 188.50Q502 168 502 141Q502 107 488.50 79.50Q475 52 451.50 32Q428 12 397 1Q366-10 332-10Q312-10 289-6.50Q266-3 246 7Q226 17 212.50 33Q199 49 199 75Q199 84 200 93Q201 102 203 110L223 110L223 107Q223 92 230 78.50Q237 65 249.50 54Q262 43 279.50 36.50Q297 30 319 30Q336 30 352.50 35.50Q369 41 382.50 52Q396 63 404 79Q412 95 412 115Q412 137 400 154.50Q388 172 369.50 186.50Q351 201 330 215Q309 229 290.50 245Q272 261 260 281.50Q248 302 248 329Z"  horiz-adv-x="554" vert-adv-y="1000"  />

      
      <glyph glyph-name="unie0" unicode="&#xe0;" d="M296 440Q250 440 218 410Q186 380 165.50 336.50Q145 293 136 244Q127 195 127 157Q127 102 147 66Q167 30 214 30Q259 30 284.50 48.50Q310 67 329 90L381 380Q375 391 368 402Q361 413 351.50 421.50Q342 430 328.50 435Q315 440 296 440M273 480Q325 480 351 462Q377 444 388 425L393 425L436 470L486 470L419 87L404 0L354 0L326 45L321 45Q303 26 270 8Q237-10 177-10Q140-10 112.50 3.50Q85 17 67 40Q49 63 40.50 95Q32 127 32 163Q32 215 47 269Q62 323 92 368.50Q122 414 167 444.50Q212 475 273 480M219 655L314 655L331 525L291 525L219 655Z"  horiz-adv-x="525" vert-adv-y="1000"  />

      
      <glyph glyph-name="unie1" unicode="&#xe1;" d="M296 440Q250 440 218 410Q186 380 165.50 336.50Q145 293 136 244Q127 195 127 157Q127 102 147 66Q167 30 214 30Q259 30 284.50 48.50Q310 67 329 90L381 380Q375 391 368 402Q361 413 351.50 421.50Q342 430 328.50 435Q315 440 296 440M273 480Q325 480 351 462Q377 444 388 425L393 425L436 470L486 470L419 87L404 0L354 0L326 45L321 45Q303 26 270 8Q237-10 177-10Q140-10 112.50 3.50Q85 17 67 40Q49 63 40.50 95Q32 127 32 163Q32 215 47 269Q62 323 92 368.50Q122 414 167 444.50Q212 475 273 480M321 526L281 526L344 656L439 656L321 526Z"  horiz-adv-x="525" vert-adv-y="1000"  />

      
      <glyph glyph-name="unie2" unicode="&#xe2;" d="M296 440Q250 440 218 410Q186 380 165.50 336.50Q145 293 136 244Q127 195 127 157Q127 102 147 66Q167 30 214 30Q259 30 284.50 48.50Q310 67 329 90L381 380Q375 391 368 402Q361 413 351.50 421.50Q342 430 328.50 435Q315 440 296 440M273 480Q325 480 351 462Q377 444 388 425L393 425L436 470L486 470L419 87L404 0L354 0L326 45L321 45Q303 26 270 8Q237-10 177-10Q140-10 112.50 3.50Q85 17 67 40Q49 63 40.50 95Q32 127 32 163Q32 215 47 269Q62 323 92 368.50Q122 414 167 444.50Q212 475 273 480M328 611L229 531L179 531L279 646L389 646L449 531L399 531L328 611Z"  horiz-adv-x="525" vert-adv-y="1000"  />

      
      <glyph glyph-name="unie3" unicode="&#xe3;" d="M296 440Q250 440 218 410Q186 380 165.50 336.50Q145 293 136 244Q127 195 127 157Q127 102 147 66Q167 30 214 30Q259 30 284.50 48.50Q310 67 329 90L381 380Q375 391 368 402Q361 413 351.50 421.50Q342 430 328.50 435Q315 440 296 440M273 480Q325 480 351 462Q377 444 388 425L393 425L436 470L486 470L419 87L404 0L354 0L326 45L321 45Q303 26 270 8Q237-10 177-10Q140-10 112.50 3.50Q85 17 67 40Q49 63 40.50 95Q32 127 32 163Q32 215 47 269Q62 323 92 368.50Q122 414 167 444.50Q212 475 273 480M197 536Q207 589 225.50 610Q244 631 274 631Q290 631 302 624.50Q314 618 324.50 610.50Q335 603 346 597Q357 591 372 591Q378 591 384 595Q390 599 395.50 605Q401 611 404.50 618Q408 625 409 631L439 631Q430 578 411 557Q392 536 362 536Q346 536 334.50 542Q323 548 312.50 555.50Q302 563 290.50 569.50Q279 576 264 576Q258 576 252 572Q246 568 241 562Q236 556 232 549Q228 542 227 536L197 536Z"  horiz-adv-x="525" vert-adv-y="1000"  />

      
      <glyph glyph-name="unie4" unicode="&#xe4;" d="M296 440Q250 440 218 410Q186 380 165.50 336.50Q145 293 136 244Q127 195 127 157Q127 102 147 66Q167 30 214 30Q259 30 284.50 48.50Q310 67 329 90L381 380Q375 391 368 402Q361 413 351.50 421.50Q342 430 328.50 435Q315 440 296 440M273 480Q325 480 351 462Q377 444 388 425L393 425L436 470L486 470L419 87L404 0L354 0L326 45L321 45Q303 26 270 8Q237-10 177-10Q140-10 112.50 3.50Q85 17 67 40Q49 63 40.50 95Q32 127 32 163Q32 215 47 269Q62 323 92 368.50Q122 414 167 444.50Q212 475 273 480M452 588Q452 568 436 551.50Q420 535 398 535Q381 535 370.50 545Q360 555 360 571Q360 591 375.50 608Q391 625 414 625Q431 625 441.50 614.50Q452 604 452 588M282 588Q282 568 266 551.50Q250 535 228 535Q211 535 200.50 545Q190 555 190 571Q190 591 205.50 608Q221 625 244 625Q261 625 271.50 614.50Q282 604 282 588Z"  horiz-adv-x="525" vert-adv-y="1000"  />

      
      <glyph glyph-name="unie5" unicode="&#xe5;" d="M296 440Q250 440 218 410Q186 380 165.50 336.50Q145 293 136 244Q127 195 127 157Q127 102 147 66Q167 30 214 30Q259 30 284.50 48.50Q310 67 329 90L381 380Q375 391 368 402Q361 413 351.50 421.50Q342 430 328.50 435Q315 440 296 440M273 480Q325 480 351 462Q377 444 388 425L393 425L436 470L486 470L419 87L404 0L354 0L326 45L321 45Q303 26 270 8Q237-10 177-10Q140-10 112.50 3.50Q85 17 67 40Q49 63 40.50 95Q32 127 32 163Q32 215 47 269Q62 323 92 368.50Q122 414 167 444.50Q212 475 273 480M236 602Q236 620 244.50 637.50Q253 655 267 669Q281 683 299 691.50Q317 700 337 700Q367 700 387.50 678.50Q408 657 408 628Q408 610 399.50 592.50Q391 575 377 561Q363 547 344.50 538.50Q326 530 307 530Q277 530 256.50 551.50Q236 573 236 602M313 565Q336 565 352 583Q368 601 368 626Q368 644 358 654.50Q348 665 331 665Q308 665 292 647Q276 629 276 604Q276 586 286 575.50Q296 565 313 565Z"  horiz-adv-x="525" vert-adv-y="1000"  />

      
      <glyph glyph-name="unie6" unicode="&#xe6;" d="M402 210Q399 186 399 165Q399 104 426 67Q453 30 506 30Q555 30 591 51Q627 72 660 110L677 95Q633 38 584.50 14Q536-10 479-10Q420-10 381.50 11.50Q343 33 324 75Q294 34 254 12Q214-10 149-10Q125-10 100.50-5Q76 0 56 12.50Q36 25 23 45.50Q10 66 10 97Q10 147 36.50 178.50Q63 210 104 228Q145 246 194.50 253Q244 260 291 260L321 260Q330 309 330 342Q330 372 324 391Q318 410 307 421Q296 432 281 436Q266 440 248 440Q206 440 174.50 422Q143 404 123 355L78 355Q83 381 90 403.50Q97 426 119 445Q130 454 147 461Q164 468 185 472Q206 476 229 478Q252 480 275 480Q328 480 359.50 454Q391 428 399 390Q421 428 463.50 454Q506 480 555 480Q600 480 630.50 471Q661 462 680.50 447Q700 432 708.50 411Q717 390 717 366Q717 325 699.50 295.50Q682 266 652.50 247Q623 228 585 219Q547 210 506 210L402 210M409 250L508 250Q556 250 589 280Q622 310 622 364Q622 399 605.50 417Q589 435 552 435Q529 435 507 421.50Q485 408 466 385Q447 362 432.50 329.50Q418 297 411 260L409 250M314 220L284 220Q258 220 227 215Q196 210 169 197Q142 184 124 162Q106 140 106 106Q106 71 130 53Q154 35 187 35Q225 35 249 53.50Q273 72 292 95L314 220Z"  horiz-adv-x="752" vert-adv-y="1000"  />

      
      <glyph glyph-name="unie7" unicode="&#xe7;" d="M302 480Q321 480 347.50 478.50Q374 477 398 469.50Q422 462 438.50 446.50Q455 431 455 402Q455 380 451 358.50Q447 337 443 315L423 315Q424 321 424 326.50Q424 332 424 337Q424 390 393.50 415Q363 440 315 440Q266 440 231 414Q196 388 173 348.50Q150 309 139 261.50Q128 214 128 171Q128 108 155.50 69Q183 30 243 30Q296 30 332.50 51Q369 72 402 110L419 95Q377 41 330 17.50Q283-6 226-10L220-41Q253-43 271.50-54Q290-65 290-93Q290-120 278.50-137Q267-154 248-164Q229-174 205-177.50Q181-181 156-181L161-151Q173-151 188-150Q203-149 216.50-144.50Q230-140 239.50-130Q249-120 249-102Q249-85 232.50-78Q216-71 175-71L186-10Q146-6 117 10Q88 26 69.50 50Q51 74 42 106Q33 138 33 174Q33 229 51 283.50Q69 338 103.50 381.50Q138 425 188 452.50Q238 480 302 480Z"  horiz-adv-x="486" vert-adv-y="1000"  />

      
      <glyph glyph-name="unie8" unicode="&#xe8;" d="M127 200Q125 189 124 179Q123 169 123 159Q123 105 150.50 67.50Q178 30 232 30Q281 30 317 51Q353 72 386 110L403 95Q359 38 310.50 14Q262-10 205-10Q161-10 128.50 4Q96 18 74.50 42.50Q53 67 42.50 100.50Q32 134 32 173Q32 225 49 279.50Q66 334 99 378.50Q132 423 180.50 451.50Q229 480 291 480Q380 480 419 447Q458 414 458 366Q458 325 440.50 294Q423 263 393.50 242Q364 221 326 210.50Q288 200 247 200L127 200M249 240Q297 242 330 276Q363 310 363 364Q363 399 342.50 419.50Q322 440 284 440Q231 440 191 387Q151 334 134 240L249 240M202 655L297 655L314 525L274 525L202 655Z"  horiz-adv-x="487" vert-adv-y="1000"  />

      
      <glyph glyph-name="unie9" unicode="&#xe9;" d="M127 200Q125 189 124 179Q123 169 123 159Q123 105 150.50 67.50Q178 30 232 30Q281 30 317 51Q353 72 386 110L403 95Q359 38 310.50 14Q262-10 205-10Q161-10 128.50 4Q96 18 74.50 42.50Q53 67 42.50 100.50Q32 134 32 173Q32 225 49 279.50Q66 334 99 378.50Q132 423 180.50 451.50Q229 480 291 480Q380 480 419 447Q458 414 458 366Q458 325 440.50 294Q423 263 393.50 242Q364 221 326 210.50Q288 200 247 200L127 200M249 240Q297 242 330 276Q363 310 363 364Q363 399 342.50 419.50Q322 440 284 440Q231 440 191 387Q151 334 134 240L249 240M309 527L269 527L332 657L427 657L309 527Z"  horiz-adv-x="487" vert-adv-y="1000"  />

      
      <glyph glyph-name="uniea" unicode="&#xea;" d="M127 200Q125 189 124 179Q123 169 123 159Q123 105 150.50 67.50Q178 30 232 30Q281 30 317 51Q353 72 386 110L403 95Q359 38 310.50 14Q262-10 205-10Q161-10 128.50 4Q96 18 74.50 42.50Q53 67 42.50 100.50Q32 134 32 173Q32 225 49 279.50Q66 334 99 378.50Q132 423 180.50 451.50Q229 480 291 480Q380 480 419 447Q458 414 458 366Q458 325 440.50 294Q423 263 393.50 242Q364 221 326 210.50Q288 200 247 200L127 200M249 240Q297 242 330 276Q363 310 363 364Q363 399 342.50 419.50Q322 440 284 440Q231 440 191 387Q151 334 134 240L249 240M318 606L219 526L169 526L269 641L379 641L439 526L389 526L318 606Z"  horiz-adv-x="487" vert-adv-y="1000"  />

      
      <glyph glyph-name="unieb" unicode="&#xeb;" d="M127 200Q125 189 124 179Q123 169 123 159Q123 105 150.50 67.50Q178 30 232 30Q281 30 317 51Q353 72 386 110L403 95Q359 38 310.50 14Q262-10 205-10Q161-10 128.50 4Q96 18 74.50 42.50Q53 67 42.50 100.50Q32 134 32 173Q32 225 49 279.50Q66 334 99 378.50Q132 423 180.50 451.50Q229 480 291 480Q380 480 419 447Q458 414 458 366Q458 325 440.50 294Q423 263 393.50 242Q364 221 326 210.50Q288 200 247 200L127 200M249 240Q297 242 330 276Q363 310 363 364Q363 399 342.50 419.50Q322 440 284 440Q231 440 191 387Q151 334 134 240L249 240M437 597Q437 577 421 560.50Q405 544 383 544Q366 544 355.50 554Q345 564 345 580Q345 600 360.50 617Q376 634 399 634Q416 634 426.50 623.50Q437 613 437 597M267 597Q267 577 251 560.50Q235 544 213 544Q196 544 185.50 554Q175 564 175 580Q175 600 190.50 617Q206 634 229 634Q246 634 256.50 623.50Q267 613 267 597Z"  horiz-adv-x="487" vert-adv-y="1000"  />

      
      <glyph glyph-name="uniec" unicode="&#xec;" d="M42 0Q58 92 69 156Q80 220 87.50 262.50Q95 305 99 330Q103 355 105 368.50Q107 382 107.50 387Q108 392 108 395Q108 421 95.50 435.50Q83 450 51 450L31 450L34 470L124 470Q164 470 182 458Q200 446 200 409Q200 405 199.50 399Q199 393 197 379Q195 365 190.50 339Q186 313 178.50 269Q171 225 159.50 159Q148 93 132 0L42 0M92 655L187 655L204 525L164 525L92 655Z"  horiz-adv-x="251" vert-adv-y="1000"  />

      
      <glyph glyph-name="unied" unicode="&#xed;" d="M42 0Q58 92 69 156Q80 220 87.50 262.50Q95 305 99 330Q103 355 105 368.50Q107 382 107.50 387Q108 392 108 395Q108 421 95.50 435.50Q83 450 51 450L31 450L34 470L124 470Q164 470 182 458Q200 446 200 409Q200 405 199.50 399Q199 393 197 379Q195 365 190.50 339Q186 313 178.50 269Q171 225 159.50 159Q148 93 132 0L42 0M179 526L139 526L202 656L297 656L179 526Z"  horiz-adv-x="251" vert-adv-y="1000"  />

      
      <glyph glyph-name="uniee" unicode="&#xee;" d="M42 0Q58 92 69 156Q80 220 87.50 262.50Q95 305 99 330Q103 355 105 368.50Q107 382 107.50 387Q108 392 108 395Q108 421 95.50 435.50Q83 450 51 450L31 450L34 470L124 470Q164 470 182 458Q200 446 200 409Q200 405 199.50 399Q199 393 197 379Q195 365 190.50 339Q186 313 178.50 269Q171 225 159.50 159Q148 93 132 0L42 0M195 611L96 531L46 531L146 646L256 646L316 531L266 531L195 611Z"  horiz-adv-x="251" vert-adv-y="1000"  />

      
      <glyph glyph-name="unief" unicode="&#xef;" d="M157 597Q157 574 142.50 557Q128 540 102 540Q82 540 69 555Q56 570 56 592Q56 615 70.50 632Q85 649 111 649Q131 649 144 634Q157 619 157 597M311 597Q311 574 296.50 557Q282 540 256 540Q236 540 223 555Q210 570 210 592Q210 615 224.50 632Q239 649 265 649Q285 649 298 634Q311 619 311 597M42 0Q58 92 69 156Q80 220 87.50 262.50Q95 305 99 330Q103 355 105 368.50Q107 382 107.50 387Q108 392 108 395Q108 421 95.50 435.50Q83 450 51 450L31 450L34 470L124 470Q164 470 182 458Q200 446 200 409Q200 405 199.50 399Q199 393 197 379Q195 365 190.50 339Q186 313 178.50 269Q171 225 159.50 159Q148 93 132 0L42 0Z"  horiz-adv-x="251" vert-adv-y="1000"  />

      
      <glyph glyph-name="unif0" unicode="&#xf0;" d="M302 550L350 590Q331 613 308 624Q285 635 247 635Q235 635 222 633Q209 631 202 629L198 648Q221 662 244.50 666Q268 670 294 670Q324 670 351.50 659.50Q379 649 402 630L444 670L468 640L427 605Q459 567 476.50 512Q494 457 494 385Q494 345 487.50 300Q481 255 467.50 211Q454 167 432 127Q410 87 378.50 56.50Q347 26 306.50 8Q266-10 214-10Q169-10 135 4.50Q101 19 78 44Q55 69 43.50 103.50Q32 138 32 179Q32 232 50.50 286Q69 340 104 383Q139 426 188.50 453Q238 480 300 480Q342 480 373 459Q404 438 416 400Q414 453 404.50 491.50Q395 530 374 560L327 520L302 550M221 30Q263 30 294.50 58.50Q326 87 346.50 128Q367 169 377.50 215Q388 261 388 297Q388 360 363.50 400Q339 440 293 440Q251 440 219.50 411.50Q188 383 167.50 342Q147 301 136.50 255Q126 209 126 173Q126 110 150.50 70Q175 30 221 30Z"  horiz-adv-x="537" vert-adv-y="1000"  />

      
      <glyph glyph-name="unif1" unicode="&#xf1;" d="M42 0Q58 92 69 156Q80 220 87.50 262.50Q95 305 99 330Q103 355 105 368.50Q107 382 107.50 387Q108 392 108 395Q108 421 95.50 435.50Q83 450 51 450L31 450L34 470L124 470Q162 470 180 459.50Q198 449 202 430L207 430Q230 449 265.50 464.50Q301 480 346 480Q374 480 399.50 474.50Q425 469 445 454.50Q465 440 477 415Q489 390 489 352Q489 348 488.50 342.50Q488 337 486.50 324.50Q485 312 481.50 290Q478 268 471.50 230Q465 192 455.50 136Q446 80 432 0L342 0Q356 78 365.50 133Q375 188 381 224.50Q387 261 390.50 282.50Q394 304 395.50 315.50Q397 327 397.50 331.50Q398 336 398 339Q398 365 390.50 383.50Q383 402 370.50 413.50Q358 425 342 430Q326 435 308 435Q278 435 250 419Q222 403 199 382L132 0L42 0M219 545Q229 598 247.50 619Q266 640 296 640Q312 640 324 633.50Q336 627 346.50 619.50Q357 612 368 606Q379 600 394 600Q400 600 406 604Q412 608 417.50 614Q423 620 426.50 627Q430 634 431 640L461 640Q452 587 433 566Q414 545 384 545Q368 545 356.50 551Q345 557 334.50 564.50Q324 572 312.50 578.50Q301 585 286 585Q280 585 274 581Q268 577 263 571Q258 565 254 558Q250 551 249 545L219 545Z"  horiz-adv-x="549" vert-adv-y="1000"  />

      
      <glyph glyph-name="unif2" unicode="&#xf2;" d="M221 30Q263 30 294.50 58.50Q326 87 346.50 128Q367 169 377.50 215Q388 261 388 297Q388 360 363.50 400Q339 440 293 440Q251 440 219.50 411.50Q188 383 167.50 342Q147 301 136.50 255Q126 209 126 173Q126 110 150.50 70Q175 30 221 30M32 179Q32 232 50.50 286Q69 340 104 383Q139 426 188.50 453Q238 480 300 480Q345 480 379 465.50Q413 451 436 426Q459 401 470.50 366Q482 331 482 291Q482 238 463.50 184Q445 130 410 87Q375 44 325.50 17Q276-10 214-10Q169-10 135 4.50Q101 19 78 44Q55 69 43.50 103.50Q32 138 32 179M226 655L321 655L338 525L298 525L226 655Z"  horiz-adv-x="529" vert-adv-y="1000"  />

      
      <glyph glyph-name="unif3" unicode="&#xf3;" d="M221 30Q263 30 294.50 58.50Q326 87 346.50 128Q367 169 377.50 215Q388 261 388 297Q388 360 363.50 400Q339 440 293 440Q251 440 219.50 411.50Q188 383 167.50 342Q147 301 136.50 255Q126 209 126 173Q126 110 150.50 70Q175 30 221 30M32 179Q32 232 50.50 286Q69 340 104 383Q139 426 188.50 453Q238 480 300 480Q345 480 379 465.50Q413 451 436 426Q459 401 470.50 366Q482 331 482 291Q482 238 463.50 184Q445 130 410 87Q375 44 325.50 17Q276-10 214-10Q169-10 135 4.50Q101 19 78 44Q55 69 43.50 103.50Q32 138 32 179M313 526L273 526L336 656L431 656L313 526Z"  horiz-adv-x="529" vert-adv-y="1000"  />

      
      <glyph glyph-name="unif4" unicode="&#xf4;" d="M221 30Q263 30 294.50 58.50Q326 87 346.50 128Q367 169 377.50 215Q388 261 388 297Q388 360 363.50 400Q339 440 293 440Q251 440 219.50 411.50Q188 383 167.50 342Q147 301 136.50 255Q126 209 126 173Q126 110 150.50 70Q175 30 221 30M32 179Q32 232 50.50 286Q69 340 104 383Q139 426 188.50 453Q238 480 300 480Q345 480 379 465.50Q413 451 436 426Q459 401 470.50 366Q482 331 482 291Q482 238 463.50 184Q445 130 410 87Q375 44 325.50 17Q276-10 214-10Q169-10 135 4.50Q101 19 78 44Q55 69 43.50 103.50Q32 138 32 179M322 606L223 526L173 526L273 641L383 641L443 526L393 526L322 606Z"  horiz-adv-x="529" vert-adv-y="1000"  />

      
      <glyph glyph-name="unif5" unicode="&#xf5;" d="M221 30Q263 30 294.50 58.50Q326 87 346.50 128Q367 169 377.50 215Q388 261 388 297Q388 360 363.50 400Q339 440 293 440Q251 440 219.50 411.50Q188 383 167.50 342Q147 301 136.50 255Q126 209 126 173Q126 110 150.50 70Q175 30 221 30M32 179Q32 232 50.50 286Q69 340 104 383Q139 426 188.50 453Q238 480 300 480Q345 480 379 465.50Q413 451 436 426Q459 401 470.50 366Q482 331 482 291Q482 238 463.50 184Q445 130 410 87Q375 44 325.50 17Q276-10 214-10Q169-10 135 4.50Q101 19 78 44Q55 69 43.50 103.50Q32 138 32 179M197 536Q207 589 225.50 610Q244 631 274 631Q290 631 302 624.50Q314 618 324.50 610.50Q335 603 346 597Q357 591 372 591Q378 591 384 595Q390 599 395.50 605Q401 611 404.50 618Q408 625 409 631L439 631Q430 578 411 557Q392 536 362 536Q346 536 334.50 542Q323 548 312.50 555.50Q302 563 290.50 569.50Q279 576 264 576Q258 576 252 572Q246 568 241 562Q236 556 232 549Q228 542 227 536L197 536Z"  horiz-adv-x="529" vert-adv-y="1000"  />

      
      </font>
</defs>
</svg>
